<?xml version="1.0" standalone="no"?>
<!DOCTYPE svg PUBLIC "-//W3C//DTD SVG 1.1//EN" "http://www.w3.org/Graphics/SVG/1.1/DTD/svg11.dtd" >
<svg>
<metadata>
Created by FontForge 20110222 at Wed Feb 25 18:07:55 2015
 By deploy user
Copyright (c) 2008 by Kris Sowersby / KLIM. All rights reserved.
</metadata>
<defs>
<font id="Newzald-BookItalic" horiz-adv-x="519" >
  <font-face 
    font-family="Newzald Book"
    font-weight="450"
    font-style="italic"
    font-stretch="normal"
    units-per-em="1000"
    panose-1="2 0 5 4 0 0 0 2 0 4"
    ascent="800"
    descent="-200"
    x-height="446"
    cap-height="588"
    bbox="-200 -267 1242 907.931"
    underline-thickness="50"
    underline-position="-50"
    unicode-range="U+0020-FB06"
  />
<missing-glyph horiz-adv-x="262" 
 />
    <glyph glyph-name="f_b" unicode="fb" horiz-adv-x="744" 
d="M430 328l-46 -280q29 -17 73 -17q67 0 110.5 66.5t43.5 165.5q0 56 -22.5 87t-62.5 31q-48 0 -96 -53zM486 681l-51 -310h4q47 75 127 75q63 0 100.5 -43.5t37.5 -122.5q0 -126 -71 -208t-186 -82q-44 0 -87 13.5t-66 32.5l85 527q-14 2 -24 12t-10 28q0 29 21 45
q-12 3 -24 3q-48 0 -77.5 -37t-46.5 -133l-8 -45h92l-15 -47h-86l-68 -408q-34 -201 -195 -201q-33 0 -53 17t-20 43q0 27 15 41.5t39 14.5q22 0 34.5 -14t12.5 -37q0 -24 -14 -35q62 0 81 106l80 473h-73l7 35l77 16l12 57q20 94 72.5 141.5t128.5 47.5q56 0 86 -20l47 15
h16z" />
    <glyph glyph-name="f_f_b" unicode="ffb" horiz-adv-x="983" 
d="M533 36l84 527q-33 4 -33 40q0 29 21 45q-12 3 -24 3q-48 0 -77.5 -37t-46.5 -133l-8 -45h92l-15 -47h-86l-65 -389q-17 -98 -56.5 -149.5t-121.5 -51.5q-33 0 -53 17t-20 43q0 27 15 41.5t39 14.5q22 0 34.5 -14t12.5 -37q0 -27 -15 -39q26 0 40 24t24 82l78 458h-151
l-68 -408q-34 -201 -195 -201q-33 0 -53 17t-20 43q0 27 15 41.5t39 14.5q22 0 34.5 -14t12.5 -37q0 -24 -14 -35q62 0 81 106l80 473h-73l7 35l77 16l10 46q20 98 78 144t135 46q72 0 100 -38q53 48 129 48q56 0 86 -20l47 15h16l-51 -310h4q47 75 127 75q63 0 100.5 -43.5
t37.5 -122.5q0 -126 -71 -208t-186 -82q-44 0 -87 13.5t-66 32.5zM669 328l-46 -280q29 -17 73 -17q67 0 110.5 66.5t43.5 165.5q0 56 -22.5 87t-62.5 31q-48 0 -96 -53zM375 497q5 24 12 45q-36 12 -36 51q0 29 21 45q-12 3 -24 3q-101 0 -130 -160l-8 -45h152z" />
    <glyph glyph-name="f_f_h" unicode="ffh" horiz-adv-x="985" 
d="M725 681l-52 -324h4q57 89 138 89q41 0 69 -24.5t28 -72.5q0 -14 -4 -40l-43 -252q42 -14 80 28l15 -15q-11 -32 -38.5 -56t-70.5 -24q-72 0 -72 66q0 14 4 38l34 198q7 42 -4 60.5t-42 18.5q-40 0 -104 -48l-50 -323h-89l89 563q-33 4 -33 40q0 29 21 45q-12 3 -24 3
q-48 0 -77.5 -37t-46.5 -133l-8 -45h92l-15 -47h-86l-65 -389q-17 -98 -56.5 -149.5t-121.5 -51.5q-33 0 -53 17t-20 43q0 27 15 41.5t39 14.5q22 0 34.5 -14t12.5 -37q0 -27 -15 -39q26 0 40 24t24 82l78 458h-151l-68 -408q-34 -201 -195 -201q-33 0 -53 17t-20 43
q0 27 15 41.5t39 14.5q22 0 34.5 -14t12.5 -37q0 -24 -14 -35q62 0 81 106l80 473h-73l7 35l77 16l10 46q20 98 78 144t135 46q72 0 100 -38q53 48 129 48q56 0 86 -20l47 15h16zM375 497q5 24 12 45q-36 12 -36 51q0 29 21 45q-12 3 -24 3q-101 0 -130 -160l-8 -45h152z
" />
    <glyph glyph-name="f_f_j" unicode="ffj" horiz-adv-x="723" 
d="M449 436h158q70 0 70 -66q0 -11 -4 -35l-58 -335q-17 -98 -56.5 -149.5t-121.5 -51.5q-33 0 -53 17t-20 43q0 27 15 41.5t39 14.5q22 0 34.5 -14t12.5 -37q0 -27 -15 -39q26 0 40 24t24 82l79 458h-153l-65 -389q-17 -98 -56.5 -149.5t-121.5 -51.5q-33 0 -53 17t-20 43
q0 27 15 41.5t39 14.5q22 0 34.5 -14t12.5 -37q0 -27 -15 -39q26 0 40 24t24 82l78 458h-151l-68 -408q-34 -201 -195 -201q-33 0 -53 17t-20 43q0 27 15 41.5t39 14.5q22 0 34.5 -14t12.5 -37q0 -24 -14 -35q62 0 81 106l80 473h-73l7 35l77 16l10 46q20 98 78 144t135 46
q75 0 102 -42q56 52 135 52q50 0 82.5 -19t32.5 -59q0 -25 -15.5 -41.5t-38.5 -16.5t-38.5 14.5t-15.5 38.5q0 29 21 45q-12 3 -24 3q-100 0 -131 -170zM375 497q5 26 13 45q-37 11 -37 51q0 29 21 45q-12 3 -24 3q-101 0 -130 -160l-8 -45h152z" />
    <glyph glyph-name="f_f_k" unicode="ffk" horiz-adv-x="939" 
d="M528 0l89 563q-33 4 -33 40q0 29 21 45q-12 3 -24 3q-48 0 -77.5 -37t-46.5 -133l-8 -45h92l-15 -47h-86l-65 -389q-17 -98 -56.5 -149.5t-121.5 -51.5q-33 0 -53 17t-20 43q0 27 15 41.5t39 14.5q22 0 34.5 -14t12.5 -37q0 -27 -15 -39q26 0 40 24t24 82l78 458h-151
l-68 -408q-34 -201 -195 -201q-33 0 -53 17t-20 43q0 27 15 41.5t39 14.5q22 0 34.5 -14t12.5 -37q0 -24 -14 -35q62 0 81 106l80 473h-73l7 35l77 16l10 46q20 98 78 144t135 46q72 0 100 -38q53 48 129 48q56 0 86 -20l47 15h16l-70 -439l41 6l122 141l-46 22v25h171
l6 -25l-64 -24l-131 -137l86 -198q15 -5 35 0.5t34 20.5l15 -15q-23 -68 -95 -68q-35 0 -52 14.5t-29 45.5l-59 155l-40 3l-32 -208h-89zM375 497q5 24 12 45q-36 12 -36 51q0 29 21 45q-12 3 -24 3q-101 0 -130 -160l-8 -45h152z" />
    <glyph glyph-name="f_h" unicode="fh" horiz-adv-x="746" 
d="M289 0l90 563q-14 2 -24 12t-10 28q0 29 21 45q-12 3 -24 3q-48 0 -77.5 -37t-46.5 -133l-8 -45h92l-15 -47h-86l-68 -408q-34 -201 -195 -201q-33 0 -53 17t-20 43q0 27 15 41.5t39 14.5q22 0 34.5 -14t12.5 -37q0 -24 -14 -35q62 0 81 106l80 473h-73l7 35l77 16l12 57
q20 94 72.5 141.5t128.5 47.5q56 0 86 -20l47 15h16l-52 -324h4q57 89 138 89q41 0 69 -24.5t28 -72.5q0 -14 -4 -40l-43 -252q42 -14 80 28l15 -15q-11 -32 -38.5 -56t-70.5 -24q-72 0 -72 66q0 14 4 38l34 198q7 42 -4 60.5t-42 18.5q-40 0 -104 -48l-50 -323h-89z" />
    <glyph glyph-name="f_j" unicode="fj" horiz-adv-x="484" 
d="M434 335l-58 -335q-17 -98 -56.5 -149.5t-121.5 -51.5q-33 0 -53 17t-20 43q0 27 15 41.5t39 14.5q22 0 34.5 -14t12.5 -37q0 -27 -15 -39q26 0 40 24t24 82l79 458h-153l-68 -408q-34 -201 -195 -201q-33 0 -53 17t-20 43q0 27 15 41.5t39 14.5q22 0 34.5 -14t12.5 -37
q0 -24 -14 -35q62 0 81 106l80 473h-73l7 35l77 16l12 57q19 92 77.5 140.5t131.5 48.5q50 0 82.5 -19t32.5 -59q0 -25 -15.5 -41.5t-38.5 -16.5t-38.5 14.5t-15.5 38.5q0 29 21 45q-12 3 -24 3q-100 0 -131 -170l-8 -45h158q70 0 70 -66q0 -11 -4 -35z" />
    <glyph glyph-name="f_k" unicode="fk" horiz-adv-x="700" 
d="M289 0l90 563q-14 2 -24 12t-10 28q0 29 21 45q-12 3 -24 3q-48 0 -77.5 -37t-46.5 -133l-8 -45h92l-15 -47h-86l-68 -408q-34 -201 -195 -201q-33 0 -53 17t-20 43q0 27 15 41.5t39 14.5q22 0 34.5 -14t12.5 -37q0 -24 -14 -35q62 0 81 106l80 473h-73l7 35l77 16l12 57
q20 94 72.5 141.5t128.5 47.5q56 0 86 -20l47 15h16l-70 -439l41 6l122 141l-46 22v25h171l6 -25l-64 -24l-131 -137l86 -198q15 -5 35 0.5t34 20.5l15 -15q-23 -68 -95 -68q-35 0 -52 14.5t-29 45.5l-59 155l-40 3l-32 -208h-89z" />
    <glyph glyph-name="ff" unicode="ff" horiz-adv-x="515" 
d="M274 -69l78 458h-151l-68 -408q-34 -201 -195 -201q-33 0 -53 17t-20 43q0 27 15 41.5t39 14.5q22 0 34.5 -14t12.5 -37q0 -24 -14 -35q62 0 81 106l80 473h-73l7 35l77 16l10 46q20 98 78 144t135 46q74 0 100 -39q53 49 126 49q48 0 80 -19t32 -59q0 -25 -15.5 -41.5
t-38.5 -16.5t-38.5 14.5t-15.5 38.5q0 29 21 45q-12 3 -24 3q-87 0 -117 -170l-8 -45h120l-15 -47h-114l-65 -389q-17 -98 -56.5 -149.5t-121.5 -51.5q-33 0 -53 17t-20 43q0 27 15 41.5t39 14.5q22 0 34.5 -14t12.5 -37q0 -27 -15 -39q26 0 40 24t24 82zM375 497
q5 24 12 45q-36 12 -36 51q0 29 21 45q-12 3 -24 3q-101 0 -130 -160l-8 -45h152z" />
    <glyph glyph-name="ffi" unicode="ffi" horiz-adv-x="749" 
d="M347 676q75 0 102 -42q56 52 135 52q50 0 82.5 -19t32.5 -59q0 -25 -15.5 -41.5t-38.5 -16.5t-38.5 14.5t-15.5 38.5q0 29 21 45q-12 3 -24 3q-100 0 -131 -170l-8 -45h158q39 0 54.5 -13.5t15.5 -42.5q0 -11 -4 -35l-49 -288q42 -14 80 28l15 -15q-11 -32 -38.5 -56
t-70.5 -24q-72 0 -72 66q0 14 4 38l50 295h-152l-65 -389q-17 -98 -56.5 -149.5t-121.5 -51.5q-33 0 -53 17t-20 43q0 27 15 41.5t39 14.5q22 0 34.5 -14t12.5 -37q0 -27 -15 -39q26 0 40 24t24 82l78 458h-151l-68 -408q-34 -201 -195 -201q-33 0 -53 17t-20 43
q0 27 15 41.5t39 14.5q22 0 34.5 -14t12.5 -37q0 -24 -14 -35q62 0 81 106l80 473h-73l7 35l77 16l10 46q20 98 78 144t135 46zM362 436l13 61q5 26 13 45q-37 11 -37 51q0 29 21 45q-12 3 -24 3q-101 0 -130 -160l-8 -45h152z" />
    <glyph glyph-name="ffl" unicode="ffl" horiz-adv-x="745" 
d="M347 676q72 0 100 -38q53 48 129 48q56 0 86 -20l47 15h16l-99 -624q42 -14 80 28l15 -15q-11 -32 -38.5 -56t-70.5 -24q-72 0 -72 66q0 14 4 38l74 469q-14 2 -24 12t-10 28q0 29 21 45q-12 3 -24 3q-48 0 -77.5 -37t-46.5 -133l-8 -45h92l-15 -47h-86l-65 -389
q-17 -98 -56.5 -149.5t-121.5 -51.5q-33 0 -53 17t-20 43q0 27 15 41.5t39 14.5q22 0 34.5 -14t12.5 -37q0 -27 -15 -39q26 0 40 24t24 82l78 458h-151l-68 -408q-34 -201 -195 -201q-33 0 -53 17t-20 43q0 27 15 41.5t39 14.5q22 0 34.5 -14t12.5 -37q0 -24 -14 -35
q62 0 81 106l80 473h-73l7 35l77 16l10 46q20 98 78 144t135 46zM362 436l13 61q5 24 12 45q-36 12 -36 51q0 29 21 45q-12 3 -24 3q-101 0 -130 -160l-8 -45h152z" />
    <glyph glyph-name="fi" unicode="fi" horiz-adv-x="510" 
d="M353 389h-152l-68 -408q-34 -201 -195 -201q-33 0 -53 17t-20 43q0 27 15 41.5t39 14.5q22 0 34.5 -14t12.5 -37q0 -24 -14 -35q62 0 81 106l80 473h-73l7 35l77 16l12 57q19 92 77.5 140.5t131.5 48.5q50 0 82.5 -19t32.5 -59q0 -25 -15.5 -41.5t-38.5 -16.5t-38.5 14.5
t-15.5 38.5q0 29 21 45q-12 3 -24 3q-100 0 -131 -170l-8 -45h158q39 0 54.5 -13.5t15.5 -42.5q0 -11 -4 -35l-49 -288q42 -14 80 28l15 -15q-11 -32 -38.5 -56t-70.5 -24q-72 0 -72 66q0 14 4 38z" />
    <glyph glyph-name="fl" unicode="fl" horiz-adv-x="506" 
d="M305 94l74 469q-14 2 -24 12t-10 28q0 29 21 45q-12 3 -24 3q-48 0 -77.5 -37t-46.5 -133l-8 -45h92l-15 -47h-86l-68 -408q-34 -201 -195 -201q-33 0 -53 17t-20 43q0 27 15 41.5t39 14.5q22 0 34.5 -14t12.5 -37q0 -24 -14 -35q62 0 81 106l80 473h-73l7 35l77 16
l12 57q20 94 72.5 141.5t128.5 47.5q56 0 86 -20l47 15h16l-99 -624q42 -14 80 28l15 -15q-11 -32 -38.5 -56t-70.5 -24q-72 0 -72 66q0 14 4 38z" />
    <glyph glyph-name=".notdef" horiz-adv-x="262" 
 />
    <glyph glyph-name=".null" horiz-adv-x="0" 
 />
    <glyph glyph-name="nonmarkingreturn" horiz-adv-x="333" 
 />
    <glyph glyph-name="space" unicode=" " horiz-adv-x="182" 
 />
    <glyph glyph-name="exclam" unicode="!" horiz-adv-x="255" 
d="M109 181l14 350l9 57h113l-9 -58l-88 -349h-39zM35 60q0 30 20 49.5t48 19.5t48.5 -20t20.5 -49t-20.5 -48.5t-48.5 -19.5t-48 19.5t-20 48.5z" />
    <glyph glyph-name="quotedbl" unicode="&#x22;" horiz-adv-x="347" 
d="M131 393l-26 4v219q4 19 19 29t34 10q30 0 44.5 -19t10.5 -42zM289 393l-26 4v219q4 19 19 29t34 10q30 0 44.5 -19t10.5 -42z" />
    <glyph glyph-name="numbersign" unicode="#" horiz-adv-x="669" 
d="M78 345l13 43h166l57 200h47l-57 -200h116l57 200h47l-57 -200h162l-13 -43h-162l-32 -112h169l-13 -43h-169l-54 -190h-47l54 190h-116l-54 -190h-47l54 190h-159l13 43h159l32 112h-166zM291 345l-32 -112h116l32 112h-116z" />
    <glyph glyph-name="dollar" unicode="$" horiz-adv-x="498" 
d="M171 -110l16 102q-71 7 -116.5 39.5t-45.5 82.5q0 28 15.5 45.5t42.5 18.5q28 1 43.5 -14.5t15.5 -39.5q0 -18 -11.5 -32.5t-27.5 -18.5q27 -33 90 -40l37 233l-22 10q-109 49 -109 151q0 82 53.5 124.5t129.5 45.5l16 100h40l-16 -101q62 -6 104 -37t42 -76
q0 -27 -15 -43.5t-40 -16.5t-40 13.5t-15 35.5q0 38 41 48q-25 29 -83 36l-34 -212l30 -13q115 -52 115 -161q0 -92 -57.5 -135.5t-143.5 -44.5l-15 -100h-40zM342 144q0 36 -17 60.5t-58 44.5l-34 -217q47 3 78 32t31 80zM178 453q0 -61 67 -92l31 196q-43 -4 -70.5 -29.5
t-27.5 -74.5z" />
    <glyph glyph-name="percent" unicode="%" horiz-adv-x="886" 
d="M35 371q0 100 51 163.5t137 63.5q62 0 97.5 -40t35.5 -109q0 -90 -48 -156t-131 -66q-66 0 -104 37.5t-38 106.5zM226 551q-48 0 -77.5 -52t-29.5 -129q0 -99 74 -99q53 0 83 52.5t30 125.5q0 44 -20.5 73t-59.5 29zM176 -39l487 667h47l-487 -667h-47zM530 137
q0 100 51 163.5t137 63.5q62 0 97.5 -40t35.5 -109q0 -90 -48 -156t-131 -66q-66 0 -104 37.5t-38 106.5zM721 317q-48 0 -77.5 -52t-29.5 -129q0 -99 74 -99q53 0 83 52.5t30 125.5q0 44 -20.5 73t-59.5 29z" />
    <glyph glyph-name="ampersand" unicode="&#x26;" horiz-adv-x="527" 
d="M318 474q0 23 14.5 38.5t39.5 15.5q-9 34 -71 34q-44 0 -67.5 -28.5t-23.5 -80.5q0 -45 23.5 -70.5t68.5 -25.5l4 -30q-182 -34 -182 -164q0 -58 33 -91t95 -33q72 0 118.5 34.5t46.5 102.5q0 37 -17.5 56.5t-48.5 19.5q-35 0 -48 -20q20 -2 32.5 -13.5t12.5 -32.5
t-13.5 -34t-37.5 -13t-38.5 14t-14.5 41q0 41 37.5 66t100.5 25q87 0 103 19q-45 3 -45 46q0 20 14.5 33.5t38.5 13.5t39 -14t15 -40q0 -41 -33.5 -64t-90.5 -23v-4q46 -24 46 -89q0 -81 -67 -127t-170 -46q-212 0 -212 161q0 71 50.5 119.5t132.5 63.5v4q-38 6 -63.5 37
t-25.5 78q0 72 51.5 108t121.5 36q73 0 108.5 -32t35.5 -77q0 -31 -17.5 -46.5t-40.5 -15.5t-39 13t-16 35z" />
    <glyph glyph-name="quotesingle" unicode="'" horiz-adv-x="189" 
d="M131 393l-26 4v219q4 19 19 29t34 10q30 0 44.5 -19t10.5 -42z" />
    <glyph glyph-name="parenleft" unicode="(" horiz-adv-x="316" 
d="M139 202q0 -101 30 -180.5t89 -162.5h-62q-126 144 -126 343q0 139 72 272t186 225h63q-252 -247 -252 -497z" />
    <glyph glyph-name="parenright" unicode=")" horiz-adv-x="316" 
d="M212 356q0 101 -30 180.5t-89 162.5h62q126 -144 126 -343q0 -139 -72 -272t-186 -225h-63q252 247 252 497z" />
    <glyph glyph-name="asterisk" unicode="*" horiz-adv-x="407" 
d="M151 604l18 36l41 -2q13 -56 48 -120q32 57 50 120l40 2l19 -36q-43 -42 -80 -102q69 2 129 17l21 -34l-21 -34q-60 17 -128 17q34 -58 78 -102l-18 -36l-41 2q-15 59 -48 120q-34 -59 -50 -120l-40 -2l-19 36q43 42 80 102q-69 0 -129 -17l-21 34l21 34q58 -15 128 -17
q-34 58 -78 102z" />
    <glyph glyph-name="plus" unicode="+" horiz-adv-x="483" 
d="M52 266h169l26 165h44l-26 -165h173l-7 -43h-173l-28 -178h-44l28 178h-169z" />
    <glyph glyph-name="comma" unicode="," horiz-adv-x="253" 
d="M123 26h-6q-8 -26 -39 -26q-24 0 -37.5 17t-13.5 41q0 29 19.5 46.5t47.5 17.5q37 0 58 -23.5t21 -63.5q0 -69 -54.5 -118t-129.5 -61l-9 29q136 42 143 141z" />
    <glyph glyph-name="hyphen" unicode="-" horiz-adv-x="329" 
d="M40 209l10 51h239l-10 -51h-239z" />
    <glyph glyph-name="period" unicode="." horiz-adv-x="252" 
d="M35 60q0 30 20 49.5t48 19.5t48.5 -20t20.5 -49t-20.5 -48.5t-48.5 -19.5t-48 19.5t-20 48.5z" />
    <glyph glyph-name="slash" unicode="/" horiz-adv-x="314" 
d="M-30 -141l362 842h53l-363 -842h-52z" />
    <glyph glyph-name="zero" unicode="0" horiz-adv-x="554" 
d="M50 210q0 122 72 210t186 88q89 0 142.5 -58t53.5 -159q0 -121 -68 -211t-186 -90q-91 0 -145.5 59.5t-54.5 160.5zM320 451q-74 0 -120.5 -72.5t-46.5 -168.5q0 -165 115 -165q81 0 128 73t47 173q0 69 -32 114.5t-91 45.5z" />
    <glyph glyph-name="one" unicode="1" horiz-adv-x="370" 
d="M281 503l-71 -449l115 -17l-15 -37h-306l-4 37l122 17l57 357h-122l-4 29l212 69z" />
    <glyph glyph-name="two" unicode="2" horiz-adv-x="462" 
d="M131 75h255l-11 -75h-382l-3 32q23 15 71.5 44t75 45.5t64 44.5t57 51.5t34.5 55.5t15 66q0 46 -26.5 71.5t-76.5 25.5q-98 0 -98 -114l-31 -11q-9 24 -9 49q0 72 45.5 110t119.5 38q82 0 126.5 -40t44.5 -111q0 -45 -21.5 -86.5t-51 -70t-70.5 -55t-69.5 -40
t-58.5 -25.5v-5z" />
    <glyph glyph-name="three" unicode="3" horiz-adv-x="453" 
d="M53 78q25 0 38.5 -14.5t13.5 -36.5q0 -40 -38 -50q9 -16 34 -26.5t55 -10.5q129 0 129 120q0 112 -156 127l-4 30q101 23 146 51.5t45 84.5q0 40 -22 63t-62 23q-55 0 -77.5 -32.5t-10.5 -86.5l-27 -13q-22 26 -22 63q0 58 40 98t116 40q73 0 115 -35.5t42 -99.5
t-51.5 -104.5t-121.5 -48.5v-4q65 -9 105.5 -43t40.5 -97q0 -48 -20 -84t-53.5 -55t-69.5 -28t-74 -9q-77 0 -123 32t-46 82q0 30 16.5 47t41.5 17z" />
    <glyph glyph-name="four" unicode="4" horiz-adv-x="528" 
d="M383 114h95l-8 -52h-95l-24 -152h-88l24 152h-297l5 30l357 406h92zM149 114h146l31 193l23 120h-4q-26 -37 -82 -103l-123 -144q-18 -21 -35 -37t-25 -22l-8 -6v-4q13 3 77 3z" />
    <glyph glyph-name="five" unicode="5" horiz-adv-x="447" 
d="M171 407l-26 -123q32 -4 56.5 -9t53.5 -14t49.5 -22.5t38.5 -33t27 -48t9 -64.5q0 -89 -61.5 -141t-163.5 -52q-68 0 -113.5 31.5t-45.5 82.5q0 30 17 47t41 17q25 0 38.5 -14t13.5 -37q0 -21 -12 -35t-30 -16q29 -36 93 -36q57 0 93.5 33.5t36.5 96.5q0 69 -49.5 100
t-147.5 43l60 285h273l-13 -91h-238z" />
    <glyph glyph-name="six" unicode="6" horiz-adv-x="522" 
d="M170 304q-30 -62 -30 -130t27 -105t81 -37q58 0 91.5 45.5t33.5 125.5q0 120 -103 120q-64 0 -100 -19zM180 337q45 36 125 36q70 0 116.5 -44t46.5 -121q0 -97 -61 -157.5t-159 -60.5q-94 0 -146 53t-52 152q0 159 123.5 270t339.5 132l9 -31q-95 -19 -162 -53.5
t-104.5 -74t-75.5 -101.5z" />
    <glyph glyph-name="seven" unicode="7" horiz-adv-x="429" 
d="M106 53l239 358v4q-14 -8 -77 -8h-164l-57 -90l-17 6l24 175h401l4 -8l-327 -481h4q14 15 35 15q25 0 40 -16.5t15 -42.5q0 -31 -21 -48t-52 -17q-33 0 -54 21t-21 53q0 38 28 79z" />
    <glyph glyph-name="eight" unicode="8" horiz-adv-x="531" 
d="M271 283q-59 0 -96 -37.5t-37 -108.5q0 -48 26 -77.5t74 -29.5q63 0 95 43t32 103q0 52 -27.5 79.5t-66.5 27.5zM184 305v2q-78 36 -78 121q0 80 59.5 125t151.5 45q84 0 131.5 -40t47.5 -105q0 -124 -129 -156v-3q46 -13 72.5 -49t26.5 -82q0 -80 -64 -126.5t-163 -46.5
q-100 0 -149.5 40.5t-49.5 109.5q0 68 41.5 111t102.5 54zM284 319q56 0 87 44t31 105q0 41 -22.5 64.5t-62.5 23.5q-50 0 -82.5 -36.5t-32.5 -103.5q0 -44 24 -70.5t58 -26.5z" />
    <glyph glyph-name="nine" unicode="9" horiz-adv-x="517" 
d="M353 194q30 62 30 130t-27 105t-81 37q-58 0 -92 -47t-34 -126q0 -60 27.5 -89t76.5 -29q64 0 100 19zM343 161q-45 -36 -125 -36q-70 0 -117 44.5t-47 123.5q0 95 61.5 155t159.5 60q94 0 146 -53t52 -152q0 -159 -123.5 -270t-339.5 -132l-9 31q95 19 162 53.5
t104.5 74t75.5 101.5z" />
    <glyph glyph-name="colon" unicode=":" horiz-adv-x="252" 
d="M35 60q0 30 20 49.5t48 19.5t48.5 -20t20.5 -49t-20.5 -48.5t-48.5 -19.5t-48 19.5t-20 48.5zM79 353q0 30 20 49.5t48 19.5t48.5 -20t20.5 -49t-20.5 -48.5t-48.5 -19.5t-48 19.5t-20 48.5z" />
    <glyph glyph-name="semicolon" unicode=";" horiz-adv-x="253" 
d="M123 26h-6q-8 -26 -39 -26q-24 0 -37.5 17t-13.5 41q0 29 19.5 46.5t47.5 17.5q37 0 58 -23.5t21 -63.5q0 -69 -54.5 -118t-129.5 -61l-9 29q136 42 143 141zM82 353q0 30 20 49.5t48 19.5t48.5 -20t20.5 -49t-20.5 -48.5t-48.5 -19.5t-48 19.5t-20 48.5z" />
    <glyph glyph-name="less" unicode="&#x3c;" horiz-adv-x="383" 
d="M338 409l-227 -166l175 -169l-34 -32l-207 202l271 200z" />
    <glyph glyph-name="equal" unicode="=" horiz-adv-x="502" 
d="M431 162h-386l7 43h386zM450 281h-386l7 43h386z" />
    <glyph glyph-name="greater" unicode="&#x3e;" horiz-adv-x="385" 
d="M275 246l-175 166l33 32l207 -200l-271 -202l-24 35z" />
    <glyph glyph-name="question" unicode="?" horiz-adv-x="398" 
d="M201 183h-34q-16 30 -16 52q0 69 87 102q36 14 55.5 37t19.5 68q0 41 -25 64t-65 23q-43 0 -67 -26.5t-24 -70.5q0 -33 12 -54l-33 -15q-33 36 -33 87q0 64 43.5 106t121.5 42q77 0 124 -41.5t47 -108.5q0 -63 -35.5 -102t-112.5 -62q-68 -19 -68 -72q0 -14 3 -29z
M104 60q0 30 20 49.5t48 19.5t48.5 -20t20.5 -49t-20.5 -48.5t-48.5 -19.5t-48 19.5t-20 48.5z" />
    <glyph glyph-name="at" unicode="@" horiz-adv-x="802" 
d="M447 132l44 229q-27 16 -58 16q-55 0 -94.5 -68.5t-39.5 -157.5q0 -83 56 -83q45 0 92 64zM586 414l-66 -347q10 -17 45 -17q52 0 99 56t47 162q0 131 -83.5 197t-206.5 66q-144 0 -237 -94t-93 -238q0 -149 85.5 -233t237.5 -84q82 0 142.5 13.5t136.5 49.5l13 -28
q-118 -79 -292 -79q-172 0 -273 93t-101 268q0 165 105.5 270.5t275.5 105.5q95 0 170 -31t123 -102.5t48 -174.5q0 -68 -19.5 -120t-51 -81t-66 -43.5t-69.5 -14.5q-106 0 -112 76h-4q-29 -76 -110 -76q-59 0 -88.5 38t-29.5 106q0 109 64.5 188t156.5 79q49 0 80 -23
l58 18h15z" />
    <glyph glyph-name="A" unicode="A" horiz-adv-x="570" 
d="M411 51l-25 143h-220l-78 -139l79 -21l-12 -34h-184l-1 31l54 24l301 533h80l100 -533l45 -24l-13 -31h-209l1 34zM282 401l-90 -161h186l-28 162q-5 31 -7.5 60.5t-2.5 43.5v14h-4q-18 -54 -54 -119z" />
    <glyph glyph-name="B" unicode="B" horiz-adv-x="532" 
d="M502 451q0 -67 -43 -102.5t-100 -37.5v-4q132 -12 132 -129q0 -93 -65.5 -135.5t-170.5 -42.5h-248l-2 32l77 23l76 478l-70 23l12 32h216q186 0 186 -137zM291 285h-77l-37 -230l31 -12h35q80 0 116 34t36 109q0 49 -24.5 74t-79.5 25zM255 545l-34 -216h75q51 0 80 32
t29 91q0 93 -108 93h-42z" />
    <glyph glyph-name="C" unicode="C" horiz-adv-x="529" 
d="M471 114l22 -31q-43 -49 -91 -71t-115 -22q-115 0 -176 65.5t-61 181.5q0 161 84.5 261t216.5 100q67 0 122 -25l66 25l-27 -166l-22 -5l-18 37q-22 46 -50.5 67.5t-73.5 21.5q-84 0 -140.5 -89.5t-56.5 -226.5q0 -89 39 -139.5t110 -50.5q92 0 171 67z" />
    <glyph glyph-name="D" unicode="D" horiz-adv-x="603" 
d="M100 588h214q128 0 198.5 -62.5t70.5 -184.5q0 -156 -95.5 -248.5t-248.5 -92.5h-232l-2 32l77 23l76 478l-70 23zM177 55l59 -15q117 2 182 86.5t65 233.5q0 182 -185 182h-44z" />
    <glyph glyph-name="E" unicode="E" 
d="M311 276h-99l-34 -213l33 -17h143l104 142l25 -6l-48 -182h-428l-2 32l77 23l76 478l-70 23l12 32h419l-25 -157l-22 -5l-56 116h-162l-35 -220h98l53 88l22 -4l-34 -216l-22 -4z" />
    <glyph glyph-name="F" unicode="F" horiz-adv-x="479" 
d="M279 35l-13 -35h-259l-2 32l77 23l76 478l-70 23l12 32h419l-25 -157l-22 -5l-56 116h-162l-35 -220h98l53 88l22 -4l-34 -216l-22 -4l-25 90h-99l-35 -221z" />
    <glyph glyph-name="G" unicode="G" horiz-adv-x="578" 
d="M510 222l-36 -226h-15l-34 48q-48 -54 -143 -54q-116 0 -174 67t-58 180q0 160 84.5 260t216.5 100q67 0 122 -25l66 25l-27 -166l-22 -5l-18 37q-24 50 -51 69.5t-73 19.5q-85 0 -141 -91t-56 -236q0 -190 142 -190q57 0 102 37l23 150l-71 23l12 32h206l3 -32z" />
    <glyph glyph-name="H" unicode="H" horiz-adv-x="677" 
d="M475 588h229l3 -32l-79 -23l-76 -478l72 -23l-13 -32h-229l-2 32l77 23l35 221h-280l-35 -221l72 -23l-13 -32h-229l-2 32l77 23l76 478l-70 23l12 32h229l3 -32l-79 -23l-34 -211h280l34 211l-70 23z" />
    <glyph glyph-name="I" unicode="I" horiz-adv-x="302" 
d="M100 588h229l3 -32l-79 -23l-76 -478l72 -23l-13 -32h-229l-2 32l77 23l76 478l-70 23z" />
    <glyph glyph-name="J" unicode="J" horiz-adv-x="296" 
d="M64 -39l91 572l-70 23l12 32h229l3 -32l-79 -23l-87 -546q-28 -176 -210 -176q-37 0 -59.5 15.5t-22.5 43.5q0 29 16 44t41 15t38 -14t13 -37q0 -20 -12 -34q78 0 97 117z" />
    <glyph glyph-name="K" unicode="K" horiz-adv-x="579" 
d="M219 322l60 8l195 205l-59 21l10 32h183l1 -33l-64 -19l-204 -210l151 -271l69 -22l-12 -33h-135l-148 282h-53l-36 -227l72 -23l-13 -32h-229l-2 32l77 23l76 478l-70 23l12 32h229l3 -32l-79 -23z" />
    <glyph glyph-name="L" unicode="L" horiz-adv-x="499" 
d="M332 556l-79 -23l-75 -470l43 -17h123l110 161l25 -6l-54 -201h-418l-2 32l77 23l76 478l-70 23l12 32h229z" />
    <glyph glyph-name="M" unicode="M" horiz-adv-x="768" 
d="M562 385l-199 -385h-48l-80 388q-6 27 -11 61.5t-8 54.5l-2 21h-4q-6 -67 -18 -141l-52 -329l72 -23l-13 -32h-192l-2 32l77 23l76 478l-70 23l12 32h187l74 -386q5 -27 6.5 -51.5t0.5 -35.5l-1 -11h4q9 35 42 101l191 383h191l3 -32l-79 -23l-76 -478l72 -23l-13 -32
h-229l-2 32l77 23l53 329l27 141h-4q-30 -77 -62 -140z" />
    <glyph glyph-name="N" unicode="N" horiz-adv-x="634" 
d="M194 389l-53 -334l72 -23l-13 -32h-193l-2 32l77 23l76 478l-70 23l12 32h164l168 -341q18 -36 28.5 -68t11.5 -46l2 -14h4q2 64 13 133l45 281l-70 23l12 32h193l3 -32l-79 -23l-84 -533h-57l-204 396q-16 30 -25.5 57t-11.5 39l-2 11h-4q-1 -40 -13 -114z" />
    <glyph glyph-name="O" unicode="O" horiz-adv-x="594" 
d="M349 553q-91 0 -144.5 -98.5t-53.5 -233.5q0 -86 31 -136t93 -50q91 0 144.5 98.5t53.5 233.5q0 86 -31 136t-93 50zM275 -10q-109 0 -167 69t-58 184q0 94 33.5 173.5t103 130.5t162.5 51q109 0 167 -69t58 -184q0 -94 -33.5 -173.5t-103 -130.5t-162.5 -51z" />
    <glyph glyph-name="P" unicode="P" horiz-adv-x="499" 
d="M262 224h-58l-27 -169l102 -20l-13 -35h-259l-2 32l77 23l76 478l-70 23l12 32h211q203 0 203 -160q0 -58 -23 -100t-62 -63.5t-80 -31t-87 -9.5zM255 545l-44 -278h38q73 0 109 26q57 41 57 149q0 55 -30 79t-95 24h-35z" />
    <glyph glyph-name="Q" unicode="Q" horiz-adv-x="594" 
d="M278 -61q-32 45 -57 56q-84 16 -127.5 82t-43.5 166q0 94 33.5 173.5t103 130.5t162.5 51q109 0 167 -69t58 -184q0 -137 -71 -238.5t-195 -114.5v-3q52 -4 83 -48l41 -56l81 -26l-11 -28h-146zM349 553q-91 0 -144.5 -98.5t-53.5 -233.5q0 -86 31 -136t93 -50
q91 0 144.5 98.5t53.5 233.5q0 86 -31 136t-93 50z" />
    <glyph glyph-name="R" unicode="R" horiz-adv-x="562" 
d="M255 545l-38 -238h47q72 0 112 30t40 114q0 48 -23.5 71t-80.5 23h-57zM477 54l65 -26l-11 -28h-132l-96 217q-11 25 -31.5 37.5t-60.5 12.5l-34 -212l72 -23l-13 -32h-229l-2 32l77 23l76 478l-70 23l12 32h227q92 0 140 -32.5t48 -106.5q0 -77 -55 -123.5t-134 -46.5
v-4q30 -5 51.5 -24t38.5 -59z" />
    <glyph glyph-name="S" unicode="S" horiz-adv-x="469" 
d="M219 32q50 0 83.5 28t33.5 78q0 44 -18 69.5t-65 46.5l-49 22q-106 48 -106 151q0 86 54 128.5t134 42.5q61 0 125 -17l48 17l-25 -160l-26 -6l-19 50q-29 76 -103 76q-49 0 -79 -27.5t-30 -77.5q0 -63 73 -96l60 -27q111 -50 111 -159q0 -93 -58 -137t-144 -44
q-17 0 -33 2t-26.5 3.5t-24 6t-18.5 6.5t-17.5 7.5t-14.5 6.5l-50 -32l11 186l28 6l28 -60q22 -46 47.5 -68t69.5 -22z" />
    <glyph glyph-name="T" unicode="T" horiz-adv-x="554" 
d="M104 35l108 20l77 487h-105l-92 -116l-22 5l25 157h499l-25 -157l-22 -5l-54 116h-109l-77 -487l102 -20l-13 -35h-289z" />
    <glyph glyph-name="U" unicode="U" horiz-adv-x="615" 
d="M586 533l-51 -323q-17 -108 -79 -164t-157 -56q-213 0 -213 170q0 26 5 58l49 315l-70 23l12 32h226l3 -32l-79 -23l-50 -313q-5 -31 -5 -56q0 -59 33.5 -90t94.5 -31q76 0 117.5 43t55.5 134l50 313l-70 23l12 32h192l3 -32z" />
    <glyph glyph-name="V" unicode="V" horiz-adv-x="565" 
d="M318 187l194 346l-79 21l12 34h184l1 -31l-54 -24l-301 -533h-80l-100 533l-45 24l13 31h209l-1 -34l-82 -17l61 -351q5 -31 7.5 -60.5t2.5 -43.5v-14h4q18 54 54 119z" />
    <glyph glyph-name="W" unicode="W" horiz-adv-x="801" 
d="M477 0l-34 381q-2 34 -1 61.5t4 44.5l2 17h-4q-12 -62 -42 -125l-177 -379h-89l-29 532l-47 25l13 31h209l-1 -35l-82 -13l16 -342q1 -32 -1 -64.5t-5 -49.5l-3 -16h4q15 65 46 131l184 389h76l33 -378q3 -41 3 -72.5t-2 -50.5l-2 -19h4q20 76 50 143l143 322l-79 21
l12 34h182l1 -31l-54 -24l-241 -533h-89z" />
    <glyph glyph-name="X" unicode="X" horiz-adv-x="581" 
d="M329 353l159 184l-64 17l12 34h179l1 -31l-63 -24l-201 -227l136 -251l60 -23l-13 -32h-231l-1 32l84 20l-98 194l-161 -190l75 -28l-11 -28h-198l-4 28l69 27l205 236l-133 242l-44 24l12 31h209l-1 -34l-71 -15z" />
    <glyph glyph-name="Y" unicode="Y" horiz-adv-x="505" 
d="M190 537l67 -194q9 -26 13.5 -49t5.5 -33v-10h4q9 30 50 92l124 190l-80 21l12 34h183l1 -31l-54 -24l-210 -315l-26 -163l102 -20l-13 -35h-289l-3 35l108 20l26 163l-116 315l-45 24l13 31h208l-1 -34z" />
    <glyph glyph-name="Z" unicode="Z" 
d="M-5 12l360 459q18 23 34.5 41t24.5 25l7 7v4q-20 -3 -83 -3h-105l-109 -121l-25 4l44 160h404l2 -14l-361 -454q-19 -24 -36 -42t-24 -24l-7 -7v-4q23 3 86 3h135l118 126l23 -7l-56 -165h-428z" />
    <glyph glyph-name="bracketleft" unicode="[" horiz-adv-x="322" 
d="M50 -141l132 842h195l-5 -33l-128 -10l-120 -755l125 -10l-5 -34h-194z" />
    <glyph glyph-name="backslash" unicode="\" horiz-adv-x="306" 
d="M149 701l97 -842h-49l-97 842h49z" />
    <glyph glyph-name="bracketright" unicode="]" horiz-adv-x="322" 
d="M302 701l-132 -842h-195l5 33l128 10l120 755l-125 10l5 34h194z" />
    <glyph glyph-name="asciicircum" unicode="^" horiz-adv-x="455" 
d="M40 281l226 307h41l118 -307l-67 -4l-84 236l-167 -236z" />
    <glyph glyph-name="underscore" unicode="_" horiz-adv-x="372" 
d="M40 -81v41h292v-41h-292z" />
    <glyph glyph-name="grave" unicode="`" horiz-adv-x="302" 
d="M207 490l-113 100q-14 10 -13.5 30.5t21.5 33.5q20 12 38.5 6.5t26.5 -25.5l55 -133z" />
    <glyph glyph-name="a" unicode="a" horiz-adv-x="504" 
d="M304 135l42 245q-28 21 -67 21q-64 0 -106 -74t-42 -173q0 -103 62 -103q60 0 111 84zM298 77h-4q-37 -87 -127 -87q-63 0 -95 42t-32 119q0 119 69.5 207t169.5 88q49 0 86 -25l66 25h16l-67 -389q41 -14 79 28l15 -15q-11 -32 -38.5 -56t-70.5 -24q-78 0 -67 87z" />
    <glyph glyph-name="b" unicode="b" horiz-adv-x="490" 
d="M176 328l-46 -280q29 -17 73 -17q67 0 110.5 66.5t43.5 165.5q0 56 -22.5 87t-62.5 31q-48 0 -96 -53zM181 371h4q47 75 127 75q63 0 100.5 -43.5t37.5 -122.5q0 -126 -71 -208t-186 -82q-44 0 -87 13.5t-66 32.5l89 560l-50 46l2 11l135 28h16z" />
    <glyph glyph-name="c" unicode="c" horiz-adv-x="412" 
d="M307 402q-20 4 -31 4q-65 0 -105 -65t-40 -153q0 -138 99 -138q37 0 61.5 13.5t64.5 52.5l20 -17q-30 -56 -70 -82.5t-103 -26.5q-74 0 -118.5 46.5t-44.5 134.5q0 105 64.5 190t166.5 85q59 0 90 -23.5t31 -65.5q0 -28 -17.5 -44t-41.5 -16q-23 0 -39 14.5t-16 36.5
q0 40 29 54z" />
    <glyph glyph-name="d" unicode="d" horiz-adv-x="512" 
d="M317 138l38 246q-34 17 -70 17q-68 0 -111 -71t-43 -176q0 -103 62 -103q63 0 124 87zM389 596l-50 46l2 11l135 28h16l-100 -624q41 -14 79 28l15 -15q-11 -32 -38.5 -56t-70.5 -24q-85 0 -69 91h-4q-37 -91 -137 -91q-63 0 -95 42t-32 119q0 120 69.5 207.5t174.5 87.5
q45 0 79 -19z" />
    <glyph glyph-name="e" unicode="e" horiz-adv-x="424" 
d="M399 335q0 -75 -68.5 -107.5t-199.5 -32.5q0 -145 98 -145q37 0 62.5 13.5t64.5 52.5l20 -17q-25 -57 -66.5 -83t-106.5 -26q-74 0 -118.5 47.5t-44.5 137.5q0 65 26 126t80.5 103t124.5 42q61 0 94.5 -30t33.5 -81zM265 402q-46 0 -83 -48.5t-47 -121.5q95 2 139 27.5
t44 82.5q0 60 -53 60z" />
    <glyph glyph-name="f" unicode="f" horiz-adv-x="276" 
d="M33 -84l80 473h-73l7 35l77 16l12 57q19 93 73.5 141t124.5 48q48 0 80 -19t32 -59q0 -25 -15.5 -41.5t-38.5 -16.5t-38.5 14.5t-15.5 38.5q0 29 21 45q-12 3 -24 3q-87 0 -117 -170l-8 -45h120l-15 -47h-114l-68 -408q-34 -201 -195 -201q-33 0 -53 17t-20 43
q0 27 15 41.5t39 14.5q22 0 34.5 -14t12.5 -37q0 -24 -14 -35q62 0 81 106z" />
    <glyph glyph-name="g" unicode="g" horiz-adv-x="462" 
d="M134 69h119q149 0 149 -123q0 -86 -70 -126t-180 -40q-83 0 -132.5 28t-49.5 87q0 87 115 105v4q-28 5 -44.5 25.5t-16.5 51.5q0 38 27.5 61.5t74.5 29.5q-63 23 -63 106q0 72 53.5 120t137.5 48q48 0 151 -35q-6 7 -6 21q0 21 13 34t34 13t33.5 -14t12.5 -35
q0 -23 -16 -38t-43 -15q-42 0 -79 20v-9q43 -29 43 -88q0 -72 -56.5 -110.5t-125.5 -38.5q-33 0 -55 7q-63 -13 -63 -57q0 -32 37 -32zM124 -12q-36 -15 -53 -36.5t-17 -57.5q0 -33 28 -54t75 -21q71 0 118 24.5t47 78.5q0 66 -78 66h-120zM305 337q0 69 -61 69
q-39 0 -64.5 -38.5t-25.5 -110.5q0 -69 61 -69q39 0 64.5 38.5t25.5 110.5z" />
    <glyph glyph-name="h" unicode="h" horiz-adv-x="497" 
d="M283 371q-40 0 -104 -48l-50 -323h-89l94 596l-50 46l2 11l135 28h16l-52 -324h4q57 89 138 89q41 0 69 -24.5t28 -72.5q0 -14 -4 -40l-43 -252q42 -14 80 28l15 -15q-11 -32 -38.5 -56t-70.5 -24q-72 0 -72 66q0 14 4 38l34 198q7 42 -4 60.5t-42 18.5z" />
    <glyph glyph-name="i" unicode="i" horiz-adv-x="271" 
d="M195 345l-49 -288q42 -14 80 28l15 -15q-11 -32 -38.5 -56t-70.5 -24q-72 0 -72 66q0 14 4 38l49 287q-40 13 -78 -28l-15 15q11 32 38.5 55t70.5 23q70 0 70 -66q0 -11 -4 -35zM114 575q0 26 18 44t44 18t44 -18t18 -44t-18 -44t-44 -18t-44 18t-18 44z" />
    <glyph glyph-name="j" unicode="j" horiz-adv-x="253" 
d="M43 -84l80 465q-40 13 -78 -28l-15 15q11 32 38.5 55t70.5 23q70 0 70 -66q0 -11 -4 -35l-62 -364q-36 -201 -188 -201q-34 0 -54.5 17t-20.5 43q0 27 15 41.5t39 14.5q22 0 34.5 -14t12.5 -36q0 -19 -13 -36q25 0 45.5 26.5t29.5 79.5zM124 575q0 26 18 44t44 18t44 -18
t18 -44t-18 -44t-44 -18t-44 18t-18 44z" />
    <glyph glyph-name="k" unicode="k" horiz-adv-x="451" 
d="M260 50l-59 155l-40 3l-32 -208h-89l94 596l-50 46l2 11l135 28h16l-70 -439l37 8l135 135l-54 22l7 29h167l7 -29l-67 -27l-133 -130l86 -198q15 -5 35 0.5t34 20.5l15 -15q-23 -68 -95 -68q-35 0 -52 14.5t-29 45.5z" />
    <glyph glyph-name="l" unicode="l" horiz-adv-x="250" 
d="M49 94l78 502l-50 46l2 11l135 28h16l-99 -624q42 -14 80 28l15 -15q-11 -32 -38.5 -56t-70.5 -24q-72 0 -72 66q0 14 4 38z" />
    <glyph glyph-name="m" unicode="m" horiz-adv-x="743" 
d="M529 371q-38 0 -94 -48l-56 -323h-90l52 290q15 81 -46 81q-38 0 -94 -48l-55 -323h-89l66 381q-41 14 -79 -28l-14 15q11 32 38 55t70 23q81 0 65 -91h4q52 91 131 91q40 0 67 -22t30 -68h4q51 90 134 90q41 0 69 -24.5t28 -72.5q0 -14 -4 -40l-43 -252q42 -14 80 28
l15 -15q-11 -32 -38.5 -56t-70.5 -24q-72 0 -72 66q0 14 4 38l34 198q7 42 -4 60.5t-42 18.5z" />
    <glyph glyph-name="n" unicode="n" 
d="M317 94l34 198q7 42 -4 60.5t-42 18.5q-40 0 -104 -48l-55 -323h-89l66 381q-41 14 -79 -28l-14 15q11 32 38 55t70 23q81 0 65 -91h4q58 91 142 91q41 0 69 -24.5t28 -72.5q0 -14 -4 -40l-43 -252q42 -14 80 28l15 -15q-11 -32 -38.5 -56t-70.5 -24q-72 0 -72 66
q0 14 4 38z" />
    <glyph glyph-name="o" unicode="o" horiz-adv-x="471" 
d="M211 32q55 0 88 62.5t38 142.5q1 11 1 32q0 135 -78 135q-55 0 -88 -62.5t-38 -142.5q-1 -11 -1 -32q0 -135 78 -135zM210 -10q-82 0 -126 52t-44 137q0 112 57.5 189.5t163.5 77.5q82 0 126 -52t44 -137q0 -112 -57.5 -189.5t-163.5 -77.5z" />
    <glyph glyph-name="p" unicode="p" horiz-adv-x="516" 
d="M202 328l-47 -279q31 -18 74 -18q67 0 110.5 66.5t43.5 165.5q0 56 -22.5 87t-62.5 31q-48 0 -96 -53zM206 368h4q46 78 128 78q63 0 100.5 -43.5t37.5 -122.5q0 -126 -71 -208t-186 -82q-44 0 -72 14l-30 -166l70 -19l-13 -29h-194v28l47 17l97 546q-41 14 -79 -28
l-14 15q11 32 38 55t70 23q77 0 67 -78z" />
    <glyph glyph-name="q" unicode="q" horiz-adv-x="489" 
d="M316 135l42 245q-41 21 -73 21q-68 0 -111 -71.5t-43 -175.5q0 -103 62 -103t123 84zM459 446l-107 -608l70 -19l-13 -29h-194v28l47 17l45 246h-4q-36 -91 -136 -91q-63 0 -95 42t-32 119q0 118 69.5 206.5t174.5 88.5q44 0 93 -25l66 25h16z" />
    <glyph glyph-name="r" unicode="r" horiz-adv-x="390" 
d="M205 355l-6 -37h4q27 70 59.5 99t74.5 29q31 0 49.5 -17t18.5 -47t-17.5 -47.5t-46.5 -17.5q-55 0 -55 61q-39 -24 -97 -128l-43 -250h-89l66 381q-41 14 -79 -28l-14 15q11 32 38 55t70 23q80 0 67 -91z" />
    <glyph glyph-name="s" unicode="s" horiz-adv-x="373" 
d="M90 56q19 -28 68 -28q87 0 87 63q0 29 -17 48t-60 47q-35 23 -52.5 36.5t-33.5 40t-16 57.5q0 61 43 93.5t114 32.5q57 0 93.5 -26.5t36.5 -64.5q0 -26 -14.5 -40t-36.5 -14q-24 0 -38 13t-14 34q0 29 26 38q-18 19 -53 19q-34 0 -56.5 -16t-22.5 -47q0 -22 14.5 -38
t54.5 -44q46 -32 64 -46.5t33.5 -39.5t15.5 -56q0 -128 -168 -128q-61 0 -99.5 28.5t-38.5 73.5q0 28 15.5 43.5t38.5 15.5q25 0 38.5 -14t13.5 -36q0 -19 -10.5 -31t-25.5 -14z" />
    <glyph glyph-name="t" unicode="t" horiz-adv-x="318" 
d="M55 389l5 26l141 138h27l-21 -117h131l-15 -47h-123l-44 -247q-5 -25 -5 -44q0 -44 55 -44q38 0 76 23l9 -19q-21 -31 -58.5 -49.5t-76.5 -18.5q-42 0 -69 22.5t-27 66.5q0 19 5 47l53 263h-63z" />
    <glyph glyph-name="u" unicode="u" horiz-adv-x="510" 
d="M452 436l-66 -379q41 -14 79 28l15 -15q-11 -32 -38.5 -56t-70.5 -24q-80 0 -64 91h-4q-58 -91 -143 -91q-49 0 -77 33t-16 104l42 254q-41 14 -79 -28l-15 15q11 32 38.5 55t70.5 23q86 0 70 -91l-39 -228q-13 -72 37 -72q52 0 116 58l53 315z" />
    <glyph glyph-name="v" unicode="v" horiz-adv-x="431" 
d="M354 337q-11 -7 -26 -7q-25 0 -40 16.5t-15 39.5q0 26 18.5 43t43.5 17q32 0 51.5 -20.5t19.5 -56.5q0 -83 -73.5 -186.5t-165.5 -182.5h-57l-36 381q-41 14 -79 -28l-15 15q11 32 38.5 55t70.5 23q38 0 54.5 -20t19.5 -61l22 -291q143 148 169 263z" />
    <glyph glyph-name="w" unicode="w" horiz-adv-x="643" 
d="M321 432l63 6l35 -362q115 118 147 261q-8 -7 -26 -7q-25 0 -40 16.5t-15 39.5q0 26 18.5 43t43.5 17q33 0 52 -20t19 -57q0 -86 -66.5 -193.5t-149.5 -175.5h-57l-20 184q-3 23 -4 48t-1 38l1 13h-4q-17 -69 -63.5 -158.5t-81.5 -124.5h-65l-33 381q-41 14 -79 -28
l-15 15q11 32 38.5 55t70.5 23q40 0 54.5 -19t17.5 -62l22 -284q40 75 66 136t36 93t36 122z" />
    <glyph glyph-name="x" unicode="x" horiz-adv-x="467" 
d="M265 287l56 97q18 31 37 46.5t47 15.5q23 0 40 -15t17 -43q0 -26 -15 -41.5t-39 -15.5q-38 0 -49 35l-80 -128l70 -186q21 -7 44.5 3t39.5 28l15 -15q-11 -32 -38.5 -55t-70.5 -23q-40 0 -58.5 17.5t-31.5 57.5l-30 94h-5l-74 -111q-20 -31 -37 -44.5t-43 -13.5
q-25 0 -42.5 15t-17.5 43q0 25 14.5 40t38.5 15q18 0 31 -10.5t14 -28.5l102 145l-63 172q-41 14 -79 -28l-15 15q10 30 40.5 54t69.5 24q35 0 51.5 -16t26.5 -49l30 -94h4z" />
    <glyph glyph-name="y" unicode="y" horiz-adv-x="451" 
d="M14 -172q56 12 134 102l-62 451q-41 14 -79 -28l-15 15q10 31 40 54.5t74 23.5q40 0 55 -21t20 -64l38 -359q59 78 103 172t54 164q-8 -9 -25 -9q-28 0 -43 16.5t-15 39.5q0 28 17.5 44.5t45.5 16.5q31 0 50.5 -20t19.5 -57q0 -72 -44.5 -174.5t-109.5 -192.5t-144 -154
t-141 -64q-36 0 -56.5 17.5t-20.5 46.5q0 27 16 44t41 17q26 0 39.5 -16t13.5 -41q0 -15 -6 -24z" />
    <glyph glyph-name="z" unicode="z" horiz-adv-x="437" 
d="M49 -10l-39 9q10 63 52 116.5t89.5 84.5t101 69.5t76.5 70.5v5q-15 -3 -31 -3q-22 0 -63 6t-59 6q-68 0 -88 -58l-15 7q-2 71 30 107t84 36q42 0 91.5 -25t80.5 -28l30 53l38 -11q-9 -53 -38 -97t-67.5 -75.5t-77.5 -57.5t-79 -56.5t-61 -59.5v-4q15 8 46 8q23 0 61 -8.5
t59 -8.5q67 0 89 63l18 -7q3 -73 -29.5 -107.5t-90.5 -34.5q-48 0 -98 26t-83 30z" />
    <glyph glyph-name="braceleft" unicode="{" horiz-adv-x="334" 
d="M121 280l-1 -4q16 -5 26.5 -9.5t23 -14.5t18.5 -27t6 -41q0 -16 -3 -36l-23 -143q-2 -18 -2 -25q0 -42 24.5 -62.5t70.5 -28.5l-5 -32q-73 0 -117 30.5t-44 88.5q0 6 2 24l23 144q3 16 3 31q0 27 -9 45t-27 27t-31 12.5t-36 7.5l3 22q22 3 34.5 5.5t32.5 11t32.5 20.5
t24 34t16.5 52l22 137q24 150 204 150l-5 -32q-55 -9 -87.5 -36t-42.5 -88l-22 -135q-6 -35 -17.5 -59.5t-29 -37.5t-30.5 -19t-34 -12z" />
    <glyph glyph-name="bar" unicode="|" horiz-adv-x="156" 
d="M0 -141l133 842h48l-133 -842h-48z" />
    <glyph glyph-name="braceright" unicode="}" horiz-adv-x="334" 
d="M243 276l1 4q-16 5 -26.5 9.5t-23 14.5t-18.5 27t-6 41q0 16 3 36l23 143q2 18 2 25q0 42 -24.5 62.5t-70.5 28.5l5 32q73 0 117 -30.5t44 -88.5q0 -6 -2 -24l-23 -144q-3 -16 -3 -31q0 -27 9 -45t27 -27t31 -12.5t36 -7.5l-3 -22q-22 -3 -34.5 -5.5t-32.5 -11
t-32.5 -20.5t-24 -34t-16.5 -52l-22 -137q-24 -150 -204 -150l5 32q55 9 87.5 36t42.5 88l22 135q6 35 17.5 59.5t29 37.5t30.5 19t34 12z" />
    <glyph glyph-name="asciitilde" unicode="~" horiz-adv-x="454" 
d="M171 212l-32 23q-26 21 -56.5 8.5t-39.5 -53.5l-22 2q-9 40 13.5 76t60 44.5t81.5 -18.5l40 -29q13 -9 32 -10t37 14t22 46l22 -4q5 -27 -1.5 -51t-23 -40t-37.5 -24.5t-46.5 -4.5t-49.5 21z" />
    <glyph glyph-name="nbspace" unicode="&#xa0;" horiz-adv-x="170" 
 />
    <glyph glyph-name="exclamdown" unicode="&#xa1;" horiz-adv-x="250" 
d="M156 265l-14 -350l-9 -57h-113l9 58l88 349h39zM230 386q0 -30 -20 -49.5t-48 -19.5t-48.5 20t-20.5 49t20.5 48.5t48.5 19.5t48 -19.5t20 -48.5z" />
    <glyph glyph-name="cent" unicode="&#xa2;" horiz-adv-x="497" 
d="M378 379q-21 27 -77 30l-57 -367h1q50 0 86.5 17.5t72.5 55.5l25 -16q-68 -109 -190 -109h-3l-16 -104h-41l16 107q-71 11 -110.5 61t-39.5 134q0 101 61 173.5t160 82.5l17 108h41l-17 -106q60 -3 100 -32t40 -70q0 -30 -15.5 -46t-39.5 -16t-39.5 13.5t-15.5 36.5
q0 19 11.5 32.5t29.5 14.5zM132 188q0 -110 72 -139l56 355q-58 -14 -93 -70.5t-35 -145.5z" />
    <glyph glyph-name="sterling" unicode="&#xa3;" horiz-adv-x="621" 
d="M108 285l10 39h102l26 92q25 90 74 136t134 46q62 0 99.5 -25t37.5 -71q0 -29 -15 -44.5t-39 -15.5q-22 0 -37 13t-15 35q0 21 14 34t32 13q-15 27 -67 27q-46 0 -73.5 -32t-46.5 -99l-31 -109h137l-10 -39h-138l-30 -107q-8 -28 -18 -57q10 -4 33.5 -14t35.5 -15
t30.5 -11.5t33.5 -9t30 -2.5q47 0 72 19t29 70l23 3q8 -24 8 -45q0 -126 -125 -126q-34 0 -73 14.5t-58 26t-63 39.5q-47 -80 -124 -80q-46 0 -68.5 22t-22.5 58q0 39 26 63t71 24q30 0 60 -8l38 136h-102zM100 31q21 0 35 17t25 57l1 2q-29 12 -51 12q-50 0 -50 -48
q0 -18 11 -29t29 -11z" />
    <glyph glyph-name="currency" unicode="&#xa4;" horiz-adv-x="526" 
d="M496 496l-70 -69q39 -54 39 -120q0 -67 -39 -121l69 -68l-42 -43l-68 68q-55 -40 -125 -40q-67 0 -120 38l-68 -68l-42 42l69 68q-42 54 -42 124q0 69 42 123l-69 69l42 42l68 -70q54 40 122 40q67 0 123 -41l68 68zM114 305q0 -61 42.5 -103.5t103.5 -42.5
q62 0 105 42.5t43 103.5t-43 104t-105 43q-61 0 -103.5 -43t-42.5 -104z" />
    <glyph glyph-name="yen" unicode="&#xa5;" horiz-adv-x="578" 
d="M203 537l67 -194q9 -26 13.5 -49t4.5 -33l1 -10h4q9 30 50 92l124 190l-80 21l12 34h183l1 -31l-54 -24l-151 -226h122l-10 -39h-138l-33 -50l-5 -31h163l-10 -39h-159l-15 -93l102 -20l-13 -35h-289l-3 35l108 20l15 93h-158l10 39h154l5 31l-19 50h-127l10 39h103
l-83 226l-45 24l13 31h208l-1 -34z" />
    <glyph glyph-name="brokenbar" unicode="&#xa6;" horiz-adv-x="156" 
d="M73 317l60 384h48l-60 -384h-48zM0 -141l61 384h48l-61 -384h-48z" />
    <glyph glyph-name="section" unicode="&#xa7;" horiz-adv-x="387" 
d="M357 259q0 -62 -40 -98t-102 -38q42 -30 59.5 -54.5t17.5 -61.5q0 -64 -47.5 -96t-122.5 -32q-65 0 -101 28t-36 63q0 28 15.5 43.5t38.5 15.5q25 0 38.5 -14t13.5 -36q0 -36 -31 -48q22 -20 64 -20q92 0 92 69q0 26 -18 45t-64 52q-3 2 -10 7q-36 25 -52.5 38.5
t-31.5 39t-15 55.5q0 59 40 94.5t106 40.5q-42 29 -61.5 53.5t-19.5 61.5q0 63 44 96.5t113 33.5q58 0 94 -23.5t36 -60.5q0 -26 -15.5 -40t-37.5 -14q-24 0 -38 13t-14 34q0 24 19 41q-17 12 -47 12q-35 0 -56.5 -16t-21.5 -47q0 -22 16 -40t55 -47q32 -24 43 -32
t31.5 -25.5t26.5 -28.5t12.5 -28t6.5 -36zM279 223q0 32 -15.5 52.5t-64.5 55.5q-49 -12 -72.5 -30.5t-23.5 -56.5q0 -26 16 -45t60 -50l2 -2q41 3 69.5 23t28.5 53z" />
    <glyph glyph-name="dieresis" unicode="&#xa8;" horiz-adv-x="463" 
d="M80 563q0 25 16 41.5t39 16.5q25 0 42 -16.5t17 -41.5q0 -23 -17 -40t-42 -17q-22 0 -38.5 17t-16.5 40zM268 562q0 24 17 41t40 17q24 0 41 -16.5t17 -41.5q0 -23 -17 -40t-41 -17q-23 0 -40 17t-17 40z" />
    <glyph glyph-name="copyright" unicode="&#xa9;" horiz-adv-x="683" 
d="M50 294q0 132 89 219.5t217 87.5t217.5 -87.5t89.5 -219.5t-89.5 -219t-217.5 -87t-217 87t-89 219zM81 294q0 -120 80 -198.5t196 -78.5t196 78.5t80 198.5t-80 199t-196 79t-196 -79t-80 -199zM480 200l15 -18q-17 -25 -50.5 -42t-76.5 -17q-83 0 -130 46t-47 126
q0 76 48.5 122.5t128.5 46.5q30 0 76 -11l39 11v-109l-15 -2l-19 30q-31 46 -81 46q-94 0 -94 -134q0 -131 103 -131q54 0 103 36z" />
    <glyph glyph-name="ordfeminine" unicode="&#xaa;" horiz-adv-x="390" 
d="M225 368l31 178q-22 15 -47 15q-47 0 -76 -51t-29 -125q0 -77 44 -77q35 0 77 60zM218 327h-3q-33 -67 -96 -67q-44 0 -66.5 30.5t-22.5 85.5q0 90 51.5 155.5t125.5 65.5q30 0 63 -18l58 18h11l-49 -281q34 -11 59 18l11 -11q-8 -23 -32.5 -41.5t-57.5 -18.5
q-62 0 -52 64z" />
    <glyph glyph-name="guillemotleft" unicode="&#xab;" horiz-adv-x="424" 
d="M151 46l-131 173l186 174l43 -7l-144 -167l92 -166zM311 46l-131 173l186 174l43 -7l-144 -167l92 -166z" />
    <glyph glyph-name="logicalnot" unicode="&#xac;" horiz-adv-x="540" 
d="M438 305h-403l7 45h453l-33 -209h-50z" />
    <glyph glyph-name="uni00AD" unicode="&#xad;" horiz-adv-x="329" 
d="M40 209l10 51h239l-10 -51h-239z" />
    <glyph glyph-name="registered" unicode="&#xae;" horiz-adv-x="683" 
d="M50 294q0 132 89 219.5t217 87.5t217.5 -87.5t89.5 -219.5t-89.5 -219t-217.5 -87t-217 87t-89 219zM81 294q0 -120 80 -198.5t196 -78.5t196 78.5t80 198.5t-80 199t-196 79t-196 -79t-80 -199zM307 435v-128h30q41 2 60 15t19 48q0 40 -18.5 52.5t-65.5 12.5h-25z
M482 170l57 -16l-5 -19h-107l-62 112q-9 15 -12.5 19.5t-15 10t-30.5 6.5v-112l53 -14l-6 -22h-156l-4 22l48 14v256l-48 15l4 21h147q71 0 107.5 -20t36.5 -72q0 -81 -103 -85q36 -8 52 -39z" />
    <glyph glyph-name="macron" unicode="&#xaf;" horiz-adv-x="444" 
d="M349 513h-269l5 48h279z" />
    <glyph glyph-name="degree" unicode="&#xb0;" horiz-adv-x="277" 
d="M50 476q0 51 34.5 86t89.5 35q46 0 74.5 -29t28.5 -72q0 -51 -35 -86t-88 -35q-49 0 -76.5 28.5t-27.5 72.5zM168 559q-32 0 -52.5 -23t-20.5 -55q0 -31 17.5 -49t47.5 -18t50.5 22.5t20.5 54.5q0 31 -17.5 49.5t-45.5 18.5z" />
    <glyph glyph-name="plusminus" unicode="&#xb1;" horiz-adv-x="518" 
d="M87 325h170l21 130h43l-21 -130h173l-7 -43h-173l-23 -144h-43l23 144h-170zM431 57h-386l6 43h386z" />
    <glyph glyph-name="twosuperior" unicode="&#xb2;" horiz-adv-x="350" 
d="M106 295h178l-8 -61h-274l-2 38q13 7 55 29.5t62 35t48 35t40.5 48t12.5 54.5q0 67 -65 67q-59 0 -59 -62q0 -7 2 -19l-35 -10q-8 19 -8 38q0 53 33.5 81.5t89.5 28.5q59 0 91.5 -29t32.5 -82q0 -110 -194 -189v-3z" />
    <glyph glyph-name="threesuperior" unicode="&#xb3;" horiz-adv-x="330" 
d="M21 345l32 2q-3 -38 14.5 -60t52.5 -22q66 0 66 62q0 36 -17.5 52.5t-60.5 19.5l-4 25q59 8 81.5 22t22.5 48q0 54 -54 54q-28 0 -42.5 -15.5t-10.5 -43.5l-30 -7q-6 12 -6 28q0 39 30 63.5t83 24.5q56 0 86.5 -25t30.5 -66q0 -80 -111 -90v-4q42 -3 66.5 -25t24.5 -56
q0 -57 -43 -81.5t-107 -24.5q-51 0 -80.5 25t-29.5 63q0 19 6 31z" />
    <glyph glyph-name="acute" unicode="&#xb4;" horiz-adv-x="302" 
d="M208 590l-113 -100l-15 12l55 133q8 20 26.5 25.5t38.5 -6.5q21 -13 21.5 -33.5t-13.5 -30.5z" />
    <glyph glyph-name="mu" unicode="&#xb5;" horiz-adv-x="510" 
d="M116 15h-4l-3 -183l-11 -24l-79 18l90 555q-41 14 -79 -28l-15 15q11 32 38.5 55t70.5 23q86 0 70 -91l-39 -228q-13 -72 37 -72q52 0 116 58l53 315l91 8l-66 -379q41 -14 79 28l15 -15q-11 -32 -38.5 -56t-70.5 -24q-80 0 -64 91h-4q-55 -91 -139 -91q-35 0 -48 25z
" />
    <glyph glyph-name="paragraph" unicode="&#xb6;" horiz-adv-x="449" 
d="M256 -1l36 225l-53 -1q-89 -1 -137.5 41t-48.5 119q0 103 69.5 154t174.5 51h172l-7 -43l-66 -10l-82 -519q-14 -88 -55.5 -126.5t-121.5 -38.5q-42 0 -64.5 16.5t-22.5 46.5q0 29 16 44t41 15t38 -14t13 -37q0 -20 -12 -34q92 0 110 111z" />
    <glyph glyph-name="periodcentered" unicode="&#xb7;" horiz-adv-x="217" 
d="M40 250q0 30 20 49.5t48 19.5t48.5 -20t20.5 -49t-20.5 -48.5t-48.5 -19.5t-48 19.5t-20 48.5z" />
    <glyph glyph-name="periodcentered" unicode="&#x22c5;" horiz-adv-x="217" 
d="M40 250q0 30 20 49.5t48 19.5t48.5 -20t20.5 -49t-20.5 -48.5t-48.5 -19.5t-48 19.5t-20 48.5z" />
    <glyph glyph-name="cedilla" unicode="&#xb8;" horiz-adv-x="358" 
d="M80 -188l17 22q27 -23 63 -23q48 0 48 43q0 26 -15 38t-46 21l37 102h31l-21 -57q84 -16 84 -92q0 -41 -31 -63.5t-81 -22.5q-59 0 -86 32z" />
    <glyph glyph-name="onesuperior" unicode="&#xb9;" horiz-adv-x="310" 
d="M232 593l-49 -311l92 -19l-13 -29h-251l-1 29l93 19l37 229h-93l-3 23l171 63z" />
    <glyph glyph-name="ordmasculine" unicode="&#xba;" horiz-adv-x="370" 
d="M207 597q63 0 98 -37t35 -104q0 -78 -46 -136t-129 -58q-66 0 -100.5 37t-34.5 101q0 78 47 137.5t130 59.5zM170 293q30 0 54 32q34 48 34 149q0 90 -55 90q-31 0 -52 -29q-40 -49 -40 -146q0 -96 59 -96z" />
    <glyph glyph-name="guillemotright" unicode="&#xbb;" horiz-adv-x="424" 
d="M123 393l131 -173l-186 -174l-43 7l144 167l-92 166zM283 393l131 -173l-186 -174l-43 7l144 167l-92 166z" />
    <glyph glyph-name="onequarter" unicode="&#xbc;" horiz-adv-x="797" 
d="M232 593l-49 -311l92 -19l-13 -29h-251l-1 29l93 19l37 229h-93l-3 23l171 63zM140 -39l487 667h47l-487 -667h-47zM691 121h71l-6 -41h-71l-14 -80h-76l14 80h-185l5 32l211 242h88zM615 121l18 117q3 18 7 36.5t7 27.5l3 10h-4q-14 -29 -46 -66l-68 -79
q-13 -15 -25.5 -26.5t-18.5 -15.5l-6 -4l-1 -4q8 4 51 4h83z" />
    <glyph glyph-name="onehalf" unicode="&#xbd;" horiz-adv-x="824" 
d="M232 593l-49 -311l92 -19l-13 -29h-251l-1 29l93 19l37 229h-93l-3 23l171 63zM140 -39l487 667h47l-487 -667h-47zM580 61h178l-8 -61h-274l-2 38q13 7 55 29.5t62 35t48 35t40.5 48t12.5 54.5q0 67 -65 67q-59 0 -59 -62q0 -7 2 -19l-35 -10q-8 19 -8 38
q0 53 33.5 81.5t89.5 28.5q59 0 91.5 -29t32.5 -82q0 -110 -194 -189v-3z" />
    <glyph glyph-name="threequarters" unicode="&#xbe;" horiz-adv-x="792" 
d="M21 345l32 2q-3 -38 14.5 -60t52.5 -22q66 0 66 62q0 36 -17.5 52.5t-60.5 19.5l-4 25q59 8 81.5 22t22.5 48q0 54 -54 54q-28 0 -42.5 -15.5t-10.5 -43.5l-30 -7q-6 12 -6 28q0 39 30 63.5t83 24.5q56 0 86.5 -25t30.5 -66q0 -80 -111 -90v-4q42 -3 66.5 -25t24.5 -56
q0 -57 -43 -81.5t-107 -24.5q-51 0 -80.5 25t-29.5 63q0 19 6 31zM135 -39l487 667h47l-487 -667h-47zM686 121h71l-6 -41h-71l-14 -80h-76l14 80h-185l5 32l211 242h88zM610 121l18 117q3 18 7 36.5t7 27.5l3 10h-4q-14 -29 -46 -66l-68 -79q-13 -15 -25.5 -26.5
t-18.5 -15.5l-6 -4l-1 -4q8 4 51 4h83z" />
    <glyph glyph-name="questiondown" unicode="&#xbf;" horiz-adv-x="398" 
d="M212 263h34q16 -30 16 -52q0 -69 -87 -102q-36 -14 -55.5 -37t-19.5 -68q0 -41 25 -64t65 -23q43 0 67 26.5t24 70.5q0 33 -12 54l33 15q33 -36 33 -87q0 -64 -43.5 -106t-121.5 -42q-77 0 -124 41.5t-47 108.5q0 63 35.5 102t112.5 62q68 19 68 72q0 14 -3 29zM309 386
q0 -30 -20 -49.5t-48 -19.5t-48.5 20t-20.5 49t20.5 48.5t48.5 19.5t48 -19.5t20 -48.5z" />
    <glyph glyph-name="Agrave" unicode="&#xc0;" horiz-adv-x="570" 
d="M411 51l-25 143h-220l-78 -139l79 -21l-12 -34h-184l-1 31l54 24l301 533h80l100 -533l45 -24l-13 -31h-209l1 34zM282 401l-90 -161h186l-28 162q-5 31 -7.5 60.5t-2.5 43.5v14h-4q-18 -54 -54 -119zM385 625l-129 84q-37 26 -7 56q30 31 56 -3l95 -118z" />
    <glyph glyph-name="Aacute" unicode="&#xc1;" horiz-adv-x="570" 
d="M411 51l-25 143h-220l-78 -139l79 -21l-12 -34h-184l-1 31l54 24l301 533h80l100 -533l45 -24l-13 -31h-209l1 34zM282 401l-90 -161h186l-28 162q-5 31 -7.5 60.5t-2.5 43.5v14h-4q-18 -54 -54 -119zM466 709l-129 -84l-15 19l95 118q26 34 56 3q30 -30 -7 -56z" />
    <glyph glyph-name="Acircumflex" unicode="&#xc2;" horiz-adv-x="570" 
d="M411 51l-25 143h-220l-78 -139l79 -21l-12 -34h-184l-1 31l54 24l301 533h80l100 -533l45 -24l-13 -31h-209l1 34zM282 401l-90 -161h186l-28 162q-5 31 -7.5 60.5t-2.5 43.5v14h-4q-18 -54 -54 -119zM394 755h14l112 -137h-88l-59 71l-88 -71h-51z" />
    <glyph glyph-name="Atilde" unicode="&#xc3;" horiz-adv-x="570" 
d="M411 51l-25 143h-220l-78 -139l79 -21l-12 -34h-184l-1 31l54 24l301 533h80l100 -533l45 -24l-13 -31h-209l1 34zM282 401l-90 -161h186l-28 162q-5 31 -7.5 60.5t-2.5 43.5v14h-4q-18 -54 -54 -119zM383 655l-32 23q-26 21 -56.5 8.5t-39.5 -53.5l-22 2q-9 40 13.5 76
t60 44.5t81.5 -18.5l40 -29q13 -9 32 -10t37 14t22 46l22 -4q5 -27 -1.5 -51t-23 -40t-37.5 -24.5t-46.5 -4.5t-49.5 21z" />
    <glyph glyph-name="Adieresis" unicode="&#xc4;" horiz-adv-x="570" 
d="M411 51l-25 143h-220l-78 -139l79 -21l-12 -34h-184l-1 31l54 24l301 533h80l100 -533l45 -24l-13 -31h-209l1 34zM282 401l-90 -161h186l-28 162q-5 31 -7.5 60.5t-2.5 43.5v14h-4q-18 -54 -54 -119zM418 678q0 24 17 41t40 17q24 0 41 -16.5t17 -41.5q0 -23 -17 -40
t-41 -17q-23 0 -40 17t-17 40zM230 679q0 25 16 41.5t39 16.5q25 0 42 -16.5t17 -41.5q0 -23 -17 -40t-42 -17q-22 0 -38.5 17t-16.5 40z" />
    <glyph glyph-name="Aring" unicode="&#xc5;" horiz-adv-x="570" 
d="M411 51l-25 143h-220l-78 -139l79 -21l-12 -34h-184l-1 31l54 24l301 533h80l100 -533l45 -24l-13 -31h-209l1 34zM294 698q0 41 28 69.5t72 28.5q37 0 60 -23t23 -58q0 -41 -28.5 -69.5t-70.5 -28.5q-40 0 -62 22.5t-22 58.5zM282 401l-90 -161h186l-28 162
q-5 31 -7.5 60.5t-2.5 43.5v14h-4q-18 -54 -54 -119zM389 755q-21 0 -35.5 -15.5t-14.5 -37.5q0 -21 12 -33.5t33 -12.5t34.5 15.5t13.5 37.5q0 21 -11.5 33.5t-31.5 12.5z" />
    <glyph glyph-name="AE" unicode="&#xc6;" horiz-adv-x="805" 
d="M392 205h-192l-112 -150l80 -21l-12 -34h-185l-1 31l54 24l354 478l-74 23l7 32h494l-25 -157l-22 -5l-56 116h-162l-35 -220h98l53 88l22 -4l-34 -216l-22 -4l-25 90h-99l-34 -213l33 -17h143l104 142l25 -6l-48 -182h-428l-2 32l77 23zM377 440l-142 -189h164l46 288
h-4q-26 -51 -64 -99z" />
    <glyph glyph-name="Ccedilla" unicode="&#xc7;" horiz-adv-x="529" 
d="M168 -188l17 22q27 -23 63 -23q48 0 48 43q0 26 -15 38t-46 21l28 78q-104 7 -158.5 71.5t-54.5 174.5q0 161 84.5 261t216.5 100q67 0 122 -25l66 25l-27 -166l-22 -5l-18 37q-22 46 -50.5 67.5t-73.5 21.5q-84 0 -140.5 -89.5t-56.5 -226.5q0 -89 39 -139.5t110 -50.5
q92 0 171 67l22 -31q-42 -48 -88.5 -70t-110.5 -23l-12 -32q84 -16 84 -92q0 -41 -31 -63.5t-81 -22.5q-59 0 -86 32z" />
    <glyph glyph-name="Egrave" unicode="&#xc8;" 
d="M311 276h-99l-34 -213l33 -17h143l104 142l25 -6l-48 -182h-428l-2 32l77 23l76 478l-70 23l12 32h419l-25 -157l-22 -5l-56 116h-162l-35 -220h98l53 88l22 -4l-34 -216l-22 -4zM362 625l-129 84q-37 26 -7 56q30 31 56 -3l95 -118z" />
    <glyph glyph-name="Eacute" unicode="&#xc9;" 
d="M311 276h-99l-34 -213l33 -17h143l104 142l25 -6l-48 -182h-428l-2 32l77 23l76 478l-70 23l12 32h419l-25 -157l-22 -5l-56 116h-162l-35 -220h98l53 88l22 -4l-34 -216l-22 -4zM412 709l-129 -84l-15 19l95 118q26 34 56 3q30 -30 -7 -56z" />
    <glyph glyph-name="Ecircumflex" unicode="&#xca;" 
d="M311 276h-99l-34 -213l33 -17h143l104 142l25 -6l-48 -182h-428l-2 32l77 23l76 478l-70 23l12 32h419l-25 -157l-22 -5l-56 116h-162l-35 -220h98l53 88l22 -4l-34 -216l-22 -4zM345 765h14l112 -137h-88l-59 71l-88 -71h-51z" />
    <glyph glyph-name="Edieresis" unicode="&#xcb;" 
d="M311 276h-99l-34 -213l33 -17h143l104 142l25 -6l-48 -182h-428l-2 32l77 23l76 478l-70 23l12 32h419l-25 -157l-22 -5l-56 116h-162l-35 -220h98l53 88l22 -4l-34 -216l-22 -4zM182 679q0 25 16 41.5t39 16.5q25 0 42 -16.5t17 -41.5q0 -23 -17 -40t-42 -17
q-22 0 -38.5 17t-16.5 40zM370 678q0 24 17 41t40 17q24 0 41 -16.5t17 -41.5q0 -23 -17 -40t-41 -17q-23 0 -40 17t-17 40z" />
    <glyph glyph-name="Igrave" unicode="&#xcc;" horiz-adv-x="302" 
d="M100 588h229l3 -32l-79 -23l-76 -478l72 -23l-13 -32h-229l-2 32l77 23l76 478l-70 23zM258 625l-129 84q-37 26 -7 56q30 31 56 -3l95 -118z" />
    <glyph glyph-name="Iacute" unicode="&#xcd;" horiz-adv-x="302" 
d="M100 588h229l3 -32l-79 -23l-76 -478l72 -23l-13 -32h-229l-2 32l77 23l76 478l-70 23zM308 709l-129 -84l-15 19l95 118q26 34 56 3q30 -30 -7 -56z" />
    <glyph glyph-name="Icircumflex" unicode="&#xce;" horiz-adv-x="302" 
d="M100 588h229l3 -32l-79 -23l-76 -478l72 -23l-13 -32h-229l-2 32l77 23l76 478l-70 23zM241 765h14l112 -137h-88l-59 71l-88 -71h-51z" />
    <glyph glyph-name="Idieresis" unicode="&#xcf;" horiz-adv-x="302" 
d="M100 588h229l3 -32l-79 -23l-76 -478l72 -23l-13 -32h-229l-2 32l77 23l76 478l-70 23zM78 679q0 25 16 41.5t39 16.5q25 0 42 -16.5t17 -41.5q0 -23 -17 -40t-42 -17q-22 0 -38.5 17t-16.5 40zM266 678q0 24 17 41t40 17q24 0 41 -16.5t17 -41.5q0 -23 -17 -40t-41 -17
q-23 0 -40 17t-17 40z" />
    <glyph glyph-name="Eth" unicode="&#xd0;" horiz-adv-x="617" 
d="M35 276l8 46h81l34 211l-70 23l12 32h214q128 0 198.5 -62.5t70.5 -184.5q0 -156 -95.5 -248.5t-248.5 -92.5h-232l-2 32l77 23l35 221h-82zM177 55l59 -15q117 2 182 86.5t65 233.5q0 182 -185 182h-44l-35 -220h105l-8 -46h-104z" />
    <glyph glyph-name="Ntilde" unicode="&#xd1;" horiz-adv-x="634" 
d="M194 389l-53 -334l72 -23l-13 -32h-193l-2 32l77 23l76 478l-70 23l12 32h164l168 -341q18 -36 28.5 -68t11.5 -46l2 -14h4q2 64 13 133l45 281l-70 23l12 32h193l3 -32l-79 -23l-84 -533h-57l-204 396q-16 30 -25.5 57t-11.5 39l-2 11h-4q-1 -40 -13 -114zM399 655
l-32 23q-26 21 -56.5 8.5t-39.5 -53.5l-22 2q-9 40 13.5 76t60 44.5t81.5 -18.5l40 -29q13 -9 32 -10t37 14t22 46l22 -4q5 -27 -1.5 -51t-23 -40t-37.5 -24.5t-46.5 -4.5t-49.5 21z" />
    <glyph glyph-name="Ograve" unicode="&#xd2;" horiz-adv-x="594" 
d="M349 553q-91 0 -144.5 -98.5t-53.5 -233.5q0 -86 31 -136t93 -50q91 0 144.5 98.5t53.5 233.5q0 86 -31 136t-93 50zM275 -10q-109 0 -167 69t-58 184q0 94 33.5 173.5t103 130.5t162.5 51q109 0 167 -69t58 -184q0 -94 -33.5 -173.5t-103 -130.5t-162.5 -51zM411 625
l-129 84q-37 26 -7 56q30 31 56 -3l95 -118z" />
    <glyph glyph-name="Oacute" unicode="&#xd3;" horiz-adv-x="594" 
d="M349 553q-91 0 -144.5 -98.5t-53.5 -233.5q0 -86 31 -136t93 -50q91 0 144.5 98.5t53.5 233.5q0 86 -31 136t-93 50zM275 -10q-109 0 -167 69t-58 184q0 94 33.5 173.5t103 130.5t162.5 51q109 0 167 -69t58 -184q0 -94 -33.5 -173.5t-103 -130.5t-162.5 -51zM461 709
l-129 -84l-15 19l95 118q26 34 56 3q30 -30 -7 -56z" />
    <glyph glyph-name="Ocircumflex" unicode="&#xd4;" horiz-adv-x="594" 
d="M349 553q-91 0 -144.5 -98.5t-53.5 -233.5q0 -86 31 -136t93 -50q91 0 144.5 98.5t53.5 233.5q0 86 -31 136t-93 50zM275 -10q-109 0 -167 69t-58 184q0 94 33.5 173.5t103 130.5t162.5 51q109 0 167 -69t58 -184q0 -94 -33.5 -173.5t-103 -130.5t-162.5 -51zM394 765h14
l112 -137h-88l-59 71l-88 -71h-51z" />
    <glyph glyph-name="Otilde" unicode="&#xd5;" horiz-adv-x="594" 
d="M349 553q-91 0 -144.5 -98.5t-53.5 -233.5q0 -86 31 -136t93 -50q91 0 144.5 98.5t53.5 233.5q0 86 -31 136t-93 50zM275 -10q-109 0 -167 69t-58 184q0 94 33.5 173.5t103 130.5t162.5 51q109 0 167 -69t58 -184q0 -94 -33.5 -173.5t-103 -130.5t-162.5 -51zM381 655
l-32 23q-26 21 -56.5 8.5t-39.5 -53.5l-22 2q-9 40 13.5 76t60 44.5t81.5 -18.5l40 -29q13 -9 32 -10t37 14t22 46l22 -4q5 -27 -1.5 -51t-23 -40t-37.5 -24.5t-46.5 -4.5t-49.5 21z" />
    <glyph glyph-name="Odieresis" unicode="&#xd6;" horiz-adv-x="594" 
d="M349 553q-91 0 -144.5 -98.5t-53.5 -233.5q0 -86 31 -136t93 -50q91 0 144.5 98.5t53.5 233.5q0 86 -31 136t-93 50zM275 -10q-109 0 -167 69t-58 184q0 94 33.5 173.5t103 130.5t162.5 51q109 0 167 -69t58 -184q0 -94 -33.5 -173.5t-103 -130.5t-162.5 -51zM231 679
q0 25 16 41.5t39 16.5q25 0 42 -16.5t17 -41.5q0 -23 -17 -40t-42 -17q-22 0 -38.5 17t-16.5 40zM419 678q0 24 16.5 41t40.5 17t41 -16.5t17 -41.5q0 -23 -17 -40t-41 -17q-23 0 -40 17t-17 40z" />
    <glyph glyph-name="multiply" unicode="&#xd7;" horiz-adv-x="450" 
d="M30 114l152 132l-107 128l34 30l109 -127l155 133l27 -30l-157 -134l117 -138l-35 -30l-116 137l-153 -131z" />
    <glyph glyph-name="Oslash" unicode="&#xd8;" horiz-adv-x="609" 
d="M275 -10q-93 0 -149 50l-56 -69h-55l81 102q-46 64 -46 170q0 94 33.5 173.5t103 130.5t162.5 51q80 0 136 -40l48 60h56l-72 -90q57 -66 57 -183q0 -94 -33.5 -173.5t-103 -130.5t-162.5 -51zM473 367q0 52 -12 91l-287 -358q32 -65 101 -65q91 0 144.5 98.5t53.5 233.5
zM349 553q-91 0 -144.5 -98.5t-53.5 -233.5q0 -41 7 -72l283 355q-32 49 -92 49z" />
    <glyph glyph-name="Ugrave" unicode="&#xd9;" horiz-adv-x="615" 
d="M586 533l-51 -323q-17 -108 -79 -164t-157 -56q-213 0 -213 170q0 26 5 58l49 315l-70 23l12 32h226l3 -32l-79 -23l-50 -313q-5 -31 -5 -56q0 -59 33.5 -90t94.5 -31q76 0 117.5 43t55.5 134l50 313l-70 23l12 32h192l3 -32zM423 625l-129 84q-37 26 -7 56q30 31 56 -3
l95 -118z" />
    <glyph glyph-name="Uacute" unicode="&#xda;" horiz-adv-x="615" 
d="M586 533l-51 -323q-17 -108 -79 -164t-157 -56q-213 0 -213 170q0 26 5 58l49 315l-70 23l12 32h226l3 -32l-79 -23l-50 -313q-5 -31 -5 -56q0 -59 33.5 -90t94.5 -31q76 0 117.5 43t55.5 134l50 313l-70 23l12 32h192l3 -32zM473 709l-129 -84l-15 19l95 118q26 34 56 3
q30 -30 -7 -56z" />
    <glyph glyph-name="Ucircumflex" unicode="&#xdb;" horiz-adv-x="615" 
d="M586 533l-51 -323q-17 -108 -79 -164t-157 -56q-213 0 -213 170q0 26 5 58l49 315l-70 23l12 32h226l3 -32l-79 -23l-50 -313q-5 -31 -5 -56q0 -59 33.5 -90t94.5 -31q76 0 117.5 43t55.5 134l50 313l-70 23l12 32h192l3 -32zM405 765h14l112 -137h-88l-59 71l-88 -71
h-51z" />
    <glyph glyph-name="Udieresis" unicode="&#xdc;" horiz-adv-x="615" 
d="M586 533l-51 -323q-17 -108 -79 -164t-157 -56q-213 0 -213 170q0 26 5 58l49 315l-70 23l12 32h226l3 -32l-79 -23l-50 -313q-5 -31 -5 -56q0 -59 33.5 -90t94.5 -31q76 0 117.5 43t55.5 134l50 313l-70 23l12 32h192l3 -32zM243 679q0 25 16 41.5t39 16.5
q25 0 42 -16.5t17 -41.5q0 -23 -17 -40t-42 -17q-22 0 -38.5 17t-16.5 40zM431 678q0 24 16.5 41t40.5 17t41 -16.5t17 -41.5q0 -23 -17 -40t-41 -17q-23 0 -40 17t-17 40z" />
    <glyph glyph-name="Yacute" unicode="&#xdd;" horiz-adv-x="505" 
d="M190 537l67 -194q9 -26 13.5 -49t5.5 -33v-10h4q9 30 50 92l124 190l-80 21l12 34h183l1 -31l-54 -24l-210 -315l-26 -163l102 -20l-13 -35h-289l-3 35l108 20l26 163l-116 315l-45 24l13 31h208l-1 -34zM420 709l-129 -84l-15 19l95 118q26 34 56 3q30 -30 -7 -56z" />
    <glyph glyph-name="Thorn" unicode="&#xde;" horiz-adv-x="497" 
d="M242 467h50q205 0 205 -148q0 -58 -23 -98.5t-62 -60.5t-79.5 -28.5t-87.5 -8.5h-57l-11 -68l102 -20l-13 -35h-259l-2 32l77 23l76 478l-70 23l12 32h229l3 -32l-79 -23zM236 424l-41 -258h37q79 0 116.5 29t47.5 103q9 72 -21.5 99t-103.5 27h-35z" />
    <glyph glyph-name="germandbls" unicode="&#xdf;" horiz-adv-x="510" 
d="M500 568q0 -49 -26.5 -83t-58 -47t-58 -27t-26.5 -28q0 -13 11.5 -29t49.5 -62q15 -19 24 -29q37 -44 52 -76t15 -69q0 -64 -42.5 -96t-111.5 -32q-65 0 -101 28t-36 63q0 28 15.5 43.5t38.5 15.5q25 0 38.5 -14t13.5 -36q0 -36 -31 -48q22 -20 64 -20q37 0 58 18t21 52
q0 25 -13 50t-57 78q-56 68 -67 92q-10 22 -10 45t16.5 42.5t39.5 35t46 33t39.5 45t16.5 63.5q0 35 -19 55t-56 20q-99 0 -128 -170l-85 -500q-34 -201 -195 -201q-33 0 -53 17t-20 43q0 27 15 41.5t39 14.5q22 0 34.5 -14t12.5 -37q0 -24 -14 -35q62 0 81 106l80 473h-73
l7 35l77 16l12 57q19 92 78.5 140.5t135.5 48.5q26 0 50 -5t48 -17t38 -37t14 -59z" />
    <glyph glyph-name="agrave" unicode="&#xe0;" horiz-adv-x="504" 
d="M304 135l42 245q-28 21 -67 21q-64 0 -106 -74t-42 -173q0 -103 62 -103q60 0 111 84zM298 77h-4q-37 -87 -127 -87q-63 0 -95 42t-32 119q0 119 69.5 207t169.5 88q49 0 86 -25l66 25h16l-67 -389q41 -14 79 28l15 -15q-11 -32 -38.5 -56t-70.5 -24q-78 0 -67 87z
M332 490l-113 100q-14 10 -13.5 30.5t21.5 33.5q20 12 38.5 6.5t26.5 -25.5l55 -133z" />
    <glyph glyph-name="aacute" unicode="&#xe1;" horiz-adv-x="504" 
d="M304 135l42 245q-28 21 -67 21q-64 0 -106 -74t-42 -173q0 -103 62 -103q60 0 111 84zM298 77h-4q-37 -87 -127 -87q-63 0 -95 42t-32 119q0 119 69.5 207t169.5 88q49 0 86 -25l66 25h16l-67 -389q41 -14 79 28l15 -15q-11 -32 -38.5 -56t-70.5 -24q-78 0 -67 87z
M390 590l-113 -100l-15 12l55 133q8 20 26.5 25.5t38.5 -6.5q21 -13 21.5 -33.5t-13.5 -30.5z" />
    <glyph glyph-name="acircumflex" unicode="&#xe2;" horiz-adv-x="504" 
d="M304 135l42 245q-28 21 -67 21q-64 0 -106 -74t-42 -173q0 -103 62 -103q60 0 111 84zM298 77h-4q-37 -87 -127 -87q-63 0 -95 42t-32 119q0 119 69.5 207t169.5 88q49 0 86 -25l66 25h16l-67 -389q41 -14 79 28l15 -15q-11 -32 -38.5 -56t-70.5 -24q-78 0 -67 87z
M316 659h14l106 -177h-84l-57 103l-97 -103h-48z" />
    <glyph glyph-name="atilde" unicode="&#xe3;" horiz-adv-x="504" 
d="M304 135l42 245q-28 21 -67 21q-64 0 -106 -74t-42 -173q0 -103 62 -103q60 0 111 84zM298 77h-4q-37 -87 -127 -87q-63 0 -95 42t-32 119q0 119 69.5 207t169.5 88q49 0 86 -25l66 25h16l-67 -389q41 -14 79 28l15 -15q-11 -32 -38.5 -56t-70.5 -24q-78 0 -67 87z
M297 531l-32 23q-26 21 -56.5 8.5t-39.5 -53.5l-22 2q-9 40 13.5 76t60 44.5t81.5 -18.5l40 -29q13 -9 32 -10t37 14t22 46l22 -4q5 -27 -1.5 -51t-23 -40t-37.5 -24.5t-46.5 -4.5t-49.5 21z" />
    <glyph glyph-name="adieresis" unicode="&#xe4;" horiz-adv-x="504" 
d="M304 135l42 245q-28 21 -67 21q-64 0 -106 -74t-42 -173q0 -103 62 -103q60 0 111 84zM298 77h-4q-37 -87 -127 -87q-63 0 -95 42t-32 119q0 119 69.5 207t169.5 88q49 0 86 -25l66 25h16l-67 -389q41 -14 79 28l15 -15q-11 -32 -38.5 -56t-70.5 -24q-78 0 -67 87z
M149 563q0 25 16 41.5t39 16.5q25 0 42 -16.5t17 -41.5q0 -23 -17 -40t-42 -17q-22 0 -38.5 17t-16.5 40zM337 562q0 24 16.5 41t40.5 17t41 -16.5t17 -41.5q0 -23 -17 -40t-41 -17q-23 0 -40 17t-17 40z" />
    <glyph glyph-name="aring" unicode="&#xe5;" horiz-adv-x="504" 
d="M304 135l42 245q-28 21 -67 21q-64 0 -106 -74t-42 -173q0 -103 62 -103q60 0 111 84zM298 77h-4q-37 -87 -127 -87q-63 0 -95 42t-32 119q0 119 69.5 207t169.5 88q49 0 86 -25l66 25h16l-67 -389q41 -14 79 28l15 -15q-11 -32 -38.5 -56t-70.5 -24q-78 0 -67 87z
M212 577q0 41 28 69.5t72 28.5q37 0 60 -23t23 -58q0 -41 -28.5 -69.5t-70.5 -28.5q-40 0 -62 22.5t-22 58.5zM307 634q-21 0 -35.5 -15.5t-14.5 -37.5q0 -21 12 -33.5t33 -12.5t34.5 15.5t13.5 37.5q0 21 -11.5 33.5t-31.5 12.5z" />
    <glyph glyph-name="ae" unicode="&#xe6;" horiz-adv-x="633" 
d="M606 335q0 -75 -68.5 -107.5t-199.5 -32.5q0 -145 98 -145q37 0 62.5 13.5t64.5 52.5l20 -17q-25 -57 -66.5 -83t-106.5 -26q-99 0 -141 79q-56 -79 -147 -79q-52 0 -82 27.5t-30 77.5q0 76 68 109.5t174 27.5q7 37 24 73q1 36 -21 56.5t-58 20.5q-63 0 -122 -45l-13 28
q67 81 161 81q81 0 110 -59q61 59 145 59q61 0 94.5 -30t33.5 -81zM472 402q-46 0 -83 -48.5t-47 -121.5q95 2 139 27.5t44 82.5q0 60 -53 60zM156 50q57 0 101 49q-10 31 -10 76v20q-74 -1 -109.5 -20.5t-35.5 -67.5q0 -24 13 -40.5t41 -16.5z" />
    <glyph glyph-name="ccedilla" unicode="&#xe7;" horiz-adv-x="412" 
d="M74 -188l17 22q27 -23 63 -23q48 0 48 43q0 26 -15 38t-46 21l29 80q-60 10 -95 55.5t-35 122.5q0 105 64.5 190t166.5 85q59 0 90 -23.5t31 -65.5q0 -28 -17.5 -44t-41.5 -16q-23 0 -39 14.5t-16 36.5q0 40 29 54q-20 4 -31 4q-65 0 -105 -65t-40 -153q0 -138 99 -138
q37 0 61.5 13.5t64.5 52.5l20 -17q-30 -56 -70 -82.5t-103 -26.5h-3l-12 -32q84 -16 84 -92q0 -41 -31 -63.5t-81 -22.5q-59 0 -86 32z" />
    <glyph glyph-name="egrave" unicode="&#xe8;" horiz-adv-x="424" 
d="M399 335q0 -75 -68.5 -107.5t-199.5 -32.5q0 -145 98 -145q37 0 62.5 13.5t64.5 52.5l20 -17q-25 -57 -66.5 -83t-106.5 -26q-74 0 -118.5 47.5t-44.5 137.5q0 65 26 126t80.5 103t124.5 42q61 0 94.5 -30t33.5 -81zM265 402q-46 0 -83 -48.5t-47 -121.5q95 2 139 27.5
t44 82.5q0 60 -53 60zM310 490l-113 100q-14 10 -13.5 30.5t21.5 33.5q20 12 38.5 6.5t26.5 -25.5l55 -133z" />
    <glyph glyph-name="eacute" unicode="&#xe9;" horiz-adv-x="424" 
d="M399 335q0 -75 -68.5 -107.5t-199.5 -32.5q0 -145 98 -145q37 0 62.5 13.5t64.5 52.5l20 -17q-25 -57 -66.5 -83t-106.5 -26q-74 0 -118.5 47.5t-44.5 137.5q0 65 26 126t80.5 103t124.5 42q61 0 94.5 -30t33.5 -81zM265 402q-46 0 -83 -48.5t-47 -121.5q95 2 139 27.5
t44 82.5q0 60 -53 60zM368 590l-113 -100l-15 12l55 133q8 20 26.5 25.5t38.5 -6.5q21 -13 21.5 -33.5t-13.5 -30.5z" />
    <glyph glyph-name="ecircumflex" unicode="&#xea;" horiz-adv-x="424" 
d="M399 335q0 -75 -68.5 -107.5t-199.5 -32.5q0 -145 98 -145q37 0 62.5 13.5t64.5 52.5l20 -17q-25 -57 -66.5 -83t-106.5 -26q-74 0 -118.5 47.5t-44.5 137.5q0 65 26 126t80.5 103t124.5 42q61 0 94.5 -30t33.5 -81zM265 402q-46 0 -83 -48.5t-47 -121.5q95 2 139 27.5
t44 82.5q0 60 -53 60zM294 659h14l106 -177h-84l-57 103l-97 -103h-48z" />
    <glyph glyph-name="edieresis" unicode="&#xeb;" horiz-adv-x="424" 
d="M399 335q0 -75 -68.5 -107.5t-199.5 -32.5q0 -145 98 -145q37 0 62.5 13.5t64.5 52.5l20 -17q-25 -57 -66.5 -83t-106.5 -26q-74 0 -118.5 47.5t-44.5 137.5q0 65 26 126t80.5 103t124.5 42q61 0 94.5 -30t33.5 -81zM265 402q-46 0 -83 -48.5t-47 -121.5q95 2 139 27.5
t44 82.5q0 60 -53 60zM127 563q0 25 16 41.5t39 16.5q25 0 42 -16.5t17 -41.5q0 -23 -17 -40t-42 -17q-22 0 -38.5 17t-16.5 40zM315 562q0 24 16.5 41t40.5 17t41 -16.5t17 -41.5q0 -23 -17 -40t-41 -17q-23 0 -40 17t-17 40z" />
    <glyph glyph-name="igrave" unicode="&#xec;" horiz-adv-x="271" 
d="M200 490l-113 100q-14 10 -13.5 30.5t21.5 33.5q20 12 38.5 6.5t26.5 -25.5l55 -133zM195 345l-49 -288q42 -14 80 28l15 -15q-11 -32 -38.5 -56t-70.5 -24q-72 0 -72 66q0 14 4 38l49 287q-40 13 -78 -28l-15 15q11 32 38.5 55t70.5 23q70 0 70 -66q0 -11 -4 -35z" />
    <glyph glyph-name="iacute" unicode="&#xed;" horiz-adv-x="271" 
d="M259 590l-113 -100l-15 12l55 133q8 20 26.5 25.5t38.5 -6.5q21 -13 21.5 -33.5t-13.5 -30.5zM195 345l-49 -288q42 -14 80 28l15 -15q-11 -32 -38.5 -56t-70.5 -24q-72 0 -72 66q0 14 4 38l49 287q-40 13 -78 -28l-15 15q11 32 38.5 55t70.5 23q70 0 70 -66
q0 -11 -4 -35z" />
    <glyph glyph-name="icircumflex" unicode="&#xee;" horiz-adv-x="271" 
d="M195 345l-49 -288q42 -14 80 28l15 -15q-11 -32 -38.5 -56t-70.5 -24q-72 0 -72 66q0 14 4 38l49 287q-40 13 -78 -28l-15 15q11 32 38.5 55t70.5 23q70 0 70 -66q0 -11 -4 -35zM184 659h14l106 -177h-84l-57 103l-97 -103h-48z" />
    <glyph glyph-name="idieresis" unicode="&#xef;" horiz-adv-x="271" 
d="M17 563q0 25 16 41.5t39 16.5q25 0 42 -16.5t17 -41.5q0 -23 -17 -40t-42 -17q-22 0 -38.5 17t-16.5 40zM205 562q0 24 16.5 41t40.5 17t41 -16.5t17 -41.5q0 -23 -17 -40t-41 -17q-23 0 -40 17t-17 40zM195 345l-49 -288q42 -14 80 28l15 -15q-11 -32 -38.5 -56
t-70.5 -24q-72 0 -72 66q0 14 4 38l49 287q-40 13 -78 -28l-15 15q11 32 38.5 55t70.5 23q70 0 70 -66q0 -11 -4 -35z" />
    <glyph glyph-name="eth" unicode="&#xf0;" horiz-adv-x="484" 
d="M103 529l127 52q-49 42 -137 82l17 25q107 -22 182 -82l99 41l12 -34l-81 -33q60 -59 91 -135.5t31 -157.5q0 -152 -65.5 -224.5t-165.5 -72.5q-85 0 -129 50t-44 137q0 126 68 197.5t158 71.5q31 0 60 -10q-20 68 -67 118l-144 -58zM346 286q0 60 -9 108q-24 11 -60 11
q-66 0 -102.5 -69.5t-36.5 -175.5q0 -133 82 -133q60 0 93 67t33 192z" />
    <glyph glyph-name="ntilde" unicode="&#xf1;" 
d="M317 94l34 198q7 42 -4 60.5t-42 18.5q-40 0 -104 -48l-55 -323h-89l66 381q-41 14 -79 -28l-14 15q11 32 38 55t70 23q81 0 65 -91h4q58 91 142 91q41 0 69 -24.5t28 -72.5q0 -14 -4 -40l-43 -252q42 -14 80 28l15 -15q-11 -32 -38.5 -56t-70.5 -24q-72 0 -72 66
q0 14 4 38zM298 531l-32 23q-26 21 -56.5 8.5t-39.5 -53.5l-22 2q-9 40 13.5 76t60 44.5t81.5 -18.5l40 -29q13 -9 32 -10t37 14t22 46l22 -4q5 -27 -1.5 -51t-23 -40t-37.5 -24.5t-46.5 -4.5t-49.5 21z" />
    <glyph glyph-name="ograve" unicode="&#xf2;" horiz-adv-x="478" 
d="M214 32q55 0 88 62.5t38 142.5q1 11 1 32q0 135 -78 135q-55 0 -88 -62.5t-38 -142.5q-1 -11 -1 -32q0 -135 78 -135zM213 -10q-82 0 -126 52t-44 137q0 112 57.5 189.5t163.5 77.5q82 0 126 -52t44 -137q0 -112 -57.5 -189.5t-163.5 -77.5zM326 490l-113 100
q-14 10 -13.5 30.5t21.5 33.5q20 12 38.5 6.5t26.5 -25.5l55 -133z" />
    <glyph glyph-name="oacute" unicode="&#xf3;" horiz-adv-x="478" 
d="M214 32q55 0 88 62.5t38 142.5q1 11 1 32q0 135 -78 135q-55 0 -88 -62.5t-38 -142.5q-1 -11 -1 -32q0 -135 78 -135zM213 -10q-82 0 -126 52t-44 137q0 112 57.5 189.5t163.5 77.5q82 0 126 -52t44 -137q0 -112 -57.5 -189.5t-163.5 -77.5zM384 590l-113 -100l-15 12
l55 133q8 20 26.5 25.5t38.5 -6.5q21 -13 21.5 -33.5t-13.5 -30.5z" />
    <glyph glyph-name="ocircumflex" unicode="&#xf4;" horiz-adv-x="478" 
d="M214 32q55 0 88 62.5t38 142.5q1 11 1 32q0 135 -78 135q-55 0 -88 -62.5t-38 -142.5q-1 -11 -1 -32q0 -135 78 -135zM213 -10q-82 0 -126 52t-44 137q0 112 57.5 189.5t163.5 77.5q82 0 126 -52t44 -137q0 -112 -57.5 -189.5t-163.5 -77.5zM310 659h14l106 -177h-84
l-57 103l-97 -103h-48z" />
    <glyph glyph-name="otilde" unicode="&#xf5;" horiz-adv-x="478" 
d="M214 32q55 0 88 62.5t38 142.5q1 11 1 32q0 135 -78 135q-55 0 -88 -62.5t-38 -142.5q-1 -11 -1 -32q0 -135 78 -135zM213 -10q-82 0 -126 52t-44 137q0 112 57.5 189.5t163.5 77.5q82 0 126 -52t44 -137q0 -112 -57.5 -189.5t-163.5 -77.5zM291 531l-32 23
q-26 21 -56.5 8.5t-39.5 -53.5l-22 2q-9 40 13.5 76t60 44.5t81.5 -18.5l40 -29q13 -9 32 -10t37 14t22 46l22 -4q5 -27 -1.5 -51t-23 -40t-37.5 -24.5t-46.5 -4.5t-49.5 21z" />
    <glyph glyph-name="odieresis" unicode="&#xf6;" horiz-adv-x="478" 
d="M214 32q55 0 88 62.5t38 142.5q1 11 1 32q0 135 -78 135q-55 0 -88 -62.5t-38 -142.5q-1 -11 -1 -32q0 -135 78 -135zM213 -10q-82 0 -126 52t-44 137q0 112 57.5 189.5t163.5 77.5q82 0 126 -52t44 -137q0 -112 -57.5 -189.5t-163.5 -77.5zM143 563q0 25 16 41.5
t39 16.5q25 0 42 -16.5t17 -41.5q0 -23 -17 -40t-42 -17q-22 0 -38.5 17t-16.5 40zM331 562q0 24 16.5 41t40.5 17t41 -16.5t17 -41.5q0 -23 -17 -40t-41 -17q-23 0 -40 17t-17 40z" />
    <glyph glyph-name="divide" unicode="&#xf7;" horiz-adv-x="483" 
d="M431 223h-386l7 43h386zM171 77q0 17 12 29t28 12q17 0 29 -12t12 -29q0 -16 -12 -28t-29 -12t-28.5 11.5t-11.5 28.5zM224 407q0 17 12 29t28 12t28.5 -12t12.5 -29q0 -16 -12 -28t-29 -12q-16 0 -28 11.5t-12 28.5z" />
    <glyph glyph-name="oslash" unicode="&#xf8;" horiz-adv-x="478" 
d="M213 -10q-63 0 -102 30l-37 -49h-49l58 76q-40 50 -40 132q0 112 57.5 189.5t163.5 77.5q59 0 99 -28l36 48h49l-57 -75q43 -51 43 -134q0 -112 -57.5 -189.5t-163.5 -77.5zM214 32q55 0 88 62.5t38 142.5q1 11 1 32q0 31 -4 51l-186 -247q18 -41 63 -41zM136 167
q0 -32 2 -46l186 245q-20 38 -61 38q-55 0 -88 -62.5t-38 -142.5q-1 -11 -1 -32z" />
    <glyph glyph-name="ugrave" unicode="&#xf9;" horiz-adv-x="510" 
d="M452 436l-66 -379q41 -14 79 28l15 -15q-11 -32 -38.5 -56t-70.5 -24q-80 0 -64 91h-4q-58 -91 -143 -91q-49 0 -77 33t-16 104l42 254q-41 14 -79 -28l-15 15q11 32 38.5 55t70.5 23q86 0 70 -91l-39 -228q-13 -72 37 -72q52 0 116 58l53 315zM318 490l-113 100
q-14 10 -13.5 30.5t21.5 33.5q20 12 38.5 6.5t26.5 -25.5l55 -133z" />
    <glyph glyph-name="uacute" unicode="&#xfa;" horiz-adv-x="510" 
d="M452 436l-66 -379q41 -14 79 28l15 -15q-11 -32 -38.5 -56t-70.5 -24q-80 0 -64 91h-4q-58 -91 -143 -91q-49 0 -77 33t-16 104l42 254q-41 14 -79 -28l-15 15q11 32 38.5 55t70.5 23q86 0 70 -91l-39 -228q-13 -72 37 -72q52 0 116 58l53 315zM377 590l-113 -100l-15 12
l55 133q8 20 26.5 25.5t38.5 -6.5q21 -13 21.5 -33.5t-13.5 -30.5z" />
    <glyph glyph-name="ucircumflex" unicode="&#xfb;" horiz-adv-x="510" 
d="M452 436l-66 -379q41 -14 79 28l15 -15q-11 -32 -38.5 -56t-70.5 -24q-80 0 -64 91h-4q-58 -91 -143 -91q-49 0 -77 33t-16 104l42 254q-41 14 -79 -28l-15 15q11 32 38.5 55t70.5 23q86 0 70 -91l-39 -228q-13 -72 37 -72q52 0 116 58l53 315zM302 659h14l106 -177h-84
l-57 103l-97 -103h-48z" />
    <glyph glyph-name="udieresis" unicode="&#xfc;" horiz-adv-x="510" 
d="M452 436l-66 -379q41 -14 79 28l15 -15q-11 -32 -38.5 -56t-70.5 -24q-80 0 -64 91h-4q-58 -91 -143 -91q-49 0 -77 33t-16 104l42 254q-41 14 -79 -28l-15 15q11 32 38.5 55t70.5 23q86 0 70 -91l-39 -228q-13 -72 37 -72q52 0 116 58l53 315zM135 563q0 25 16 41.5
t39 16.5q25 0 42 -16.5t17 -41.5q0 -23 -17 -40t-42 -17q-22 0 -38.5 17t-16.5 40zM323 562q0 24 16.5 41t40.5 17t41 -16.5t17 -41.5q0 -23 -17 -40t-41 -17q-23 0 -40 17t-17 40z" />
    <glyph glyph-name="yacute" unicode="&#xfd;" horiz-adv-x="451" 
d="M14 -172q56 12 134 102l-62 451q-41 14 -79 -28l-15 15q10 31 40 54.5t74 23.5q40 0 55 -21t20 -64l38 -359q59 78 103 172t54 164q-8 -9 -25 -9q-28 0 -43 16.5t-15 39.5q0 28 17.5 44.5t45.5 16.5q31 0 50.5 -20t19.5 -57q0 -72 -44.5 -174.5t-109.5 -192.5t-144 -154
t-141 -64q-36 0 -56.5 17.5t-20.5 46.5q0 27 16 44t41 17q26 0 39.5 -16t13.5 -41q0 -15 -6 -24zM361 590l-113 -100l-15 12l55 133q8 20 26.5 25.5t38.5 -6.5q21 -13 21.5 -33.5t-13.5 -30.5z" />
    <glyph glyph-name="thorn" unicode="&#xfe;" horiz-adv-x="493" 
d="M177 328l-47 -279q31 -18 76 -18q67 0 110.5 66.5t43.5 165.5q0 56 -22.5 87t-62.5 31q-50 0 -98 -53zM232 681l-51 -313h4q46 78 130 78q63 0 100.5 -43.5t37.5 -122.5q0 -126 -71 -208t-186 -82q-46 0 -74 14l-27 -166l70 -19l-13 -29h-192v28l47 17l125 761l-50 46
l2 11l132 28h16z" />
    <glyph glyph-name="ydieresis" unicode="&#xff;" horiz-adv-x="451" 
d="M14 -172q56 12 134 102l-62 451q-41 14 -79 -28l-15 15q10 31 40 54.5t74 23.5q40 0 55 -21t20 -64l38 -359q59 78 103 172t54 164q-8 -9 -25 -9q-28 0 -43 16.5t-15 39.5q0 28 17.5 44.5t45.5 16.5q31 0 50.5 -20t19.5 -57q0 -72 -44.5 -174.5t-109.5 -192.5t-144 -154
t-141 -64q-36 0 -56.5 17.5t-20.5 46.5q0 27 16 44t41 17q26 0 39.5 -16t13.5 -41q0 -15 -6 -24zM120 563q0 25 16 41.5t39 16.5q25 0 42 -16.5t17 -41.5q0 -23 -17 -40t-42 -17q-22 0 -38.5 17t-16.5 40zM308 562q0 24 17 41t40 17q24 0 41 -16.5t17 -41.5q0 -23 -17 -40
t-41 -17q-23 0 -40 17t-17 40z" />
    <glyph glyph-name="Amacron" unicode="&#x100;" horiz-adv-x="570" 
d="M411 51l-25 143h-220l-78 -139l79 -21l-12 -34h-184l-1 31l54 24l301 533h80l100 -533l45 -24l-13 -31h-209l1 34zM282 401l-90 -161h186l-28 162q-5 31 -7.5 60.5t-2.5 43.5v14h-4q-18 -54 -54 -119zM503 653h-269l5 48h279z" />
    <glyph glyph-name="amacron" unicode="&#x101;" horiz-adv-x="504" 
d="M304 135l42 245q-28 21 -67 21q-64 0 -106 -74t-42 -173q0 -103 62 -103q60 0 111 84zM298 77h-4q-37 -87 -127 -87q-63 0 -95 42t-32 119q0 119 69.5 207t169.5 88q49 0 86 -25l66 25h16l-67 -389q41 -14 79 28l15 -15q-11 -32 -38.5 -56t-70.5 -24q-78 0 -67 87z
M435 513h-269l5 48h279z" />
    <glyph glyph-name="Abreve" unicode="&#x102;" horiz-adv-x="570" 
d="M411 51l-25 143h-220l-78 -139l79 -21l-12 -34h-184l-1 31l54 24l301 533h80l100 -533l45 -24l-13 -31h-209l1 34zM282 401l-90 -161h186l-28 162q-5 31 -7.5 60.5t-2.5 43.5v14h-4q-18 -54 -54 -119zM376 684q44 0 70.5 15.5t48.5 53.5h31q-14 -58 -54 -94.5t-104 -36.5
q-56 0 -86.5 32t-30.5 78q0 11 1 21h27q10 -38 31.5 -53.5t65.5 -15.5z" />
    <glyph glyph-name="abreve" unicode="&#x103;" horiz-adv-x="504" 
d="M304 135l42 245q-28 21 -67 21q-64 0 -106 -74t-42 -173q0 -103 62 -103q60 0 111 84zM298 77h-4q-37 -87 -127 -87q-63 0 -95 42t-32 119q0 119 69.5 207t169.5 88q49 0 86 -25l66 25h16l-67 -389q41 -14 79 28l15 -15q-11 -32 -38.5 -56t-70.5 -24q-78 0 -67 87z
M309 560q46 0 75 20.5t48 72.5h25q0 -70 -45 -114t-113 -44q-53 0 -84.5 30t-32.5 77q0 24 9 51h25q2 -51 24.5 -72t68.5 -21z" />
    <glyph glyph-name="Aogonek" unicode="&#x104;" horiz-adv-x="570" 
d="M169 -122q0 104 161 150l81 23l-25 143h-220l-78 -139l79 -21l-12 -34h-184l-1 31l54 24l301 533h80l100 -533l45 -24l-13 -31h-179q-114 -32 -114 -105q0 -26 18.5 -43t48.5 -17q50 0 84 30l14 -18q-15 -30 -46.5 -48.5t-71.5 -18.5q-60 0 -91 27t-31 71zM282 401
l-90 -161h186l-28 162q-5 31 -7.5 60.5t-2.5 43.5v14h-4q-18 -54 -54 -119z" />
    <glyph glyph-name="aogonek" unicode="&#x105;" horiz-adv-x="504" 
d="M202 -122q0 86 112 129q-23 21 -16 70h-4q-37 -87 -127 -87q-63 0 -95 42t-32 119q0 119 69.5 207t169.5 88q49 0 86 -25l66 25h16l-67 -389q41 -14 79 28l15 -15q-20 -60 -109 -80q-88 -20 -88 -92q0 -29 18.5 -46t48.5 -17q50 0 84 30l14 -18q-15 -30 -46.5 -48.5
t-71.5 -18.5q-60 0 -91 27t-31 71zM304 135l42 245q-28 21 -67 21q-64 0 -106 -74t-42 -173q0 -103 62 -103q60 0 111 84z" />
    <glyph glyph-name="Cacute" unicode="&#x106;" horiz-adv-x="529" 
d="M471 114l22 -31q-43 -49 -91 -71t-115 -22q-115 0 -176 65.5t-61 181.5q0 161 84.5 261t216.5 100q67 0 122 -25l66 25l-27 -166l-22 -5l-18 37q-22 46 -50.5 67.5t-73.5 21.5q-84 0 -140.5 -89.5t-56.5 -226.5q0 -89 39 -139.5t110 -50.5q92 0 171 67zM470 709l-129 -84
l-15 19l95 118q26 34 56 3q30 -30 -7 -56z" />
    <glyph glyph-name="cacute" unicode="&#x107;" horiz-adv-x="412" 
d="M307 402q-20 4 -31 4q-65 0 -105 -65t-40 -153q0 -138 99 -138q37 0 61.5 13.5t64.5 52.5l20 -17q-30 -56 -70 -82.5t-103 -26.5q-74 0 -118.5 46.5t-44.5 134.5q0 105 64.5 190t166.5 85q59 0 90 -23.5t31 -65.5q0 -28 -17.5 -44t-41.5 -16q-23 0 -39 14.5t-16 36.5
q0 40 29 54zM369 590l-113 -100l-15 12l55 133q8 20 26.5 25.5t38.5 -6.5q21 -13 21.5 -33.5t-13.5 -30.5z" />
    <glyph glyph-name="Ccircumflex" unicode="&#x108;" horiz-adv-x="529" 
d="M471 114l22 -31q-43 -49 -91 -71t-115 -22q-115 0 -176 65.5t-61 181.5q0 161 84.5 261t216.5 100q67 0 122 -25l66 25l-27 -166l-22 -5l-18 37q-22 46 -50.5 67.5t-73.5 21.5q-84 0 -140.5 -89.5t-56.5 -226.5q0 -89 39 -139.5t110 -50.5q92 0 171 67zM403 765h14
l112 -137h-88l-59 71l-88 -71h-51z" />
    <glyph glyph-name="ccircumflex" unicode="&#x109;" horiz-adv-x="412" 
d="M307 402q-20 4 -31 4q-65 0 -105 -65t-40 -153q0 -138 99 -138q37 0 61.5 13.5t64.5 52.5l20 -17q-30 -56 -70 -82.5t-103 -26.5q-74 0 -118.5 46.5t-44.5 134.5q0 105 64.5 190t166.5 85q59 0 90 -23.5t31 -65.5q0 -28 -17.5 -44t-41.5 -16q-23 0 -39 14.5t-16 36.5
q0 40 29 54zM295 659h14l106 -177h-84l-57 103l-97 -103h-48z" />
    <glyph glyph-name="Cdotaccent" unicode="&#x10a;" horiz-adv-x="529" 
d="M471 114l22 -31q-43 -49 -91 -71t-115 -22q-115 0 -176 65.5t-61 181.5q0 161 84.5 261t216.5 100q67 0 122 -25l66 25l-27 -166l-22 -5l-18 37q-22 46 -50.5 67.5t-73.5 21.5q-84 0 -140.5 -89.5t-56.5 -226.5q0 -89 39 -139.5t110 -50.5q92 0 171 67zM327 691
q0 25 17.5 43t41.5 18q26 0 43.5 -18t17.5 -43q0 -24 -18 -42t-43 -18q-24 0 -41.5 18t-17.5 42z" />
    <glyph glyph-name="cdotaccent" unicode="&#x10b;" horiz-adv-x="412" 
d="M307 402q-20 4 -31 4q-65 0 -105 -65t-40 -153q0 -138 99 -138q37 0 61.5 13.5t64.5 52.5l20 -17q-30 -56 -70 -82.5t-103 -26.5q-74 0 -118.5 46.5t-44.5 134.5q0 105 64.5 190t166.5 85q59 0 90 -23.5t31 -65.5q0 -28 -17.5 -44t-41.5 -16q-23 0 -39 14.5t-16 36.5
q0 40 29 54zM222 567q0 25 17.5 43t41.5 18q25 0 43 -18t18 -43q0 -24 -18 -42t-43 -18q-24 0 -41.5 18t-17.5 42z" />
    <glyph glyph-name="Ccaron" unicode="&#x10c;" horiz-adv-x="534" 
d="M471 114l22 -31q-43 -49 -91 -71t-115 -22q-115 0 -176 65.5t-61 181.5q0 161 84.5 261t216.5 100q67 0 122 -25l66 25l-27 -166l-22 -5l-18 37q-22 46 -50.5 67.5t-73.5 21.5q-84 0 -140.5 -89.5t-56.5 -226.5q0 -89 39 -139.5t110 -50.5q92 0 171 67zM384 620h-14
l-112 137h88l59 -71l88 71h51z" />
    <glyph glyph-name="ccaron" unicode="&#x10d;" horiz-adv-x="412" 
d="M307 402q-20 4 -31 4q-65 0 -105 -65t-40 -153q0 -138 99 -138q37 0 61.5 13.5t64.5 52.5l20 -17q-30 -56 -70 -82.5t-103 -26.5q-74 0 -118.5 46.5t-44.5 134.5q0 105 64.5 190t166.5 85q59 0 90 -23.5t31 -65.5q0 -28 -17.5 -44t-41.5 -16q-23 0 -39 14.5t-16 36.5
q0 40 29 54zM275 482h-14l-106 177h84l57 -103l97 103h48z" />
    <glyph glyph-name="Dcaron" unicode="&#x10e;" horiz-adv-x="603" 
d="M100 588h214q128 0 198.5 -62.5t70.5 -184.5q0 -156 -95.5 -248.5t-248.5 -92.5h-232l-2 32l77 23l76 478l-70 23zM177 55l59 -15q117 2 182 86.5t65 233.5q0 182 -185 182h-44zM349 620h-14l-112 137h88l59 -71l88 71h51z" />
    <glyph glyph-name="dcaron" unicode="&#x10f;" horiz-adv-x="512" 
d="M317 138l38 246q-34 17 -70 17q-68 0 -111 -71t-43 -176q0 -103 62 -103q63 0 124 87zM389 596l-50 46l2 11l135 28h16l-100 -624q41 -14 79 28l15 -15q-11 -32 -38.5 -56t-70.5 -24q-85 0 -69 91h-4q-37 -91 -137 -91q-63 0 -95 42t-32 119q0 120 69.5 207.5t174.5 87.5
q45 0 79 -19zM532 484l10 150q1 16 10.5 27t26.5 11q20 0 33 -10t13 -29q0 -11 -5 -21l-65 -132z" />
    <glyph glyph-name="Dcroat" unicode="&#x110;" horiz-adv-x="607" 
d="M35 276l8 46h81l34 211l-70 23l12 32h218q269 0 269 -247q0 -158 -97 -249.5t-251 -91.5h-232l-2 32l77 23l35 221h-82zM177 55l59 -15q108 1 179.5 79t71.5 219q0 105 -45 154.5t-140 49.5h-48l-35 -220h105l-8 -46h-104z" />
    <glyph glyph-name="dcroat" unicode="&#x111;" horiz-adv-x="512" 
d="M389 596l-50 46l2 11l135 28h16l-21 -129h57l-6 -34h-56l-74 -461q41 -14 79 28l15 -15q-11 -32 -38.5 -56t-70.5 -24q-85 0 -69 91h-4q-37 -91 -137 -91q-63 0 -95 42t-32 119q0 120 69.5 207.5t174.5 87.5q45 0 79 -19l14 91h-174l6 34h173zM317 138l38 246
q-34 17 -70 17q-68 0 -111 -71t-43 -176q0 -103 62 -103q63 0 124 87z" />
    <glyph glyph-name="Emacron" unicode="&#x112;" 
d="M311 276h-99l-34 -213l33 -17h143l104 142l25 -6l-48 -182h-428l-2 32l77 23l76 478l-70 23l12 32h419l-25 -157l-22 -5l-56 116h-162l-35 -220h98l53 88l22 -4l-34 -216l-22 -4zM460 653h-269l5 48h279z" />
    <glyph glyph-name="emacron" unicode="&#x113;" horiz-adv-x="424" 
d="M399 335q0 -75 -68.5 -107.5t-199.5 -32.5q0 -145 98 -145q37 0 62.5 13.5t64.5 52.5l20 -17q-25 -57 -66.5 -83t-106.5 -26q-74 0 -118.5 47.5t-44.5 137.5q0 65 26 126t80.5 103t124.5 42q61 0 94.5 -30t33.5 -81zM265 402q-46 0 -83 -48.5t-47 -121.5q95 2 139 27.5
t44 82.5q0 60 -53 60zM401 513h-269l5 48h279z" />
    <glyph glyph-name="Ebreve" unicode="&#x114;" 
d="M311 276h-99l-34 -213l33 -17h143l104 142l25 -6l-48 -182h-428l-2 32l77 23l76 478l-70 23l12 32h419l-25 -157l-22 -5l-56 116h-162l-35 -220h98l53 88l22 -4l-34 -216l-22 -4zM332 684q44 0 70.5 15.5t48.5 53.5h31q-14 -58 -54 -94.5t-104 -36.5q-56 0 -86.5 32
t-30.5 78q0 11 1 21h27q10 -38 31.5 -53.5t65.5 -15.5z" />
    <glyph glyph-name="ebreve" unicode="&#x115;" horiz-adv-x="424" 
d="M399 335q0 -75 -68.5 -107.5t-199.5 -32.5q0 -145 98 -145q37 0 62.5 13.5t64.5 52.5l20 -17q-25 -57 -66.5 -83t-106.5 -26q-74 0 -118.5 47.5t-44.5 137.5q0 65 26 126t80.5 103t124.5 42q61 0 94.5 -30t33.5 -81zM265 402q-46 0 -83 -48.5t-47 -121.5q95 2 139 27.5
t44 82.5q0 60 -53 60zM277 560q46 0 75 20.5t48 72.5h25q0 -70 -45 -114t-113 -44q-53 0 -84.5 30t-32.5 77q0 24 9 51h25q2 -51 24.5 -72t68.5 -21z" />
    <glyph glyph-name="Edotaccent" unicode="&#x116;" 
d="M311 276h-99l-34 -213l33 -17h143l104 142l25 -6l-48 -182h-428l-2 32l77 23l76 478l-70 23l12 32h419l-25 -157l-22 -5l-56 116h-162l-35 -220h98l53 88l22 -4l-34 -216l-22 -4zM269 691q0 25 17.5 43t41.5 18q26 0 43.5 -18t17.5 -43q0 -24 -18 -42t-43 -18
q-24 0 -41.5 18t-17.5 42z" />
    <glyph glyph-name="edotaccent" unicode="&#x117;" horiz-adv-x="424" 
d="M399 335q0 -75 -68.5 -107.5t-199.5 -32.5q0 -145 98 -145q37 0 62.5 13.5t64.5 52.5l20 -17q-25 -57 -66.5 -83t-106.5 -26q-74 0 -118.5 47.5t-44.5 137.5q0 65 26 126t80.5 103t124.5 42q61 0 94.5 -30t33.5 -81zM265 402q-46 0 -83 -48.5t-47 -121.5q95 2 139 27.5
t44 82.5q0 60 -53 60zM221 567q0 25 17.5 43t41.5 18q26 0 43.5 -18t17.5 -43q0 -24 -18 -42t-43 -18q-24 0 -41.5 18t-17.5 42z" />
    <glyph glyph-name="Eogonek" unicode="&#x118;" 
d="M169 -122q0 81 95 122h-257l-2 32l77 23l76 478l-70 23l12 32h419l-25 -157l-22 -5l-56 116h-162l-35 -220h98l53 88l22 -4l-34 -216l-22 -4l-25 90h-99l-34 -213l33 -17h143l104 142l25 -6l-48 -182h-77q-114 -32 -114 -105q0 -26 18.5 -43t48.5 -17q50 0 84 30l14 -18
q-15 -30 -46.5 -48.5t-71.5 -18.5q-60 0 -91 27t-31 71z" />
    <glyph glyph-name="eogonek" unicode="&#x119;" horiz-adv-x="424" 
d="M74 -122q0 77 84 117q-55 13 -86.5 58.5t-31.5 121.5q0 65 26 126t80.5 103t124.5 42q61 0 94.5 -30t33.5 -81q0 -75 -68.5 -107.5t-199.5 -32.5q0 -145 98 -145q37 0 62.5 13.5t64.5 52.5l20 -17q-35 -84 -131 -105q-50 -12 -73 -35.5t-23 -63.5q0 -26 18.5 -43
t48.5 -17q50 0 84 30l14 -18q-15 -30 -46.5 -48.5t-71.5 -18.5q-60 0 -91 27t-31 71zM265 402q-46 0 -83 -48.5t-47 -121.5q95 2 139 27.5t44 82.5q0 60 -53 60z" />
    <glyph glyph-name="Ecaron" unicode="&#x11a;" 
d="M311 276h-99l-34 -213l33 -17h143l104 142l25 -6l-48 -182h-428l-2 32l77 23l76 478l-70 23l12 32h419l-25 -157l-22 -5l-56 116h-162l-35 -220h98l53 88l22 -4l-34 -216l-22 -4zM325 620h-14l-112 137h88l59 -71l88 71h51z" />
    <glyph glyph-name="ecaron" unicode="&#x11b;" horiz-adv-x="424" 
d="M399 335q0 -75 -68.5 -107.5t-199.5 -32.5q0 -145 98 -145q37 0 62.5 13.5t64.5 52.5l20 -17q-25 -57 -66.5 -83t-106.5 -26q-74 0 -118.5 47.5t-44.5 137.5q0 65 26 126t80.5 103t124.5 42q61 0 94.5 -30t33.5 -81zM265 402q-46 0 -83 -48.5t-47 -121.5q95 2 139 27.5
t44 82.5q0 60 -53 60zM274 482h-14l-106 177h84l57 -103l97 103h48z" />
    <glyph glyph-name="Gcircumflex" unicode="&#x11c;" horiz-adv-x="578" 
d="M510 222l-36 -226h-15l-34 48q-48 -54 -143 -54q-116 0 -174 67t-58 180q0 160 84.5 260t216.5 100q67 0 122 -25l66 25l-27 -166l-22 -5l-18 37q-24 50 -51 69.5t-73 19.5q-85 0 -141 -91t-56 -236q0 -190 142 -190q57 0 102 37l23 150l-71 23l12 32h206l3 -32zM404 765
h14l112 -137h-88l-59 71l-88 -71h-51z" />
    <glyph glyph-name="gcircumflex" unicode="&#x11d;" horiz-adv-x="462" 
d="M134 69h119q149 0 149 -123q0 -86 -70 -126t-180 -40q-83 0 -132.5 28t-49.5 87q0 87 115 105v4q-28 5 -44.5 25.5t-16.5 51.5q0 38 27.5 61.5t74.5 29.5q-63 23 -63 106q0 72 53.5 120t137.5 48q48 0 151 -35q-6 7 -6 21q0 21 13 34t34 13t33.5 -14t12.5 -35
q0 -23 -16 -38t-43 -15q-42 0 -79 20v-9q43 -29 43 -88q0 -72 -56.5 -110.5t-125.5 -38.5q-33 0 -55 7q-63 -13 -63 -57q0 -32 37 -32zM124 -12q-36 -15 -53 -36.5t-17 -57.5q0 -33 28 -54t75 -21q71 0 118 24.5t47 78.5q0 66 -78 66h-120zM305 337q0 69 -61 69
q-39 0 -64.5 -38.5t-25.5 -110.5q0 -69 61 -69q39 0 64.5 38.5t25.5 110.5zM307 659h14l106 -177h-84l-57 103l-97 -103h-48z" />
    <glyph glyph-name="Gbreve" unicode="&#x11e;" horiz-adv-x="578" 
d="M510 222l-36 -226h-15l-34 48q-48 -54 -143 -54q-116 0 -174 67t-58 180q0 160 84.5 260t216.5 100q67 0 122 -25l66 25l-27 -166l-22 -5l-18 37q-24 50 -51 69.5t-73 19.5q-85 0 -141 -91t-56 -236q0 -190 142 -190q57 0 102 37l23 150l-71 23l12 32h206l3 -32zM381 684
q44 0 70.5 15.5t48.5 53.5h31q-14 -58 -54 -94.5t-104 -36.5q-56 0 -86.5 32t-30.5 78q0 11 1 21h27q10 -38 31.5 -53.5t65.5 -15.5z" />
    <glyph glyph-name="gbreve" unicode="&#x11f;" horiz-adv-x="462" 
d="M134 69h119q149 0 149 -123q0 -86 -70 -126t-180 -40q-83 0 -132.5 28t-49.5 87q0 87 115 105v4q-28 5 -44.5 25.5t-16.5 51.5q0 38 27.5 61.5t74.5 29.5q-63 23 -63 106q0 72 53.5 120t137.5 48q48 0 151 -35q-6 7 -6 21q0 21 13 34t34 13t33.5 -14t12.5 -35
q0 -23 -16 -38t-43 -15q-42 0 -79 20v-9q43 -29 43 -88q0 -72 -56.5 -110.5t-125.5 -38.5q-33 0 -55 7q-63 -13 -63 -57q0 -32 37 -32zM124 -12q-36 -15 -53 -36.5t-17 -57.5q0 -33 28 -54t75 -21q71 0 118 24.5t47 78.5q0 66 -78 66h-120zM305 337q0 69 -61 69
q-39 0 -64.5 -38.5t-25.5 -110.5q0 -69 61 -69q39 0 64.5 38.5t25.5 110.5zM291 560q46 0 75 20.5t48 72.5h25q0 -70 -45 -114t-113 -44q-53 0 -84.5 30t-32.5 77q0 24 9 51h25q2 -51 24.5 -72t68.5 -21z" />
    <glyph glyph-name="Gdotaccent" unicode="&#x120;" horiz-adv-x="578" 
d="M510 222l-36 -226h-15l-34 48q-48 -54 -143 -54q-116 0 -174 67t-58 180q0 160 84.5 260t216.5 100q67 0 122 -25l66 25l-27 -166l-22 -5l-18 37q-24 50 -51 69.5t-73 19.5q-85 0 -141 -91t-56 -236q0 -190 142 -190q57 0 102 37l23 150l-71 23l12 32h206l3 -32zM328 691
q0 25 17.5 43t41.5 18q25 0 43 -18t18 -43q0 -24 -18 -42t-43 -18q-24 0 -41.5 18t-17.5 42z" />
    <glyph glyph-name="gdotaccent" unicode="&#x121;" horiz-adv-x="462" 
d="M134 69h119q149 0 149 -123q0 -86 -70 -126t-180 -40q-83 0 -132.5 28t-49.5 87q0 87 115 105v4q-28 5 -44.5 25.5t-16.5 51.5q0 38 27.5 61.5t74.5 29.5q-63 23 -63 106q0 72 53.5 120t137.5 48q48 0 151 -35q-6 7 -6 21q0 21 13 34t34 13t33.5 -14t12.5 -35
q0 -23 -16 -38t-43 -15q-42 0 -79 20v-9q43 -29 43 -88q0 -72 -56.5 -110.5t-125.5 -38.5q-33 0 -55 7q-63 -13 -63 -57q0 -32 37 -32zM124 -12q-36 -15 -53 -36.5t-17 -57.5q0 -33 28 -54t75 -21q71 0 118 24.5t47 78.5q0 66 -78 66h-120zM305 337q0 69 -61 69
q-39 0 -64.5 -38.5t-25.5 -110.5q0 -69 61 -69q39 0 64.5 38.5t25.5 110.5zM234 567q0 25 17.5 43t41.5 18q25 0 43 -18t18 -43q0 -24 -18 -42t-43 -18q-24 0 -41.5 18t-17.5 42z" />
    <glyph glyph-name="Gcommaaccent" unicode="&#x122;" horiz-adv-x="578" 
d="M510 222l-36 -226h-15l-34 48q-48 -54 -143 -54q-116 0 -174 67t-58 180q0 160 84.5 260t216.5 100q67 0 122 -25l66 25l-27 -166l-22 -5l-18 37q-24 50 -51 69.5t-73 19.5q-85 0 -141 -91t-56 -236q0 -190 142 -190q57 0 102 37l23 150l-71 23l12 32h206l3 -32z
M271 -146h-6q-7 -23 -32 -23q-24 0 -36.5 15t-12.5 37q0 26 17.5 42t42.5 16q35 0 55.5 -19.5t20.5 -52.5q0 -99 -140 -118l-8 20q99 29 99 83z" />
    <glyph glyph-name="gcommaaccent" unicode="&#x123;" horiz-adv-x="462" 
d="M134 69h119q149 0 149 -123q0 -86 -70 -126t-180 -40q-83 0 -132.5 28t-49.5 87q0 87 115 105v4q-28 5 -44.5 25.5t-16.5 51.5q0 38 27.5 61.5t74.5 29.5q-63 23 -63 106q0 72 53.5 120t137.5 48q48 0 151 -35q-6 7 -6 21q0 21 13 34t34 13t33.5 -14t12.5 -35
q0 -23 -16 -38t-43 -15q-42 0 -79 20v-9q43 -29 43 -88q0 -72 -56.5 -110.5t-125.5 -38.5q-33 0 -55 7q-63 -13 -63 -57q0 -32 37 -32zM124 -12q-36 -15 -53 -36.5t-17 -57.5q0 -33 28 -54t75 -21q71 0 118 24.5t47 78.5q0 66 -78 66h-120zM305 337q0 69 -61 69
q-39 0 -64.5 -38.5t-25.5 -110.5q0 -69 61 -69q39 0 64.5 38.5t25.5 110.5zM261 581h6q7 23 32 23q24 0 36.5 -15t12.5 -37q0 -26 -17.5 -42t-42.5 -16q-35 0 -55.5 19.5t-20.5 52.5q0 99 140 118l8 -20q-99 -29 -99 -83z" />
    <glyph glyph-name="Hcircumflex" unicode="&#x124;" horiz-adv-x="677" 
d="M475 588h229l3 -32l-79 -23l-76 -478l72 -23l-13 -32h-229l-2 32l77 23l35 221h-280l-35 -221l72 -23l-13 -32h-229l-2 32l77 23l76 478l-70 23l12 32h229l3 -32l-79 -23l-34 -211h280l34 211l-70 23zM431 765h14l112 -137h-88l-59 71l-88 -71h-51z" />
    <glyph glyph-name="hcircumflex" unicode="&#x125;" horiz-adv-x="497" 
d="M283 371q-40 0 -104 -48l-50 -323h-89l94 596l-50 46l2 11l135 28h16l-52 -324h4q57 89 138 89q41 0 69 -24.5t28 -72.5q0 -14 -4 -40l-43 -252q42 -14 80 28l15 -15q-11 -32 -38.5 -56t-70.5 -24q-72 0 -72 66q0 14 4 38l34 198q7 42 -4 60.5t-42 18.5zM220 841h14
l112 -137h-88l-59 71l-88 -71h-51z" />
    <glyph glyph-name="Hbar" unicode="&#x126;" horiz-adv-x="677" 
d="M475 588h229l3 -32l-79 -23l-9 -53h67l-8 -43h-66l-60 -382l72 -23l-13 -32h-229l-2 32l77 23l35 221h-280l-35 -221l72 -23l-13 -32h-229l-2 32l77 23l60 382h-61l8 43h60l9 53l-70 23l12 32h229l3 -32l-79 -23l-9 -53h280l9 53l-70 23zM219 322h280l18 115h-280z" />
    <glyph glyph-name="hbar" unicode="&#x127;" horiz-adv-x="497" 
d="M283 371q-40 0 -104 -48l-50 -323h-89l81 518h-66l6 34h66l7 44l-50 46l2 11l135 28h16l-21 -129h164l-6 -34h-163l-26 -161h4q57 89 138 89q41 0 69 -24.5t28 -72.5q0 -14 -4 -40l-43 -252q42 -14 80 28l15 -15q-11 -32 -38.5 -56t-70.5 -24q-72 0 -72 66q0 14 4 38
l34 198q7 42 -4 60.5t-42 18.5z" />
    <glyph glyph-name="Itilde" unicode="&#x128;" horiz-adv-x="302" 
d="M100 588h229l3 -32l-79 -23l-76 -478l72 -23l-13 -32h-229l-2 32l77 23l76 478l-70 23zM229 655l-32 23q-26 21 -56.5 8.5t-39.5 -53.5l-22 2q-9 40 13.5 76t60 44.5t81.5 -18.5l40 -29q13 -9 32 -10t37 14t22 46l22 -4q5 -27 -1.5 -51t-23 -40t-37.5 -24.5t-46.5 -4.5
t-49.5 21z" />
    <glyph glyph-name="itilde" unicode="&#x129;" horiz-adv-x="271" 
d="M166 531l-32 23q-26 21 -56.5 8.5t-39.5 -53.5l-22 2q-9 40 13.5 76t60 44.5t81.5 -18.5l40 -29q13 -9 32 -10t37 14t22 46l22 -4q5 -27 -1.5 -51t-23 -40t-37.5 -24.5t-46.5 -4.5t-49.5 21zM195 345l-49 -288q42 -14 80 28l15 -15q-11 -32 -38.5 -56t-70.5 -24
q-72 0 -72 66q0 14 4 38l49 287q-40 13 -78 -28l-15 15q11 32 38.5 55t70.5 23q70 0 70 -66q0 -11 -4 -35z" />
    <glyph glyph-name="Imacron" unicode="&#x12a;" horiz-adv-x="302" 
d="M100 588h229l3 -32l-79 -23l-76 -478l72 -23l-13 -32h-229l-2 32l77 23l76 478l-70 23zM356 653h-269l5 48h279z" />
    <glyph glyph-name="imacron" unicode="&#x12b;" horiz-adv-x="271" 
d="M276 513h-222l4 48h230zM195 345l-49 -288q42 -14 80 28l15 -15q-11 -32 -38.5 -56t-70.5 -24q-72 0 -72 66q0 14 4 38l49 287q-40 13 -78 -28l-15 15q11 32 38.5 55t70.5 23q70 0 70 -66q0 -11 -4 -35z" />
    <glyph glyph-name="Ibreve" unicode="&#x12c;" horiz-adv-x="302" 
d="M100 588h229l3 -32l-79 -23l-76 -478l72 -23l-13 -32h-229l-2 32l77 23l76 478l-70 23zM218 684q44 0 70.5 15.5t48.5 53.5h31q-14 -58 -54 -94.5t-104 -36.5q-56 0 -86.5 32t-30.5 78q0 11 1 21h27q10 -38 31.5 -53.5t65.5 -15.5z" />
    <glyph glyph-name="Iogonek" unicode="&#x12e;" horiz-adv-x="302" 
d="M-13 -122q0 81 95 122h-75l-2 32l77 23l76 478l-70 23l12 32h229l3 -32l-79 -23l-76 -478l72 -23l-13 -32h-60q-114 -32 -114 -105q0 -26 18.5 -43t48.5 -17q50 0 84 30l14 -18q-15 -30 -46.5 -48.5t-71.5 -18.5q-60 0 -91 27t-31 71z" />
    <glyph glyph-name="iogonek" unicode="&#x12f;" horiz-adv-x="272" 
d="M-9 -122q0 81 88 128q-19 16 -19 50q0 14 4 38l49 287q-40 13 -78 -28l-15 15q11 32 38.5 55t70.5 23q70 0 70 -66q0 -13 -4 -35l-5 -32q-7 -43 -22 -128t-22 -128q42 -14 80 28l15 -15q-17 -52 -87 -75q-88 -28 -88 -100q0 -26 18.5 -43t48.5 -17q50 0 84 30l14 -18
q-15 -30 -46.5 -48.5t-71.5 -18.5q-60 0 -91 27t-31 71zM114 575q0 26 18 44t44 18t44 -18t18 -44t-18 -44t-44 -18t-44 18t-18 44z" />
    <glyph glyph-name="Idotaccent" unicode="&#x130;" horiz-adv-x="302" 
d="M100 588h229l3 -32l-79 -23l-76 -478l72 -23l-13 -32h-229l-2 32l77 23l76 478l-70 23zM165 691q0 25 17.5 43t41.5 18q26 0 43.5 -18t17.5 -43q0 -24 -18 -42t-43 -18q-24 0 -41.5 18t-17.5 42z" />
    <glyph glyph-name="dotlessi" unicode="&#x131;" horiz-adv-x="271" 
d="M195 345l-49 -288q42 -14 80 28l15 -15q-11 -32 -38.5 -56t-70.5 -24q-72 0 -72 66q0 14 4 38l49 287q-40 13 -78 -28l-15 15q11 32 38.5 55t70.5 23q70 0 70 -66q0 -11 -4 -35z" />
    <glyph glyph-name="IJ" unicode="&#x132;" horiz-adv-x="598" 
d="M100 588h229l3 -32l-79 -23l-76 -478l72 -23l-13 -32h-229l-2 32l77 23l76 478l-70 23zM366 -39l91 572l-70 23l12 32h229l3 -32l-79 -23l-87 -546q-28 -176 -210 -176q-37 0 -59.5 15.5t-22.5 43.5q0 29 16 44t41 15t38 -14t13 -37q0 -20 -12 -34q78 0 97 117z" />
    <glyph glyph-name="ij" unicode="&#x133;" horiz-adv-x="534" 
d="M205 345l-49 -288q42 -14 80 28l15 -15q-11 -32 -38.5 -56t-70.5 -24q-72 0 -72 66q0 14 4 38l49 287q-40 13 -78 -28l-15 15q11 32 38.5 55t70.5 23q70 0 70 -66q0 -11 -4 -35zM124 575q0 26 18 44t44 18t44 -18t18 -44t-18 -44t-44 -18t-44 18t-18 44zM324 -84l80 465
q-40 13 -78 -28l-15 15q11 32 38.5 55t70.5 23q70 0 70 -66q0 -11 -4 -35l-62 -364q-36 -201 -188 -201q-34 0 -54.5 17t-20.5 43q0 27 15 41.5t39 14.5q22 0 34.5 -14t12.5 -36q0 -19 -13 -36q25 0 45.5 26.5t29.5 79.5zM405 575q0 26 18 44t44 18t44 -18t18 -44t-18 -44
t-44 -18t-44 18t-18 44z" />
    <glyph glyph-name="Jcircumflex" unicode="&#x134;" horiz-adv-x="296" 
d="M64 -39l91 572l-70 23l12 32h229l3 -32l-79 -23l-87 -546q-28 -176 -210 -176q-37 0 -59.5 15.5t-22.5 43.5q0 29 16 44t41 15t38 -14t13 -37q0 -20 -12 -34q78 0 97 117zM239 765h14l112 -137h-88l-59 71l-88 -71h-51z" />
    <glyph glyph-name="jcircumflex" unicode="&#x135;" horiz-adv-x="253" 
d="M43 -84l80 465q-40 13 -78 -28l-15 15q11 32 38.5 55t70.5 23q70 0 70 -66q0 -11 -4 -35l-62 -364q-36 -201 -188 -201q-34 0 -54.5 17t-20.5 43q0 27 15 41.5t39 14.5q22 0 34.5 -14t12.5 -36q0 -19 -13 -36q25 0 45.5 26.5t29.5 79.5zM191 659h14l106 -177h-84l-57 103
l-97 -103h-48z" />
    <glyph glyph-name="Kcommaaccent" unicode="&#x136;" horiz-adv-x="579" 
d="M219 322l60 8l195 205l-59 21l10 32h183l1 -33l-64 -19l-204 -210l151 -271l69 -22l-12 -33h-135l-148 282h-53l-36 -227l72 -23l-13 -32h-229l-2 32l77 23l76 478l-70 23l12 32h229l3 -32l-79 -23zM287 -146h-6q-7 -23 -32 -23q-24 0 -36.5 15t-12.5 37q0 26 17.5 42
t42.5 16q35 0 55.5 -19.5t20.5 -52.5q0 -99 -140 -118l-8 20q99 29 99 83z" />
    <glyph glyph-name="kcommaaccent" unicode="&#x137;" horiz-adv-x="451" 
d="M260 50l-59 155l-40 3l-32 -208h-89l94 596l-50 46l2 11l135 28h16l-70 -439l37 8l135 135l-54 22l7 29h167l7 -29l-67 -27l-133 -130l86 -198q15 -5 35 0.5t34 20.5l15 -15q-23 -68 -95 -68q-35 0 -52 14.5t-29 45.5zM202 -146h-6q-7 -23 -32 -23q-24 0 -36.5 15
t-12.5 37q0 26 17.5 42t42.5 16q35 0 55.5 -19.5t20.5 -52.5q0 -99 -140 -118l-8 20q99 29 99 83z" />
    <glyph glyph-name="kgreenlandic" unicode="&#x138;" horiz-adv-x="451" 
d="M260 50l-59 155l-40 3l-32 -208h-89l57 361l-50 46l2 11l135 28h16l-33 -204l41 6l122 141l-46 22v25h171l6 -25l-64 -24l-131 -137l86 -198q15 -5 35 0.5t34 20.5l15 -15q-23 -68 -95 -68q-35 0 -52 14.5t-29 45.5z" />
    <glyph glyph-name="Lacute" unicode="&#x139;" horiz-adv-x="499" 
d="M332 556l-79 -23l-75 -470l43 -17h123l110 161l25 -6l-54 -201h-418l-2 32l77 23l76 478l-70 23l12 32h229zM382 709l-129 -84l-15 19l95 118q26 34 56 3q30 -30 -7 -56z" />
    <glyph glyph-name="lacute" unicode="&#x13a;" horiz-adv-x="250" 
d="M49 94l78 502l-50 46l2 11l135 28h16l-99 -624q42 -14 80 28l15 -15q-11 -32 -38.5 -56t-70.5 -24q-72 0 -72 66q0 14 4 38zM280 781l-129 -84l-15 19l95 118q26 34 56 3q30 -30 -7 -56z" />
    <glyph glyph-name="Lcommaaccent" unicode="&#x13b;" horiz-adv-x="499" 
d="M332 556l-79 -23l-75 -470l43 -17h123l110 161l25 -6l-54 -201h-418l-2 32l77 23l76 478l-70 23l12 32h229zM246 -146h-6q-7 -23 -32 -23q-24 0 -36.5 15t-12.5 37q0 26 17.5 42t42.5 16q35 0 55.5 -19.5t20.5 -52.5q0 -99 -140 -118l-8 20q99 29 99 83z" />
    <glyph glyph-name="lcommaaccent" unicode="&#x13c;" horiz-adv-x="250" 
d="M49 94l78 502l-50 46l2 11l135 28h16l-99 -624q42 -14 80 28l15 -15q-11 -32 -38.5 -56t-70.5 -24q-72 0 -72 66q0 14 4 38zM114 -146h-6q-7 -23 -32 -23q-24 0 -36.5 15t-12.5 37q0 26 17.5 42t42.5 16q35 0 55.5 -19.5t20.5 -52.5q0 -99 -140 -118l-8 20q99 29 99 83z
" />
    <glyph glyph-name="Lcaron" unicode="&#x13d;" horiz-adv-x="499" 
d="M332 556l-79 -23l-75 -470l43 -17h123l110 161l25 -6l-54 -201h-418l-2 32l77 23l76 478l-70 23l12 32h229zM391 484l10 150q1 16 10.5 27t26.5 11q20 0 33 -10t13 -29q0 -11 -5 -21l-65 -132z" />
    <glyph glyph-name="lcaron" unicode="&#x13e;" horiz-adv-x="250" 
d="M49 94l78 502l-50 46l2 11l135 28h16l-99 -624q42 -14 80 28l15 -15q-11 -32 -38.5 -56t-70.5 -24q-72 0 -72 66q0 14 4 38zM267 484l10 150q1 16 10.5 27t26.5 11q20 0 33 -10t13 -29q0 -11 -5 -21l-65 -132z" />
    <glyph glyph-name="Ldot" unicode="&#x13f;" horiz-adv-x="499" 
d="M332 556l-79 -23l-75 -470l43 -17h123l110 161l25 -6l-54 -201h-418l-2 32l77 23l76 478l-70 23l12 32h229zM319 339q0 30 20 49.5t48 19.5t48.5 -20t20.5 -49t-20.5 -48.5t-48.5 -19.5t-48 19.5t-20 48.5z" />
    <glyph glyph-name="ldot" unicode="&#x140;" horiz-adv-x="352" 
d="M49 94l78 502l-50 46l2 11l135 28h16l-99 -624q42 -14 80 28l15 -15q-11 -32 -38.5 -56t-70.5 -24q-72 0 -72 66q0 14 4 38zM225 335q0 30 20 49.5t48 19.5t48.5 -20t20.5 -49t-20.5 -48.5t-48.5 -19.5t-48 19.5t-20 48.5z" />
    <glyph glyph-name="Lslash" unicode="&#x141;" horiz-adv-x="499" 
d="M332 556l-79 -23l-35 -215l148 68l-10 -52l-146 -68l-32 -203l43 -17h123l110 161l25 -6l-54 -201h-418l-2 32l77 23l26 167l-78 -36l10 51l76 36l42 260l-70 23l12 32h229z" />
    <glyph glyph-name="lslash" unicode="&#x142;" horiz-adv-x="256" 
d="M19 231l5 50l61 46l42 269l-50 46l2 11l135 28h16l-45 -283l71 54l-5 -50l-74 -56l-46 -289q42 -14 80 28l15 -15q-11 -32 -38.5 -56t-70.5 -24q-72 0 -72 66q0 14 4 38l28 181z" />
    <glyph glyph-name="Nacute" unicode="&#x143;" horiz-adv-x="634" 
d="M194 389l-53 -334l72 -23l-13 -32h-193l-2 32l77 23l76 478l-70 23l12 32h164l168 -341q18 -36 28.5 -68t11.5 -46l2 -14h4q2 64 13 133l45 281l-70 23l12 32h193l3 -32l-79 -23l-84 -533h-57l-204 396q-16 30 -25.5 57t-11.5 39l-2 11h-4q-1 -40 -13 -114zM479 709
l-129 -84l-15 19l95 118q26 34 56 3q30 -30 -7 -56z" />
    <glyph glyph-name="nacute" unicode="&#x144;" 
d="M317 94l34 198q7 42 -4 60.5t-42 18.5q-40 0 -104 -48l-55 -323h-89l66 381q-41 14 -79 -28l-14 15q11 32 38 55t70 23q81 0 65 -91h4q58 91 142 91q41 0 69 -24.5t28 -72.5q0 -14 -4 -40l-43 -252q42 -14 80 28l15 -15q-11 -32 -38.5 -56t-70.5 -24q-72 0 -72 66
q0 14 4 38zM391 590l-113 -100l-15 12l55 133q8 20 26.5 25.5t38.5 -6.5q21 -13 21.5 -33.5t-13.5 -30.5z" />
    <glyph glyph-name="Ncommaaccent" unicode="&#x145;" horiz-adv-x="634" 
d="M194 389l-53 -334l72 -23l-13 -32h-193l-2 32l77 23l76 478l-70 23l12 32h164l168 -341q18 -36 28.5 -68t11.5 -46l2 -14h4q2 64 13 133l45 281l-70 23l12 32h193l3 -32l-79 -23l-84 -533h-57l-204 396q-16 30 -25.5 57t-11.5 39l-2 11h-4q-1 -40 -13 -114zM325 -146h-6
q-7 -23 -32 -23q-24 0 -36.5 15t-12.5 37q0 26 17.5 42t42.5 16q35 0 55.5 -19.5t20.5 -52.5q0 -99 -140 -118l-8 20q99 29 99 83z" />
    <glyph glyph-name="ncommaaccent" unicode="&#x146;" 
d="M317 94l34 198q7 42 -4 60.5t-42 18.5q-40 0 -104 -48l-55 -323h-89l66 381q-41 14 -79 -28l-14 15q11 32 38 55t70 23q81 0 65 -91h4q58 91 142 91q41 0 69 -24.5t28 -72.5q0 -14 -4 -40l-43 -252q42 -14 80 28l15 -15q-11 -32 -38.5 -56t-70.5 -24q-72 0 -72 66
q0 14 4 38zM250 -146h-6q-7 -23 -32 -23q-24 0 -36.5 15t-12.5 37q0 26 17.5 42t42.5 16q35 0 55.5 -19.5t20.5 -52.5q0 -99 -140 -118l-8 20q99 29 99 83z" />
    <glyph glyph-name="Ncaron" unicode="&#x147;" horiz-adv-x="634" 
d="M194 389l-53 -334l72 -23l-13 -32h-193l-2 32l77 23l76 478l-70 23l12 32h164l168 -341q18 -36 28.5 -68t11.5 -46l2 -14h4q2 64 13 133l45 281l-70 23l12 32h193l3 -32l-79 -23l-84 -533h-57l-204 396q-16 30 -25.5 57t-11.5 39l-2 11h-4q-1 -40 -13 -114zM392 620h-14
l-112 137h88l59 -71l88 71h51z" />
    <glyph glyph-name="ncaron" unicode="&#x148;" 
d="M317 94l34 198q7 42 -4 60.5t-42 18.5q-40 0 -104 -48l-55 -323h-89l66 381q-41 14 -79 -28l-14 15q11 32 38 55t70 23q81 0 65 -91h4q58 91 142 91q41 0 69 -24.5t28 -72.5q0 -14 -4 -40l-43 -252q42 -14 80 28l15 -15q-11 -32 -38.5 -56t-70.5 -24q-72 0 -72 66
q0 14 4 38zM297 482h-14l-106 177h84l57 -103l97 103h48z" />
    <glyph glyph-name="Eng" unicode="&#x14a;" horiz-adv-x="634" 
d="M595 533l-87 -546q-15 -91 -55 -133.5t-121 -42.5q-90 0 -90 59q0 29 16 44t41 15t38 -14t13 -37q0 -20 -12 -34q42 0 70.5 29.5t38.5 85.5l7 41l-204 397q-16 30 -25.5 56.5t-11.5 38.5l-2 11h-4q-1 -40 -13 -114l-53 -334l72 -23l-13 -32h-193l-2 32l77 23l76 478
l-70 23l12 32h160l171 -344q18 -36 29 -68t12 -46l2 -13h4q2 64 13 133l45 283l-70 23l12 32h193l3 -32z" />
    <glyph glyph-name="eng" unicode="&#x14b;" horiz-adv-x="496" 
d="M285 -84l66 376q7 42 -4 60.5t-42 18.5q-40 0 -104 -48l-55 -323h-89l66 381q-41 14 -79 -28l-14 15q11 32 38 55t70 23q81 0 65 -91h4q58 91 142 91q41 0 69 -24.5t28 -72.5q0 -14 -4 -40l-57 -328q-36 -201 -188 -201q-34 0 -54.5 17t-20.5 43q0 27 15 41.5t39 14.5
q22 0 34.5 -14t12.5 -36q0 -19 -13 -36q25 0 45.5 26.5t29.5 79.5z" />
    <glyph glyph-name="Omacron" unicode="&#x14c;" horiz-adv-x="594" 
d="M349 553q-91 0 -144.5 -98.5t-53.5 -233.5q0 -86 31 -136t93 -50q91 0 144.5 98.5t53.5 233.5q0 86 -31 136t-93 50zM275 -10q-109 0 -167 69t-58 184q0 94 33.5 173.5t103 130.5t162.5 51q109 0 167 -69t58 -184q0 -94 -33.5 -173.5t-103 -130.5t-162.5 -51zM509 653
h-269l5 48h279z" />
    <glyph glyph-name="omacron" unicode="&#x14d;" horiz-adv-x="478" 
d="M214 32q55 0 88 62.5t38 142.5q1 11 1 32q0 135 -78 135q-55 0 -88 -62.5t-38 -142.5q-1 -11 -1 -32q0 -135 78 -135zM213 -10q-82 0 -126 52t-44 137q0 112 57.5 189.5t163.5 77.5q82 0 126 -52t44 -137q0 -112 -57.5 -189.5t-163.5 -77.5zM417 513h-269l5 48h279z" />
    <glyph glyph-name="Obreve" unicode="&#x14e;" horiz-adv-x="594" 
d="M349 553q-91 0 -144.5 -98.5t-53.5 -233.5q0 -86 31 -136t93 -50q91 0 144.5 98.5t53.5 233.5q0 86 -31 136t-93 50zM275 -10q-109 0 -167 69t-58 184q0 94 33.5 173.5t103 130.5t162.5 51q109 0 167 -69t58 -184q0 -94 -33.5 -173.5t-103 -130.5t-162.5 -51zM381 684
q44 0 70.5 15.5t48.5 53.5h31q-14 -58 -54 -94.5t-104 -36.5q-56 0 -86.5 32t-30.5 78q0 11 1 21h27q10 -38 31.5 -53.5t65.5 -15.5z" />
    <glyph glyph-name="obreve" unicode="&#x14f;" horiz-adv-x="478" 
d="M214 32q55 0 88 62.5t38 142.5q1 11 1 32q0 135 -78 135q-55 0 -88 -62.5t-38 -142.5q-1 -11 -1 -32q0 -135 78 -135zM213 -10q-82 0 -126 52t-44 137q0 112 57.5 189.5t163.5 77.5q82 0 126 -52t44 -137q0 -112 -57.5 -189.5t-163.5 -77.5zM293 560q46 0 75 20.5
t48 72.5h25q0 -70 -45 -114t-113 -44q-53 0 -84.5 30t-32.5 77q0 24 9 51h25q2 -51 24.5 -72t68.5 -21z" />
    <glyph glyph-name="Ohungarumlaut" unicode="&#x150;" horiz-adv-x="594" 
d="M349 553q-91 0 -144.5 -98.5t-53.5 -233.5q0 -86 31 -136t93 -50q91 0 144.5 98.5t53.5 233.5q0 86 -31 136t-93 50zM275 -10q-109 0 -167 69t-58 184q0 94 33.5 173.5t103 130.5t162.5 51q109 0 167 -69t58 -184q0 -94 -33.5 -173.5t-103 -130.5t-162.5 -51zM551 709
l-129 -84l-15 19l95 118q26 34 56 3q30 -30 -7 -56zM421 709l-129 -84l-15 19l95 118q26 34 56 3q30 -30 -7 -56z" />
    <glyph glyph-name="ohungarumlaut" unicode="&#x151;" horiz-adv-x="478" 
d="M214 32q55 0 88 62.5t38 142.5q1 11 1 32q0 135 -78 135q-55 0 -88 -62.5t-38 -142.5q-1 -11 -1 -32q0 -135 78 -135zM213 -10q-82 0 -126 52t-44 137q0 112 57.5 189.5t163.5 77.5q82 0 126 -52t44 -137q0 -112 -57.5 -189.5t-163.5 -77.5zM457 598l-107 -111l-19 15
l66 136q18 38 54 16q37 -23 6 -56zM327 598l-107 -111l-19 15l66 136q18 38 54 16q37 -23 6 -56z" />
    <glyph glyph-name="OE" unicode="&#x152;" horiz-adv-x="831" 
d="M275 -10q-109 0 -167 69t-58 184q0 94 33.5 173.5t103 130.5t162.5 51q37 0 75 -10h407l-25 -157l-22 -5l-56 116h-224q70 -68 70 -197q0 -16 -1 -23h56l53 88l22 -4l-34 -216l-22 -4l-25 90h-54q-23 -153 -124 -230h221l104 142l25 -6l-48 -182h-395q-40 -10 -77 -10z
M349 553q-91 0 -144.5 -98.5t-53.5 -233.5q0 -86 31 -136t93 -50q91 0 144.5 98.5t53.5 233.5q0 86 -31 136t-93 50z" />
    <glyph glyph-name="oe" unicode="&#x153;" horiz-adv-x="720" 
d="M695 335q0 -75 -68.5 -107.5t-199.5 -32.5q0 -145 98 -145q37 0 62.5 13.5t64.5 52.5l20 -17q-25 -57 -66.5 -83t-106.5 -26q-92 0 -134 67q-59 -67 -155 -67q-82 0 -126 52t-44 137q0 112 57.5 189.5t163.5 77.5q99 0 143 -78q65 78 163 78q61 0 94.5 -30t33.5 -81z
M211 32q55 0 88 62.5t38 142.5q1 11 1 32q0 135 -78 135q-55 0 -88 -62.5t-38 -142.5q-1 -11 -1 -32q0 -135 78 -135zM561 402q-46 0 -83 -48.5t-47 -121.5q95 2 139 27.5t44 82.5q0 60 -53 60z" />
    <glyph glyph-name="Racute" unicode="&#x154;" horiz-adv-x="562" 
d="M255 545l-38 -238h47q72 0 112 30t40 114q0 48 -23.5 71t-80.5 23h-57zM477 54l65 -26l-11 -28h-132l-96 217q-11 25 -31.5 37.5t-60.5 12.5l-34 -212l72 -23l-13 -32h-229l-2 32l77 23l76 478l-70 23l12 32h227q92 0 140 -32.5t48 -106.5q0 -77 -55 -123.5t-134 -46.5
v-4q30 -5 51.5 -24t38.5 -59zM412 709l-129 -84l-15 19l95 118q26 34 56 3q30 -30 -7 -56z" />
    <glyph glyph-name="racute" unicode="&#x155;" horiz-adv-x="390" 
d="M205 355l-6 -37h4q27 70 59.5 99t74.5 29q31 0 49.5 -17t18.5 -47t-17.5 -47.5t-46.5 -17.5q-55 0 -55 61q-39 -24 -97 -128l-43 -250h-89l66 381q-41 14 -79 -28l-14 15q11 32 38 55t70 23q80 0 67 -91zM328 590l-113 -100l-15 12l55 133q8 20 26.5 25.5t38.5 -6.5
q21 -13 21.5 -33.5t-13.5 -30.5z" />
    <glyph glyph-name="Rcommaaccent" unicode="&#x156;" horiz-adv-x="562" 
d="M255 545l-38 -238h47q72 0 112 30t40 114q0 48 -23.5 71t-80.5 23h-57zM477 54l65 -26l-11 -28h-132l-96 217q-11 25 -31.5 37.5t-60.5 12.5l-34 -212l72 -23l-13 -32h-229l-2 32l77 23l76 478l-70 23l12 32h227q92 0 140 -32.5t48 -106.5q0 -77 -55 -123.5t-134 -46.5
v-4q30 -5 51.5 -24t38.5 -59zM286 -146h-6q-7 -23 -32 -23q-24 0 -36.5 15t-12.5 37q0 26 17.5 42t42.5 16q35 0 55.5 -19.5t20.5 -52.5q0 -99 -140 -118l-8 20q99 29 99 83z" />
    <glyph glyph-name="rcommaaccent" unicode="&#x157;" horiz-adv-x="390" 
d="M205 355l-6 -37h4q27 70 59.5 99t74.5 29q31 0 49.5 -17t18.5 -47t-17.5 -47.5t-46.5 -17.5q-55 0 -55 61q-39 -24 -97 -128l-43 -250h-89l66 381q-41 14 -79 -28l-14 15q11 32 38 55t70 23q80 0 67 -91zM119 -146h-6q-7 -23 -32 -23q-24 0 -36.5 15t-12.5 37
q0 26 17.5 42t42.5 16q35 0 55.5 -19.5t20.5 -52.5q0 -99 -140 -118l-8 20q99 29 99 83z" />
    <glyph glyph-name="Rcaron" unicode="&#x158;" horiz-adv-x="562" 
d="M255 545l-38 -238h47q72 0 112 30t40 114q0 48 -23.5 71t-80.5 23h-57zM477 54l65 -26l-11 -28h-132l-96 217q-11 25 -31.5 37.5t-60.5 12.5l-34 -212l72 -23l-13 -32h-229l-2 32l77 23l76 478l-70 23l12 32h227q92 0 140 -32.5t48 -106.5q0 -77 -55 -123.5t-134 -46.5
v-4q30 -5 51.5 -24t38.5 -59zM325 620h-14l-112 137h88l59 -71l88 71h51z" />
    <glyph glyph-name="rcaron" unicode="&#x159;" horiz-adv-x="390" 
d="M205 355l-6 -37h4q27 70 59.5 99t74.5 29q31 0 49.5 -17t18.5 -47t-17.5 -47.5t-46.5 -17.5q-55 0 -55 61q-39 -24 -97 -128l-43 -250h-89l66 381q-41 14 -79 -28l-14 15q11 32 38 55t70 23q80 0 67 -91zM233 482h-14l-106 177h84l57 -103l97 103h48z" />
    <glyph glyph-name="Sacute" unicode="&#x15a;" horiz-adv-x="469" 
d="M214 32q50 0 83.5 28t33.5 78q0 44 -18 69.5t-65 46.5l-49 22q-106 48 -106 151q0 86 54 128.5t134 42.5q61 0 125 -17l48 17l-25 -160l-26 -6l-19 50q-28 76 -103 76q-49 0 -79 -27.5t-30 -77.5q0 -63 73 -96l60 -27q111 -50 111 -159q0 -93 -58 -137t-144 -44
q-17 0 -33 2t-26.5 3.5t-24 6t-18.5 6.5t-17.5 7.5t-14.5 6.5l-50 -32l11 186l28 6l28 -60q22 -46 47.5 -68t69.5 -22zM395 709l-129 -84l-15 19l95 118q26 34 56 3q30 -30 -7 -56z" />
    <glyph glyph-name="sacute" unicode="&#x15b;" horiz-adv-x="373" 
d="M90 56q19 -28 68 -28q87 0 87 63q0 29 -17 48t-60 47q-35 23 -52.5 36.5t-33.5 40t-16 57.5q0 61 43 93.5t114 32.5q57 0 93.5 -26.5t36.5 -64.5q0 -26 -14.5 -40t-36.5 -14q-24 0 -38 13t-14 34q0 29 26 38q-18 19 -53 19q-34 0 -56.5 -16t-22.5 -47q0 -22 14.5 -38
t54.5 -44q46 -32 64 -46.5t33.5 -39.5t15.5 -56q0 -128 -168 -128q-61 0 -99.5 28.5t-38.5 73.5q0 28 15.5 43.5t38.5 15.5q25 0 38.5 -14t13.5 -36q0 -19 -10.5 -31t-25.5 -14zM331 590l-113 -100l-15 12l55 133q8 20 26.5 25.5t38.5 -6.5q21 -13 21.5 -33.5t-13.5 -30.5z
" />
    <glyph glyph-name="Scircumflex" unicode="&#x15c;" horiz-adv-x="469" 
d="M214 32q50 0 83.5 28t33.5 78q0 44 -18 69.5t-65 46.5l-49 22q-106 48 -106 151q0 86 54 128.5t134 42.5q61 0 125 -17l48 17l-25 -160l-26 -6l-19 50q-28 76 -103 76q-49 0 -79 -27.5t-30 -77.5q0 -63 73 -96l60 -27q111 -50 111 -159q0 -93 -58 -137t-144 -44
q-17 0 -33 2t-26.5 3.5t-24 6t-18.5 6.5t-17.5 7.5t-14.5 6.5l-50 -32l11 186l28 6l28 -60q22 -46 47.5 -68t69.5 -22zM328 765h14l112 -137h-88l-59 71l-88 -71h-51z" />
    <glyph glyph-name="scircumflex" unicode="&#x15d;" horiz-adv-x="373" 
d="M90 56q19 -28 68 -28q87 0 87 63q0 29 -17 48t-60 47q-35 23 -52.5 36.5t-33.5 40t-16 57.5q0 61 43 93.5t114 32.5q57 0 93.5 -26.5t36.5 -64.5q0 -26 -14.5 -40t-36.5 -14q-24 0 -38 13t-14 34q0 29 26 38q-18 19 -53 19q-34 0 -56.5 -16t-22.5 -47q0 -22 14.5 -38
t54.5 -44q46 -32 64 -46.5t33.5 -39.5t15.5 -56q0 -128 -168 -128q-61 0 -99.5 28.5t-38.5 73.5q0 28 15.5 43.5t38.5 15.5q25 0 38.5 -14t13.5 -36q0 -19 -10.5 -31t-25.5 -14zM257 659h14l106 -177h-84l-57 103l-97 -103h-48z" />
    <glyph glyph-name="Scedilla" unicode="&#x15e;" horiz-adv-x="469" 
d="M93 -188l17 22q27 -23 63 -23q48 0 48 43q0 26 -15 38t-46 21l28 78q-48 4 -108 31l-50 -32l11 186l28 6l28 -60q22 -46 47.5 -68t69.5 -22q50 0 83.5 28t33.5 78q0 44 -18 69.5t-65 46.5l-49 22q-106 48 -106 151q0 86 54 128.5t134 42.5q61 0 125 -17l48 17l-25 -160
l-26 -6l-19 50q-28 76 -103 76q-49 0 -79 -27.5t-30 -77.5q0 -63 73 -96l60 -27q111 -50 111 -159q0 -91 -56 -135t-141 -46l-12 -32q84 -16 84 -92q0 -41 -31 -63.5t-81 -22.5q-59 0 -86 32z" />
    <glyph glyph-name="scedilla" unicode="&#x15f;" horiz-adv-x="373" 
d="M36 -188l17 22q27 -23 63 -23q48 0 48 43q0 26 -15 38t-46 21l28 79q-50 6 -80.5 33t-30.5 67q0 28 15.5 43.5t38.5 15.5q25 0 38.5 -14t13.5 -36q0 -19 -10.5 -31t-25.5 -14q19 -28 68 -28q87 0 87 63q0 29 -17 48t-60 47q-35 23 -52.5 36.5t-33.5 40t-16 57.5
q0 61 43 93.5t114 32.5q57 0 93.5 -26.5t36.5 -64.5q0 -26 -14.5 -40t-36.5 -14q-24 0 -38 13t-14 34q0 29 26 38q-18 19 -53 19q-34 0 -56.5 -16t-22.5 -47q0 -22 14.5 -38t54.5 -44q46 -32 64 -46.5t33.5 -39.5t15.5 -56q0 -126 -164 -128l-12 -32q84 -16 84 -92
q0 -41 -31 -63.5t-81 -22.5q-59 0 -86 32z" />
    <glyph glyph-name="Scaron" unicode="&#x160;" horiz-adv-x="469" 
d="M214 32q50 0 83.5 28t33.5 78q0 44 -18 69.5t-65 46.5l-49 22q-106 48 -106 151q0 86 54 128.5t134 42.5q61 0 125 -17l48 17l-25 -160l-26 -6l-19 50q-28 76 -103 76q-49 0 -79 -27.5t-30 -77.5q0 -63 73 -96l60 -27q111 -50 111 -159q0 -93 -58 -137t-144 -44
q-17 0 -33 2t-26.5 3.5t-24 6t-18.5 6.5t-17.5 7.5t-14.5 6.5l-50 -32l11 186l28 6l28 -60q22 -46 47.5 -68t69.5 -22zM309 620h-14l-112 137h88l59 -71l88 71h51z" />
    <glyph glyph-name="scaron" unicode="&#x161;" horiz-adv-x="373" 
d="M90 56q19 -28 68 -28q87 0 87 63q0 29 -17 48t-60 47q-35 23 -52.5 36.5t-33.5 40t-16 57.5q0 61 43 93.5t114 32.5q57 0 93.5 -26.5t36.5 -64.5q0 -26 -14.5 -40t-36.5 -14q-24 0 -38 13t-14 34q0 29 26 38q-18 19 -53 19q-34 0 -56.5 -16t-22.5 -47q0 -22 14.5 -38
t54.5 -44q46 -32 64 -46.5t33.5 -39.5t15.5 -56q0 -128 -168 -128q-61 0 -99.5 28.5t-38.5 73.5q0 28 15.5 43.5t38.5 15.5q25 0 38.5 -14t13.5 -36q0 -19 -10.5 -31t-25.5 -14zM237 482h-14l-106 177h84l57 -103l97 103h48z" />
    <glyph glyph-name="Tcommaaccent" unicode="&#x162;" horiz-adv-x="554" 
d="M104 35l108 20l77 487h-105l-92 -116l-22 5l25 157h499l-25 -157l-22 -5l-54 116h-109l-77 -487l102 -20l-13 -35h-289zM261 -146h-6q-7 -23 -32 -23q-24 0 -36.5 15t-12.5 37q0 26 17.5 42t42.5 16q35 0 55.5 -19.5t20.5 -52.5q0 -99 -140 -118l-8 20q99 29 99 83z" />
    <glyph glyph-name="tcommaaccent" unicode="&#x163;" horiz-adv-x="318" 
d="M55 389l5 26l141 138h27l-21 -117h131l-15 -47h-123l-44 -247q-5 -25 -5 -44q0 -44 55 -44q38 0 76 23l9 -19q-21 -31 -58.5 -49.5t-76.5 -18.5q-42 0 -69 22.5t-27 66.5q0 19 5 47l53 263h-63zM144 -146h-6q-7 -23 -32 -23q-24 0 -36.5 15t-12.5 37q0 26 17.5 42
t42.5 16q35 0 55.5 -19.5t20.5 -52.5q0 -99 -140 -118l-8 20q99 29 99 83z" />
    <glyph glyph-name="Tcaron" unicode="&#x164;" horiz-adv-x="554" 
d="M104 35l108 20l77 487h-105l-92 -116l-22 5l25 157h499l-25 -157l-22 -5l-54 116h-109l-77 -487l102 -20l-13 -35h-289zM357 620h-14l-112 137h88l59 -71l88 71h51z" />
    <glyph glyph-name="tcaron" unicode="&#x165;" horiz-adv-x="318" 
d="M55 389l5 26l141 138h27l-21 -117h131l-15 -47h-123l-44 -247q-5 -25 -5 -44q0 -44 55 -44q38 0 76 23l9 -19q-21 -31 -58.5 -49.5t-76.5 -18.5q-42 0 -69 22.5t-27 66.5q0 19 5 47l53 263h-63zM276 494l10 150q1 16 10.5 27t26.5 11q20 0 33 -10t13 -29q0 -11 -5 -21
l-65 -132z" />
    <glyph glyph-name="Tbar" unicode="&#x166;" horiz-adv-x="554" 
d="M144 276l8 46h102l35 220h-105l-92 -116l-22 5l25 157h499l-25 -157l-22 -5l-54 116h-109l-35 -220h104l-8 -46h-103l-35 -221l102 -20l-13 -35h-289l-3 35l108 20l35 221h-103z" />
    <glyph glyph-name="tbar" unicode="&#x167;" horiz-adv-x="318" 
d="M55 389l5 26l141 138h27l-21 -117h131l-15 -47h-123l-19 -104h133l-16 -43h-124l-18 -100q-5 -25 -5 -44q0 -44 55 -44q38 0 76 23l9 -19q-21 -31 -58.5 -49.5t-76.5 -18.5q-42 0 -69 22.5t-27 66.5q0 19 5 47l23 116h-59l8 43h60l21 104h-63z" />
    <glyph glyph-name="Utilde" unicode="&#x168;" horiz-adv-x="615" 
d="M586 533l-51 -323q-17 -108 -79 -164t-157 -56q-213 0 -213 170q0 26 5 58l49 315l-70 23l12 32h226l3 -32l-79 -23l-50 -313q-5 -31 -5 -56q0 -59 33.5 -90t94.5 -31q76 0 117.5 43t55.5 134l50 313l-70 23l12 32h192l3 -32zM392 655l-32 23q-26 21 -56.5 8.5
t-39.5 -53.5l-22 2q-9 40 13.5 76t60 44.5t81.5 -18.5l40 -29q13 -9 32 -10t37 14t22 46l22 -4q5 -27 -1.5 -51t-23 -40t-37.5 -24.5t-46.5 -4.5t-49.5 21z" />
    <glyph glyph-name="utilde" unicode="&#x169;" horiz-adv-x="510" 
d="M452 436l-66 -379q41 -14 79 28l15 -15q-11 -32 -38.5 -56t-70.5 -24q-80 0 -64 91h-4q-58 -91 -143 -91q-49 0 -77 33t-16 104l42 254q-41 14 -79 -28l-15 15q11 32 38.5 55t70.5 23q86 0 70 -91l-39 -228q-13 -72 37 -72q52 0 116 58l53 315zM283 531l-32 23
q-26 21 -56.5 8.5t-39.5 -53.5l-22 2q-9 40 13.5 76t60 44.5t81.5 -18.5l40 -29q13 -9 32 -10t37 14t22 46l22 -4q5 -27 -1.5 -51t-23 -40t-37.5 -24.5t-46.5 -4.5t-49.5 21z" />
    <glyph glyph-name="Umacron" unicode="&#x16a;" horiz-adv-x="615" 
d="M586 533l-51 -323q-17 -108 -79 -164t-157 -56q-213 0 -213 170q0 26 5 58l49 315l-70 23l12 32h226l3 -32l-79 -23l-50 -313q-5 -31 -5 -56q0 -59 33.5 -90t94.5 -31q76 0 117.5 43t55.5 134l50 313l-70 23l12 32h192l3 -32zM520 653h-269l5 48h279z" />
    <glyph glyph-name="umacron" unicode="&#x16b;" horiz-adv-x="510" 
d="M452 436l-66 -379q41 -14 79 28l15 -15q-11 -32 -38.5 -56t-70.5 -24q-80 0 -64 91h-4q-58 -91 -143 -91q-49 0 -77 33t-16 104l42 254q-41 14 -79 -28l-15 15q11 32 38.5 55t70.5 23q86 0 70 -91l-39 -228q-13 -72 37 -72q52 0 116 58l53 315zM409 513h-269l5 48h279z
" />
    <glyph glyph-name="Ubreve" unicode="&#x16c;" horiz-adv-x="615" 
d="M586 533l-51 -323q-17 -108 -79 -164t-157 -56q-213 0 -213 170q0 26 5 58l49 315l-70 23l12 32h226l3 -32l-79 -23l-50 -313q-5 -31 -5 -56q0 -59 33.5 -90t94.5 -31q76 0 117.5 43t55.5 134l50 313l-70 23l12 32h192l3 -32zM383 684q44 0 70.5 15.5t48.5 53.5h31
q-14 -58 -54 -94.5t-104 -36.5q-56 0 -86.5 32t-30.5 78q0 11 1 21h27q10 -38 31.5 -53.5t65.5 -15.5z" />
    <glyph glyph-name="ubreve" unicode="&#x16d;" horiz-adv-x="510" 
d="M452 436l-66 -379q41 -14 79 28l15 -15q-11 -32 -38.5 -56t-70.5 -24q-80 0 -64 91h-4q-58 -91 -143 -91q-49 0 -77 33t-16 104l42 254q-41 14 -79 -28l-15 15q11 32 38.5 55t70.5 23q86 0 70 -91l-39 -228q-13 -72 37 -72q52 0 116 58l53 315zM286 560q46 0 75 20.5
t48 72.5h25q0 -70 -45 -114t-113 -44q-53 0 -84.5 30t-32.5 77q0 24 9 51h25q2 -51 24.5 -72t68.5 -21z" />
    <glyph glyph-name="Uring" unicode="&#x16e;" horiz-adv-x="615" 
d="M586 533l-51 -323q-17 -108 -79 -164t-157 -56q-213 0 -213 170q0 26 5 58l49 315l-70 23l12 32h226l3 -32l-79 -23l-50 -313q-5 -31 -5 -56q0 -59 33.5 -90t94.5 -31q76 0 117.5 43t55.5 134l50 313l-70 23l12 32h192l3 -32zM307 698q0 41 28 69.5t72 28.5q37 0 60 -23
t23 -58q0 -41 -28.5 -69.5t-70.5 -28.5q-40 0 -62 22.5t-22 58.5zM402 755q-21 0 -35.5 -15.5t-14.5 -37.5q0 -21 12 -33.5t33 -12.5t34.5 15.5t13.5 37.5q0 21 -11.5 33.5t-31.5 12.5z" />
    <glyph glyph-name="uring" unicode="&#x16f;" horiz-adv-x="510" 
d="M452 436l-66 -379q41 -14 79 28l15 -15q-11 -32 -38.5 -56t-70.5 -24q-80 0 -64 91h-4q-58 -91 -143 -91q-49 0 -77 33t-16 104l42 254q-41 14 -79 -28l-15 15q11 32 38.5 55t70.5 23q86 0 70 -91l-39 -228q-13 -72 37 -72q52 0 116 58l53 315zM198 577q0 41 28 69.5
t72 28.5q37 0 60 -23t23 -58q0 -41 -28.5 -69.5t-70.5 -28.5q-40 0 -62 22.5t-22 58.5zM293 634q-21 0 -35.5 -15.5t-14.5 -37.5q0 -21 12 -33.5t33 -12.5t34.5 15.5t13.5 37.5q0 21 -11.5 33.5t-31.5 12.5z" />
    <glyph glyph-name="Uhungarumlaut" unicode="&#x170;" horiz-adv-x="615" 
d="M586 533l-51 -323q-17 -108 -79 -164t-157 -56q-213 0 -213 170q0 26 5 58l49 315l-70 23l12 32h226l3 -32l-79 -23l-50 -313q-5 -31 -5 -56q0 -59 33.5 -90t94.5 -31q76 0 117.5 43t55.5 134l50 313l-70 23l12 32h192l3 -32zM562 709l-129 -84l-15 19l95 118q26 34 56 3
q30 -30 -7 -56zM432 709l-129 -84l-15 19l95 118q26 34 56 3q30 -30 -7 -56z" />
    <glyph glyph-name="uhungarumlaut" unicode="&#x171;" horiz-adv-x="510" 
d="M452 436l-66 -379q41 -14 79 28l15 -15q-11 -32 -38.5 -56t-70.5 -24q-80 0 -64 91h-4q-58 -91 -143 -91q-49 0 -77 33t-16 104l42 254q-41 14 -79 -28l-15 15q11 32 38.5 55t70.5 23q86 0 70 -91l-39 -228q-13 -72 37 -72q52 0 116 58l53 315zM449 598l-107 -111l-19 15
l66 136q18 38 54 16q37 -23 6 -56zM319 598l-107 -111l-19 15l66 136q18 38 54 16q37 -23 6 -56z" />
    <glyph glyph-name="Uogonek" unicode="&#x172;" horiz-adv-x="615" 
d="M151 -122q0 75 83 117q-148 22 -148 165q0 26 5 58l49 315l-70 23l12 32h226l3 -32l-79 -23l-50 -313q-5 -31 -5 -56q0 -59 33.5 -90t94.5 -31q76 0 117.5 43t55.5 134l50 313l-70 23l12 32h192l3 -32l-79 -23l-51 -323q-17 -105 -75.5 -160.5t-148.5 -59.5
q-85 -32 -85 -95q0 -26 18.5 -43t48.5 -17q50 0 84 30l14 -18q-15 -30 -46.5 -48.5t-71.5 -18.5q-60 0 -91 27t-31 71z" />
    <glyph glyph-name="uogonek" unicode="&#x173;" horiz-adv-x="510" 
d="M208 -122q0 87 111 128q-22 22 -12 75h-4q-58 -91 -143 -91q-49 0 -77 33t-16 104l42 254q-41 14 -79 -28l-15 15q11 32 38.5 55t70.5 23q86 0 70 -91l-7 -38l-32 -190q-4 -19 -2 -39q5 -33 39 -33q52 0 116 58l53 315l91 8l-66 -379q41 -14 79 28l15 -15
q-18 -55 -104 -79q-93 -24 -93 -96q0 -26 18.5 -43t48.5 -17q50 0 84 30l14 -18q-15 -30 -46.5 -48.5t-71.5 -18.5q-60 0 -91 27t-31 71z" />
    <glyph glyph-name="Wcircumflex" unicode="&#x174;" horiz-adv-x="801" 
d="M477 0l-34 381q-2 34 -1 61.5t4 44.5l2 17h-4q-12 -62 -42 -125l-177 -379h-89l-29 532l-47 25l13 31h209l-1 -35l-82 -13l16 -342q1 -32 -1 -64.5t-5 -49.5l-3 -16h4q15 65 46 131l184 389h76l33 -378q3 -41 3 -72.5t-2 -50.5l-2 -19h4q20 76 50 143l143 322l-79 21
l12 34h182l1 -31l-54 -24l-241 -533h-89zM503 765h14l112 -137h-88l-59 71l-88 -71h-51z" />
    <glyph glyph-name="wcircumflex" unicode="&#x175;" horiz-adv-x="643" 
d="M321 432l63 6l35 -362q115 118 147 261q-8 -7 -26 -7q-25 0 -40 16.5t-15 39.5q0 26 18.5 43t43.5 17q33 0 52 -20t19 -57q0 -86 -66.5 -193.5t-149.5 -175.5h-57l-20 184q-3 23 -4 48t-1 38l1 13h-4q-17 -69 -63.5 -158.5t-81.5 -124.5h-65l-33 381q-41 14 -79 -28
l-15 15q11 32 38.5 55t70.5 23q40 0 54.5 -19t17.5 -62l22 -284q40 75 66 136t36 93t36 122zM397 659h14l106 -177h-84l-57 103l-97 -103h-48z" />
    <glyph glyph-name="Ycircumflex" unicode="&#x176;" horiz-adv-x="505" 
d="M190 537l67 -194q9 -26 13.5 -49t5.5 -33v-10h4q9 30 50 92l124 190l-80 21l12 34h183l1 -31l-54 -24l-210 -315l-26 -163l102 -20l-13 -35h-289l-3 35l108 20l26 163l-116 315l-45 24l13 31h208l-1 -34zM353 765h14l112 -137h-88l-59 71l-88 -71h-51z" />
    <glyph glyph-name="ycircumflex" unicode="&#x177;" horiz-adv-x="451" 
d="M14 -172q56 12 134 102l-62 451q-41 14 -79 -28l-15 15q10 31 40 54.5t74 23.5q40 0 55 -21t20 -64l38 -359q59 78 103 172t54 164q-8 -9 -25 -9q-28 0 -43 16.5t-15 39.5q0 28 17.5 44.5t45.5 16.5q31 0 50.5 -20t19.5 -57q0 -72 -44.5 -174.5t-109.5 -192.5t-144 -154
t-141 -64q-36 0 -56.5 17.5t-20.5 46.5q0 27 16 44t41 17q26 0 39.5 -16t13.5 -41q0 -15 -6 -24zM287 659h14l106 -177h-84l-57 103l-97 -103h-48z" />
    <glyph glyph-name="Ydieresis" unicode="&#x178;" horiz-adv-x="505" 
d="M190 537l67 -194q9 -26 13.5 -49t5.5 -33v-10h4q9 30 50 92l124 190l-80 21l12 34h183l1 -31l-54 -24l-210 -315l-26 -163l102 -20l-13 -35h-289l-3 35l108 20l26 163l-116 315l-45 24l13 31h208l-1 -34zM190 679q0 25 16 41.5t39 16.5q25 0 42 -16.5t17 -41.5
q0 -23 -17 -40t-42 -17q-22 0 -38.5 17t-16.5 40zM378 678q0 24 17 41t40 17q24 0 41 -16.5t17 -41.5q0 -23 -17 -40t-41 -17q-23 0 -40 17t-17 40z" />
    <glyph glyph-name="Zacute" unicode="&#x179;" 
d="M-5 12l360 459q18 23 34.5 41t24.5 25l7 7v4q-20 -3 -83 -3h-105l-109 -121l-25 4l44 160h404l2 -14l-361 -454q-19 -24 -36 -42t-24 -24l-7 -7v-4q23 3 86 3h135l118 126l23 -7l-56 -165h-428zM417 709l-129 -84l-15 19l95 118q26 34 56 3q30 -30 -7 -56z" />
    <glyph glyph-name="zacute" unicode="&#x17a;" horiz-adv-x="437" 
d="M49 -10l-39 9q10 63 52 116.5t89.5 84.5t101 69.5t76.5 70.5v5q-15 -3 -31 -3q-22 0 -63 6t-59 6q-68 0 -88 -58l-15 7q-2 71 30 107t84 36q42 0 91.5 -25t80.5 -28l30 53l38 -11q-9 -53 -38 -97t-67.5 -75.5t-77.5 -57.5t-79 -56.5t-61 -59.5v-4q15 8 46 8q23 0 61 -8.5
t59 -8.5q67 0 89 63l18 -7q3 -73 -29.5 -107.5t-90.5 -34.5q-48 0 -98 26t-83 30zM363 590l-113 -100l-15 12l55 133q8 20 26.5 25.5t38.5 -6.5q21 -13 21.5 -33.5t-13.5 -30.5z" />
    <glyph glyph-name="Zdotaccent" unicode="&#x17b;" 
d="M-5 12l360 459q18 23 34.5 41t24.5 25l7 7v4q-20 -3 -83 -3h-105l-109 -121l-25 4l44 160h404l2 -14l-361 -454q-19 -24 -36 -42t-24 -24l-7 -7v-4q23 3 86 3h135l118 126l23 -7l-56 -165h-428zM294 691q0 25 17.5 43t41.5 18q25 0 43 -18t18 -43q0 -24 -18 -42t-43 -18
q-24 0 -41.5 18t-17.5 42z" />
    <glyph glyph-name="zdotaccent" unicode="&#x17c;" horiz-adv-x="437" 
d="M49 -10l-39 9q10 63 52 116.5t89.5 84.5t101 69.5t76.5 70.5v5q-15 -3 -31 -3q-22 0 -63 6t-59 6q-68 0 -88 -58l-15 7q-2 71 30 107t84 36q42 0 91.5 -25t80.5 -28l30 53l38 -11q-9 -53 -38 -97t-67.5 -75.5t-77.5 -57.5t-79 -56.5t-61 -59.5v-4q15 8 46 8q23 0 61 -8.5
t59 -8.5q67 0 89 63l18 -7q3 -73 -29.5 -107.5t-90.5 -34.5q-48 0 -98 26t-83 30zM216 567q0 25 17.5 43t41.5 18q25 0 43 -18t18 -43q0 -24 -18 -42t-43 -18q-24 0 -41.5 18t-17.5 42z" />
    <glyph glyph-name="Zcaron" unicode="&#x17d;" 
d="M-5 12l360 459q18 23 34.5 41t24.5 25l7 7v4q-20 -3 -83 -3h-105l-109 -121l-25 4l44 160h404l2 -14l-361 -454q-19 -24 -36 -42t-24 -24l-7 -7v-4q23 3 86 3h135l118 126l23 -7l-56 -165h-428zM330 620h-14l-112 137h88l59 -71l88 71h51z" />
    <glyph glyph-name="zcaron" unicode="&#x17e;" horiz-adv-x="437" 
d="M49 -10l-39 9q10 63 52 116.5t89.5 84.5t101 69.5t76.5 70.5v5q-15 -3 -31 -3q-22 0 -63 6t-59 6q-68 0 -88 -58l-15 7q-2 71 30 107t84 36q42 0 91.5 -25t80.5 -28l30 53l38 -11q-9 -53 -38 -97t-67.5 -75.5t-77.5 -57.5t-79 -56.5t-61 -59.5v-4q15 8 46 8q23 0 61 -8.5
t59 -8.5q67 0 89 63l18 -7q3 -73 -29.5 -107.5t-90.5 -34.5q-48 0 -98 26t-83 30zM269 482h-14l-106 177h84l57 -103l97 103h48z" />
    <glyph glyph-name="Schwa" unicode="&#x18f;" horiz-adv-x="510" 
d="M30 128q0 99 103 153.5t252 45.5q0 89 -38 145t-104 56q-51 0 -89 -24.5t-74 -74.5l-21 23q56 145 211 145q96 0 153 -64t57 -188q0 -152 -80 -253.5t-210 -101.5q-76 0 -118 37t-42 101zM203 35q62 0 114.5 68t64.5 187q-122 -1 -186 -47.5t-64 -123.5q0 -35 16.5 -59.5
t54.5 -24.5z" />
    <glyph glyph-name="florin" unicode="&#x192;" horiz-adv-x="535" 
d="M112 275l10 39h109l24 95q47 189 188 189q48 0 80 -18t32 -58q0 -25 -15.5 -41.5t-38.5 -16.5t-38.5 14.5t-15.5 38.5q0 31 22 48q-12 3 -24 3q-39 0 -60 -38t-42 -121l-24 -95h123l-10 -39h-123l-49 -196q-48 -189 -188 -189q-48 0 -80 18t-32 58q0 25 15.5 41.5
t38.5 16.5t38.5 -14.5t15.5 -38.5q0 -31 -22 -48q12 -3 24 -3q39 0 60 38t42 121l49 196h-109z" />
    <glyph glyph-name="Khook" unicode="&#x198;" horiz-adv-x="579" 
d="M338 338l154 -283l69 -22l-12 -33h-135l-148 282h-53l-36 -227l72 -23l-13 -32h-229l-2 32l77 23l76 478l-70 23l12 32h229l3 -32l-79 -23l-34 -211l60 8l74 119q52 84 87 116.5t89 32.5q34 0 57 -18.5t23 -54.5q0 -25 -15.5 -41.5t-38.5 -16.5q-56 0 -56 45q0 24 15 35
v4q-28 -3 -51 -26.5t-62 -85.5z" />
    <glyph glyph-name="khook" unicode="&#x199;" horiz-adv-x="451" 
d="M316 686q48 0 80 -19t32 -59q0 -25 -15.5 -41.5t-38.5 -16.5t-38.5 14.5t-15.5 38.5q0 29 21 45q-12 3 -24 3q-85 0 -112 -170l-38 -239l41 6l122 141l-46 22v25h171l6 -25l-64 -24l-131 -137l86 -198q15 -5 35 0.5t34 20.5l15 -15q-23 -68 -95 -68q-35 0 -52 14.5
t-29 45.5l-59 155l-40 3l-32 -208h-89l75 477q16 106 72 157.5t129 51.5z" />
    <glyph glyph-name="Ezh" unicode="&#x1b7;" horiz-adv-x="475" 
d="M515 569l-276 -342l-1 -4q73 -17 109.5 -67.5t36.5 -120.5q0 -74 -39 -126.5t-95.5 -75.5t-121.5 -23q-86 0 -132 39t-46 91q0 33 19.5 51t48.5 18q30 0 44.5 -17.5t14.5 -40.5q0 -25 -14 -39.5t-36 -17.5q18 -44 101 -44q69 0 111 43.5t42 125.5q0 70 -37 108.5
t-116 61.5l-10 18l270 338h-187l-103 -121l-25 4l39 160h398z" />
    <glyph glyph-name="Acaron" unicode="&#x1cd;" horiz-adv-x="570" 
d="M411 51l-25 143h-220l-78 -139l79 -21l-12 -34h-184l-1 31l54 24l301 533h80l100 -533l45 -24l-13 -31h-209l1 34zM282 401l-90 -161h186l-28 162q-5 31 -7.5 60.5t-2.5 43.5v14h-4q-18 -54 -54 -119zM371 620h-14l-112 137h88l59 -71l88 71h51z" />
    <glyph glyph-name="acaron" unicode="&#x1ce;" horiz-adv-x="504" 
d="M304 135l42 245q-28 21 -67 21q-64 0 -106 -74t-42 -173q0 -103 62 -103q60 0 111 84zM298 77h-4q-37 -87 -127 -87q-63 0 -95 42t-32 119q0 119 69.5 207t169.5 88q49 0 86 -25l66 25h16l-67 -389q41 -14 79 28l15 -15q-11 -32 -38.5 -56t-70.5 -24q-78 0 -67 87z
M296 482h-14l-106 177h84l57 -103l97 103h48z" />
    <glyph glyph-name="Icaron" unicode="&#x1cf;" horiz-adv-x="302" 
d="M100 588h229l3 -32l-79 -23l-76 -478l72 -23l-13 -32h-229l-2 32l77 23l76 478l-70 23zM221 620h-14l-112 137h88l59 -71l88 71h51z" />
    <glyph glyph-name="icaron" unicode="&#x1d0;" horiz-adv-x="271" 
d="M164 482h-14l-106 177h84l57 -103l97 103h48zM195 345l-49 -288q42 -14 80 28l15 -15q-11 -32 -38.5 -56t-70.5 -24q-72 0 -72 66q0 14 4 38l49 287q-40 13 -78 -28l-15 15q11 32 38.5 55t70.5 23q70 0 70 -66q0 -11 -4 -35z" />
    <glyph glyph-name="Ocaron" unicode="&#x1d1;" horiz-adv-x="594" 
d="M349 553q-91 0 -144.5 -98.5t-53.5 -233.5q0 -86 31 -136t93 -50q91 0 144.5 98.5t53.5 233.5q0 86 -31 136t-93 50zM275 -10q-109 0 -167 69t-58 184q0 94 33.5 173.5t103 130.5t162.5 51q109 0 167 -69t58 -184q0 -94 -33.5 -173.5t-103 -130.5t-162.5 -51zM375 620
h-14l-112 137h88l59 -71l88 71h51z" />
    <glyph glyph-name="ocaron" unicode="&#x1d2;" horiz-adv-x="478" 
d="M214 32q55 0 88 62.5t38 142.5q1 11 1 32q0 135 -78 135q-55 0 -88 -62.5t-38 -142.5q-1 -11 -1 -32q0 -135 78 -135zM213 -10q-82 0 -126 52t-44 137q0 112 57.5 189.5t163.5 77.5q82 0 126 -52t44 -137q0 -112 -57.5 -189.5t-163.5 -77.5zM290 482h-14l-106 177h84
l57 -103l97 103h48z" />
    <glyph glyph-name="Ucaron" unicode="&#x1d3;" horiz-adv-x="615" 
d="M586 533l-51 -323q-17 -108 -79 -164t-157 -56q-213 0 -213 170q0 26 5 58l49 315l-70 23l12 32h226l3 -32l-79 -23l-50 -313q-5 -31 -5 -56q0 -59 33.5 -90t94.5 -31q76 0 117.5 43t55.5 134l50 313l-70 23l12 32h192l3 -32zM386 620h-14l-112 137h88l59 -71l88 71h51z
" />
    <glyph glyph-name="ucaron" unicode="&#x1d4;" horiz-adv-x="510" 
d="M452 436l-66 -379q41 -14 79 28l15 -15q-11 -32 -38.5 -56t-70.5 -24q-80 0 -64 91h-4q-58 -91 -143 -91q-49 0 -77 33t-16 104l42 254q-41 14 -79 -28l-15 15q11 32 38.5 55t70.5 23q86 0 70 -91l-39 -228q-13 -72 37 -72q52 0 116 58l53 315zM282 482h-14l-106 177h84
l57 -103l97 103h48z" />
    <glyph glyph-name="uni004100A800AF" unicode="&#x1de;" horiz-adv-x="570" 
d="M411 51l-25 143h-220l-78 -139l79 -21l-12 -34h-184l-1 31l54 24l301 533h80l100 -533l45 -24l-13 -31h-209l1 34zM282 401l-90 -161h186l-28 162q-5 31 -7.5 60.5t-2.5 43.5v14h-4q-18 -54 -54 -119zM532 777h-269l5 48h279zM418 668q0 24 17 41t40 17q24 0 41 -16.5
t17 -41.5q0 -23 -17 -40t-41 -17q-23 0 -40 17t-17 40zM230 669q0 25 16 41.5t39 16.5q25 0 42 -16.5t17 -41.5q0 -23 -17 -40t-42 -17q-22 0 -38.5 17t-16.5 40z" />
    <glyph glyph-name="adieresismacron" unicode="&#x1df;" horiz-adv-x="504" 
d="M304 135l42 245q-28 21 -67 21q-64 0 -106 -74t-42 -173q0 -103 62 -103q60 0 111 84zM298 77h-4q-37 -87 -127 -87q-63 0 -95 42t-32 119q0 119 69.5 207t169.5 88q49 0 86 -25l66 25h16l-67 -389q41 -14 79 28l15 -15q-11 -32 -38.5 -56t-70.5 -24q-78 0 -67 87z
M453 641h-269l5 48h279zM149 535q0 25 16 41.5t39 16.5q25 0 42 -16.5t17 -41.5q0 -23 -17 -40t-42 -17q-22 0 -38.5 17t-16.5 40zM337 534q0 24 16.5 41t40.5 17t41 -16.5t17 -41.5q0 -23 -17 -40t-41 -17q-23 0 -40 17t-17 40z" />
    <glyph glyph-name="AEmacron" unicode="&#x1e2;" horiz-adv-x="805" 
d="M392 205h-192l-112 -150l80 -21l-12 -34h-185l-1 31l54 24l354 478l-74 23l7 32h494l-25 -157l-22 -5l-56 116h-162l-35 -220h98l53 88l22 -4l-34 -216l-22 -4l-25 90h-99l-34 -213l33 -17h143l104 142l25 -6l-48 -182h-428l-2 32l77 23zM377 440l-142 -189h164l46 288
h-4q-26 -51 -64 -99zM706 653h-269l5 48h279z" />
    <glyph glyph-name="aemacron" unicode="&#x1e3;" horiz-adv-x="633" 
d="M606 335q0 -75 -68.5 -107.5t-199.5 -32.5q0 -145 98 -145q37 0 62.5 13.5t64.5 52.5l20 -17q-25 -57 -66.5 -83t-106.5 -26q-99 0 -141 79q-56 -79 -147 -79q-52 0 -82 27.5t-30 77.5q0 76 68 109.5t174 27.5q7 37 24 73q1 36 -21 56.5t-58 20.5q-63 0 -122 -45l-13 28
q67 81 161 81q81 0 110 -59q61 59 145 59q61 0 94.5 -30t33.5 -81zM472 402q-46 0 -83 -48.5t-47 -121.5q95 2 139 27.5t44 82.5q0 60 -53 60zM156 50q57 0 101 49q-10 31 -10 76v20q-74 -1 -109.5 -20.5t-35.5 -67.5q0 -24 13 -40.5t41 -16.5zM493 513h-269l5 48h279z" />
    <glyph glyph-name="Gstroke" unicode="&#x1e4;" horiz-adv-x="578" 
d="M510 222l-7 -44h63l-7 -39h-62l-23 -143h-15l-34 48q-48 -54 -143 -54q-116 0 -174 67t-58 180q0 160 84.5 260t216.5 100q67 0 122 -25l66 25l-27 -166l-22 -5l-18 37q-24 50 -51 69.5t-73 19.5q-85 0 -141 -91t-56 -236q0 -190 142 -190q57 0 102 37l10 67h-74l7 39h73
l7 44l-71 23l12 32h206l3 -32z" />
    <glyph glyph-name="gstroke" unicode="&#x1e5;" horiz-adv-x="462" 
d="M134 69h119q149 0 149 -123q0 -7 -2 -21h59l-5 -32h-61q-21 -58 -85.5 -85.5t-155.5 -27.5q-82 0 -131.5 27.5t-50.5 85.5h-52l5 32h52q18 61 110 75v4q-28 5 -44.5 25.5t-16.5 51.5q0 38 27.5 61.5t74.5 29.5q-63 23 -63 106q0 72 53.5 120t137.5 48q48 0 151 -35
q-6 7 -6 21q0 21 13 34t34 13t33.5 -14t12.5 -35q0 -23 -16 -38t-43 -15q-42 0 -79 20v-9q43 -29 43 -88q0 -72 -56.5 -110.5t-125.5 -38.5q-33 0 -55 7q-63 -13 -63 -57q0 -32 37 -32zM305 337q0 69 -61 69q-39 0 -64.5 -38.5t-25.5 -110.5q0 -69 61 -69q39 0 64.5 38.5
t25.5 110.5zM157 -181q135 0 160 74h-263q0 -32 28 -53t75 -21zM124 -12q-55 -22 -67 -63h265q-2 63 -78 63h-120z" />
    <glyph glyph-name="Gcaron" unicode="&#x1e6;" horiz-adv-x="578" 
d="M510 222l-36 -226h-15l-34 48q-48 -54 -143 -54q-116 0 -174 67t-58 180q0 160 84.5 260t216.5 100q67 0 122 -25l66 25l-27 -166l-22 -5l-18 37q-24 50 -51 69.5t-73 19.5q-85 0 -141 -91t-56 -236q0 -190 142 -190q57 0 102 37l23 150l-71 23l12 32h206l3 -32zM385 620
h-14l-112 137h88l59 -71l88 71h51z" />
    <glyph glyph-name="gcaron" unicode="&#x1e7;" horiz-adv-x="462" 
d="M134 69h119q149 0 149 -123q0 -86 -70 -126t-180 -40q-83 0 -132.5 28t-49.5 87q0 87 115 105v4q-28 5 -44.5 25.5t-16.5 51.5q0 38 27.5 61.5t74.5 29.5q-63 23 -63 106q0 72 53.5 120t137.5 48q48 0 151 -35q-6 7 -6 21q0 21 13 34t34 13t33.5 -14t12.5 -35
q0 -23 -16 -38t-43 -15q-42 0 -79 20v-9q43 -29 43 -88q0 -72 -56.5 -110.5t-125.5 -38.5q-33 0 -55 7q-63 -13 -63 -57q0 -32 37 -32zM124 -12q-36 -15 -53 -36.5t-17 -57.5q0 -33 28 -54t75 -21q71 0 118 24.5t47 78.5q0 66 -78 66h-120zM305 337q0 69 -61 69
q-39 0 -64.5 -38.5t-25.5 -110.5q0 -69 61 -69q39 0 64.5 38.5t25.5 110.5zM287 482h-14l-106 177h84l57 -103l97 103h48z" />
    <glyph glyph-name="Kcaron" unicode="&#x1e8;" horiz-adv-x="579" 
d="M219 322l60 8l195 205l-59 21l10 32h183l1 -33l-64 -19l-204 -210l151 -271l69 -22l-12 -33h-135l-148 282h-53l-36 -227l72 -23l-13 -32h-229l-2 32l77 23l76 478l-70 23l12 32h229l3 -32l-79 -23zM360 620h-14l-112 137h88l59 -71l88 71h51z" />
    <glyph glyph-name="kcaron" unicode="&#x1e9;" horiz-adv-x="451" 
d="M260 50l-59 155l-40 3l-32 -208h-89l94 596l-50 46l2 11l135 28h16l-70 -439l37 8l135 135l-54 22l7 29h167l7 -29l-67 -27l-133 -130l86 -198q15 -5 35 0.5t34 20.5l15 -15q-23 -68 -95 -68q-35 0 -52 14.5t-29 45.5zM203 710h-14l-112 137h88l59 -71l88 71h51z" />
    <glyph glyph-name="Oogonek" unicode="&#x1ea;" horiz-adv-x="594" 
d="M140 -122q0 74 84 117q-85 15 -129.5 81t-44.5 167q0 94 33.5 173.5t103 130.5t162.5 51q109 0 167 -69t58 -184q0 -138 -72 -240t-198 -113q-89 -32 -89 -97q0 -26 18.5 -43t48.5 -17q50 0 84 30l14 -18q-15 -30 -46.5 -48.5t-71.5 -18.5q-60 0 -91 27t-31 71zM349 553
q-91 0 -144.5 -98.5t-53.5 -233.5q0 -86 31 -136t93 -50q91 0 144.5 98.5t53.5 233.5q0 86 -31 136t-93 50z" />
    <glyph glyph-name="oogonek" unicode="&#x1eb;" horiz-adv-x="478" 
d="M70 -122q0 78 88 119q-56 16 -85.5 64.5t-29.5 117.5q0 112 57.5 189.5t163.5 77.5q82 0 126 -52t44 -137q0 -107 -52.5 -183.5t-150.5 -82.5q-86 -32 -86 -96q0 -26 18.5 -43t48.5 -17q50 0 84 30l14 -18q-15 -30 -46.5 -48.5t-71.5 -18.5q-60 0 -91 27t-31 71zM214 32
q55 0 88 62.5t38 142.5q1 11 1 32q0 135 -78 135q-55 0 -88 -62.5t-38 -142.5q-1 -11 -1 -32q0 -135 78 -135z" />
    <glyph glyph-name="uni004F02DB00AF" unicode="&#x1ec;" horiz-adv-x="594" 
d="M140 -122q0 74 84 117q-85 15 -129.5 81t-44.5 167q0 94 33.5 173.5t103 130.5t162.5 51q109 0 167 -69t58 -184q0 -138 -72 -240t-198 -113q-89 -32 -89 -97q0 -26 18.5 -43t48.5 -17q50 0 84 30l14 -18q-15 -30 -46.5 -48.5t-71.5 -18.5q-60 0 -91 27t-31 71zM349 553
q-91 0 -144.5 -98.5t-53.5 -233.5q0 -86 31 -136t93 -50q91 0 144.5 98.5t53.5 233.5q0 86 -31 136t-93 50zM509 653h-269l5 48h279z" />
    <glyph glyph-name="oogonekmacron" unicode="&#x1ed;" horiz-adv-x="478" 
d="M70 -122q0 78 88 119q-56 16 -85.5 64.5t-29.5 117.5q0 112 57.5 189.5t163.5 77.5q82 0 126 -52t44 -137q0 -107 -52.5 -183.5t-150.5 -82.5q-86 -32 -86 -96q0 -26 18.5 -43t48.5 -17q50 0 84 30l14 -18q-15 -30 -46.5 -48.5t-71.5 -18.5q-60 0 -91 27t-31 71zM214 32
q55 0 88 62.5t38 142.5q1 11 1 32q0 135 -78 135q-55 0 -88 -62.5t-38 -142.5q-1 -11 -1 -32q0 -135 78 -135zM417 513h-269l5 48h279z" />
    <glyph glyph-name="Ezhcaron" unicode="&#x1ee;" horiz-adv-x="475" 
d="M515 569l-276 -342l-1 -4q73 -17 109.5 -67.5t36.5 -120.5q0 -74 -39 -126.5t-95.5 -75.5t-121.5 -23q-86 0 -132 39t-46 91q0 33 19.5 51t48.5 18q30 0 44.5 -17.5t14.5 -40.5q0 -25 -14 -39.5t-36 -17.5q18 -44 101 -44q69 0 111 43.5t42 125.5q0 70 -37 108.5
t-116 61.5l-10 18l270 338h-187l-103 -121l-25 4l39 160h398zM318 620h-14l-112 137h88l59 -71l88 71h51z" />
    <glyph glyph-name="ezhcaron" unicode="&#x1ef;" horiz-adv-x="426" 
d="M401 422l-208 -269v-4q73 -4 110.5 -44.5t37.5 -104.5q0 -90 -64.5 -140t-155.5 -50q-69 0 -110 31.5t-41 76.5q0 29 18.5 46.5t43.5 17.5t38 -15.5t13 -37.5q0 -21 -12 -35t-32 -16q18 -34 81 -34q54 0 93 34.5t39 98.5q0 126 -161 137l-9 17l196 262h-141l-87 -101
l-21 4l27 140h341zM253 482h-14l-106 177h84l57 -103l97 103h48z" />
    <glyph glyph-name="jcaron" unicode="&#x1f0;" horiz-adv-x="253" 
d="M171 482h-14l-106 177h84l57 -103l97 103h48zM43 -84l80 465q-40 13 -78 -28l-15 15q11 32 38.5 55t70.5 23q70 0 70 -66q0 -11 -4 -35l-62 -364q-36 -201 -188 -201q-34 0 -54.5 17t-20.5 43q0 27 15 41.5t39 14.5q22 0 34.5 -14t12.5 -36q0 -19 -13 -36q25 0 45.5 26.5
t29.5 79.5z" />
    <glyph glyph-name="jcaron" unicode="&#xe10c;" horiz-adv-x="253" 
d="M171 482h-14l-106 177h84l57 -103l97 103h48zM43 -84l80 465q-40 13 -78 -28l-15 15q11 32 38.5 55t70.5 23q70 0 70 -66q0 -11 -4 -35l-62 -364q-36 -201 -188 -201q-34 0 -54.5 17t-20.5 43q0 27 15 41.5t39 14.5q22 0 34.5 -14t12.5 -36q0 -19 -13 -36q25 0 45.5 26.5
t29.5 79.5z" />
    <glyph glyph-name="Gacute" unicode="&#x1f4;" horiz-adv-x="578" 
d="M510 222l-36 -226h-15l-34 48q-48 -54 -143 -54q-116 0 -174 67t-58 180q0 160 84.5 260t216.5 100q67 0 122 -25l66 25l-27 -166l-22 -5l-18 37q-24 50 -51 69.5t-73 19.5q-85 0 -141 -91t-56 -236q0 -190 142 -190q57 0 102 37l23 150l-71 23l12 32h206l3 -32zM471 709
l-129 -84l-15 19l95 118q26 34 56 3q30 -30 -7 -56z" />
    <glyph glyph-name="gacute" unicode="&#x1f5;" horiz-adv-x="462" 
d="M134 69h119q149 0 149 -123q0 -86 -70 -126t-180 -40q-83 0 -132.5 28t-49.5 87q0 87 115 105v4q-28 5 -44.5 25.5t-16.5 51.5q0 38 27.5 61.5t74.5 29.5q-63 23 -63 106q0 72 53.5 120t137.5 48q48 0 151 -35q-6 7 -6 21q0 21 13 34t34 13t33.5 -14t12.5 -35
q0 -23 -16 -38t-43 -15q-42 0 -79 20v-9q43 -29 43 -88q0 -72 -56.5 -110.5t-125.5 -38.5q-33 0 -55 7q-63 -13 -63 -57q0 -32 37 -32zM124 -12q-36 -15 -53 -36.5t-17 -57.5q0 -33 28 -54t75 -21q71 0 118 24.5t47 78.5q0 66 -78 66h-120zM305 337q0 69 -61 69
q-39 0 -64.5 -38.5t-25.5 -110.5q0 -69 61 -69q39 0 64.5 38.5t25.5 110.5zM382 590l-113 -100l-15 12l55 133q8 20 26.5 25.5t38.5 -6.5q21 -13 21.5 -33.5t-13.5 -30.5z" />
    <glyph glyph-name="Ngrave" unicode="&#x1f8;" horiz-adv-x="634" 
d="M194 389l-53 -334l72 -23l-13 -32h-193l-2 32l77 23l76 478l-70 23l12 32h164l168 -341q18 -36 28.5 -68t11.5 -46l2 -14h4q2 64 13 133l45 281l-70 23l12 32h193l3 -32l-79 -23l-84 -533h-57l-204 396q-16 30 -25.5 57t-11.5 39l-2 11h-4q-1 -40 -13 -114zM429 625
l-129 84q-37 26 -7 56q30 31 56 -3l95 -118z" />
    <glyph glyph-name="ngrave" unicode="&#x1f9;" 
d="M317 94l34 198q7 42 -4 60.5t-42 18.5q-40 0 -104 -48l-55 -323h-89l66 381q-41 14 -79 -28l-14 15q11 32 38 55t70 23q81 0 65 -91h4q58 91 142 91q41 0 69 -24.5t28 -72.5q0 -14 -4 -40l-43 -252q42 -14 80 28l15 -15q-11 -32 -38.5 -56t-70.5 -24q-72 0 -72 66
q0 14 4 38zM333 490l-113 100q-14 10 -13.5 30.5t21.5 33.5q20 12 38.5 6.5t26.5 -25.5l55 -133z" />
    <glyph glyph-name="uni004102DA00B4" unicode="&#x1fa;" horiz-adv-x="570" 
d="M411 51l-25 143h-220l-78 -139l79 -21l-12 -34h-184l-1 31l54 24l301 533h80l100 -533l45 -24l-13 -31h-209l1 34zM282 401l-90 -161h186l-28 162q-5 31 -7.5 60.5t-2.5 43.5v14h-4q-18 -54 -54 -119zM294 686q0 37 27.5 62.5t70.5 25.5q37 0 59 -20.5t22 -51.5
q0 -36 -28 -62t-69 -26q-39 0 -60.5 20t-21.5 52zM470 828l-144 -39l-8 20l117 89q14 12 32.5 9.5t29.5 -22.5q11 -23 1.5 -38t-28.5 -19zM387 737q-21 0 -35 -13.5t-14 -33.5q0 -19 12 -30t32 -11t33.5 13.5t13.5 33.5q0 19 -11.5 30t-30.5 11z" />
    <glyph glyph-name="aringacute" unicode="&#x1fb;" horiz-adv-x="504" 
d="M224 551q0 37 27.5 62.5t70.5 25.5q37 0 59 -20.5t22 -51.5q0 -36 -28 -62t-69 -26q-39 0 -60.5 20t-21.5 52zM317 602q-21 0 -35 -13.5t-14 -33.5q0 -19 12 -30t32 -11t33.5 13.5t13.5 33.5q0 19 -11.5 30t-30.5 11zM400 693l-144 -39l-8 20l117 89q14 12 32.5 9.5
t29.5 -22.5q11 -23 1.5 -38t-28.5 -19zM304 135l42 245q-28 21 -67 21q-64 0 -106 -74t-42 -173q0 -103 62 -103q60 0 111 84zM298 77h-4q-37 -87 -127 -87q-63 0 -95 42t-32 119q0 119 69.5 207t169.5 88q49 0 86 -25l66 25h16l-67 -389q41 -14 79 28l15 -15
q-11 -32 -38.5 -56t-70.5 -24q-78 0 -67 87z" />
    <glyph glyph-name="AEacute" unicode="&#x1fc;" horiz-adv-x="805" 
d="M392 205h-192l-112 -150l80 -21l-12 -34h-185l-1 31l54 24l354 478l-74 23l7 32h494l-25 -157l-22 -5l-56 116h-162l-35 -220h98l53 88l22 -4l-34 -216l-22 -4l-25 90h-99l-34 -213l33 -17h143l104 142l25 -6l-48 -182h-428l-2 32l77 23zM377 440l-142 -189h164l46 288
h-4q-26 -51 -64 -99zM659 709l-129 -84l-15 19l95 118q26 34 56 3q30 -30 -7 -56z" />
    <glyph glyph-name="aeacute" unicode="&#x1fd;" horiz-adv-x="633" 
d="M606 335q0 -75 -68.5 -107.5t-199.5 -32.5q0 -145 98 -145q37 0 62.5 13.5t64.5 52.5l20 -17q-25 -57 -66.5 -83t-106.5 -26q-99 0 -141 79q-56 -79 -147 -79q-52 0 -82 27.5t-30 77.5q0 76 68 109.5t174 27.5q7 37 24 73q1 36 -21 56.5t-58 20.5q-63 0 -122 -45l-13 28
q67 81 161 81q81 0 110 -59q61 59 145 59q61 0 94.5 -30t33.5 -81zM472 402q-46 0 -83 -48.5t-47 -121.5q95 2 139 27.5t44 82.5q0 60 -53 60zM156 50q57 0 101 49q-10 31 -10 76v20q-74 -1 -109.5 -20.5t-35.5 -67.5q0 -24 13 -40.5t41 -16.5zM460 590l-113 -100l-15 12
l55 133q8 20 26.5 25.5t38.5 -6.5q21 -13 21.5 -33.5t-13.5 -30.5z" />
    <glyph glyph-name="Oslashacute" unicode="&#x1fe;" horiz-adv-x="609" 
d="M275 -10q-93 0 -149 50l-56 -69h-55l81 102q-46 64 -46 170q0 94 33.5 173.5t103 130.5t162.5 51q80 0 136 -40l48 60h56l-72 -90q57 -66 57 -183q0 -94 -33.5 -173.5t-103 -130.5t-162.5 -51zM473 367q0 52 -12 91l-287 -358q32 -65 101 -65q91 0 144.5 98.5t53.5 233.5
zM349 553q-91 0 -144.5 -98.5t-53.5 -233.5q0 -41 7 -72l283 355q-32 49 -92 49zM454 709l-129 -84l-15 19l95 118q26 34 56 3q30 -30 -7 -56z" />
    <glyph glyph-name="oslashacute" unicode="&#x1ff;" horiz-adv-x="478" 
d="M213 -10q-63 0 -102 30l-37 -49h-49l58 76q-40 50 -40 132q0 112 57.5 189.5t163.5 77.5q59 0 99 -28l36 48h49l-57 -75q43 -51 43 -134q0 -112 -57.5 -189.5t-163.5 -77.5zM214 32q55 0 88 62.5t38 142.5q1 11 1 32q0 31 -4 51l-186 -247q18 -41 63 -41zM136 167
q0 -32 2 -46l186 245q-20 38 -61 38q-55 0 -88 -62.5t-38 -142.5q-1 -11 -1 -32zM389 590l-113 -100l-15 12l55 133q8 20 26.5 25.5t38.5 -6.5q21 -13 21.5 -33.5t-13.5 -30.5z" />
    <glyph glyph-name="Adoublegrave" unicode="&#x200;" horiz-adv-x="570" 
d="M411 51l-25 143h-220l-78 -139l79 -21l-12 -34h-184l-1 31l54 24l301 533h80l100 -533l45 -24l-13 -31h-209l1 34zM282 401l-90 -161h186l-28 162q-5 31 -7.5 60.5t-2.5 43.5v14h-4q-18 -54 -54 -119zM328 625l-129 84q-37 26 -7 56q30 31 56 -3l95 -118zM458 625
l-129 84q-37 26 -7 56q30 31 56 -3l95 -118z" />
    <glyph glyph-name="edoublegrave" unicode="&#x201;" horiz-adv-x="424" 
d="M399 335q0 -75 -68.5 -107.5t-199.5 -32.5q0 -145 98 -145q37 0 62.5 13.5t64.5 52.5l20 -17q-25 -57 -66.5 -83t-106.5 -26q-74 0 -118.5 47.5t-44.5 137.5q0 65 26 126t80.5 103t124.5 42q61 0 94.5 -30t33.5 -81zM265 402q-46 0 -83 -48.5t-47 -121.5q95 2 139 27.5
t44 82.5q0 60 -53 60zM220 487l-107 111q-31 33 6 56q36 22 54 -16l66 -136zM350 487l-107 111q-31 33 6 56q36 22 54 -16l66 -136z" />
    <glyph glyph-name="edoublegrave" unicode="&#x205;" horiz-adv-x="424" 
d="M399 335q0 -75 -68.5 -107.5t-199.5 -32.5q0 -145 98 -145q37 0 62.5 13.5t64.5 52.5l20 -17q-25 -57 -66.5 -83t-106.5 -26q-74 0 -118.5 47.5t-44.5 137.5q0 65 26 126t80.5 103t124.5 42q61 0 94.5 -30t33.5 -81zM265 402q-46 0 -83 -48.5t-47 -121.5q95 2 139 27.5
t44 82.5q0 60 -53 60zM220 487l-107 111q-31 33 6 56q36 22 54 -16l66 -136zM350 487l-107 111q-31 33 6 56q36 22 54 -16l66 -136z" />
    <glyph glyph-name="Ainvertedbreve" unicode="&#x202;" horiz-adv-x="570" 
d="M411 51l-25 143h-220l-78 -139l79 -21l-12 -34h-184l-1 31l54 24l301 533h80l100 -533l45 -24l-13 -31h-209l1 34zM282 401l-90 -161h186l-28 162q-5 31 -7.5 60.5t-2.5 43.5v14h-4q-18 -54 -54 -119zM378 669q-44 0 -70.5 -15.5t-48.5 -53.5h-31q14 58 54 94.5t104 36.5
q56 0 86.5 -32t30.5 -78q0 -11 -1 -21h-27q-10 38 -31.5 53.5t-65.5 15.5z" />
    <glyph glyph-name="ainvertedbreve" unicode="&#x203;" horiz-adv-x="504" 
d="M304 135l42 245q-28 21 -67 21q-64 0 -106 -74t-42 -173q0 -103 62 -103q60 0 111 84zM298 77h-4q-37 -87 -127 -87q-63 0 -95 42t-32 119q0 119 69.5 207t169.5 88q49 0 86 -25l66 25h16l-67 -389q41 -14 79 28l15 -15q-11 -32 -38.5 -56t-70.5 -24q-78 0 -67 87z
M312 585q-46 0 -75 -20.5t-48 -72.5h-25q0 70 45 114t113 44q53 0 84.5 -30t32.5 -77q0 -24 -9 -51h-25q-2 51 -24.5 72t-68.5 21z" />
    <glyph glyph-name="Edoublegrave" unicode="&#x204;" 
d="M311 276h-99l-34 -213l33 -17h143l104 142l25 -6l-48 -182h-428l-2 32l77 23l76 478l-70 23l12 32h419l-25 -157l-22 -5l-56 116h-162l-35 -220h98l53 88l22 -4l-34 -216l-22 -4zM280 625l-129 84q-37 26 -7 56q30 31 56 -3l95 -118zM410 625l-129 84q-37 26 -7 56
q30 31 56 -3l95 -118z" />
    <glyph glyph-name="Einvertedbreve" unicode="&#x206;" 
d="M311 276h-99l-34 -213l33 -17h143l104 142l25 -6l-48 -182h-428l-2 32l77 23l76 478l-70 23l12 32h419l-25 -157l-22 -5l-56 116h-162l-35 -220h98l53 88l22 -4l-34 -216l-22 -4zM347 691q-44 0 -70.5 -15.5t-48.5 -53.5h-31q14 58 54 94.5t104 36.5q56 0 86.5 -32
t30.5 -78q0 -11 -1 -21h-27q-10 38 -31.5 53.5t-65.5 15.5z" />
    <glyph glyph-name="einvertedbreve" unicode="&#x207;" horiz-adv-x="424" 
d="M399 335q0 -75 -68.5 -107.5t-199.5 -32.5q0 -145 98 -145q37 0 62.5 13.5t64.5 52.5l20 -17q-25 -57 -66.5 -83t-106.5 -26q-74 0 -118.5 47.5t-44.5 137.5q0 65 26 126t80.5 103t124.5 42q61 0 94.5 -30t33.5 -81zM265 402q-46 0 -83 -48.5t-47 -121.5q95 2 139 27.5
t44 82.5q0 60 -53 60zM290 585q-46 0 -75 -20.5t-48 -72.5h-25q0 70 45 114t113 44q53 0 84.5 -30t32.5 -77q0 -24 -9 -51h-25q-2 51 -24.5 72t-68.5 21z" />
    <glyph glyph-name="Idoublegrave" unicode="&#x208;" horiz-adv-x="302" 
d="M100 588h229l3 -32l-79 -23l-76 -478l72 -23l-13 -32h-229l-2 32l77 23l76 478l-70 23zM176 625l-129 84q-37 26 -7 56q30 31 56 -3l95 -118zM306 625l-129 84q-37 26 -7 56q30 31 56 -3l95 -118z" />
    <glyph glyph-name="idoublegrave" unicode="&#x209;" horiz-adv-x="271" 
d="M195 345l-49 -288q42 -14 80 28l15 -15q-11 -32 -38.5 -56t-70.5 -24q-72 0 -72 66q0 14 4 38l49 287q-40 13 -78 -28l-15 15q11 32 38.5 55t70.5 23q70 0 70 -66q0 -11 -4 -35zM110 487l-107 111q-31 33 6 56q36 22 54 -16l66 -136zM240 487l-107 111q-31 33 6 56
q36 22 54 -16l66 -136z" />
    <glyph glyph-name="Iinvertedbreve" unicode="&#x20a;" horiz-adv-x="302" 
d="M100 588h229l3 -32l-79 -23l-76 -478l72 -23l-13 -32h-229l-2 32l77 23l76 478l-70 23zM243 691q-44 0 -70.5 -15.5t-48.5 -53.5h-31q14 58 54 94.5t104 36.5q56 0 86.5 -32t30.5 -78q0 -11 -1 -21h-27q-10 38 -31.5 53.5t-65.5 15.5z" />
    <glyph glyph-name="iinvertedbreve" unicode="&#x20b;" horiz-adv-x="271" 
d="M195 345l-49 -288q42 -14 80 28l15 -15q-11 -32 -38.5 -56t-70.5 -24q-72 0 -72 66q0 14 4 38l49 287q-40 13 -78 -28l-15 15q11 32 38.5 55t70.5 23q70 0 70 -66q0 -11 -4 -35zM159 585q-46 0 -75 -20.5t-48 -72.5h-25q0 70 45 114t113 44q53 0 84.5 -30t32.5 -77
q0 -24 -9 -51h-25q-2 51 -24.5 72t-68.5 21z" />
    <glyph glyph-name="Odoublegrave" unicode="&#x20c;" horiz-adv-x="594" 
d="M349 553q-91 0 -144.5 -98.5t-53.5 -233.5q0 -86 31 -136t93 -50q91 0 144.5 98.5t53.5 233.5q0 86 -31 136t-93 50zM275 -10q-109 0 -167 69t-58 184q0 94 33.5 173.5t103 130.5t162.5 51q109 0 167 -69t58 -184q0 -94 -33.5 -173.5t-103 -130.5t-162.5 -51zM329 625
l-129 84q-37 26 -7 56q30 31 56 -3l95 -118zM459 625l-129 84q-37 26 -7 56q30 31 56 -3l95 -118z" />
    <glyph glyph-name="odoublegrave" unicode="&#x20d;" horiz-adv-x="478" 
d="M214 32q55 0 88 62.5t38 142.5q1 11 1 32q0 135 -78 135q-55 0 -88 -62.5t-38 -142.5q-1 -11 -1 -32q0 -135 78 -135zM213 -10q-82 0 -126 52t-44 137q0 112 57.5 189.5t163.5 77.5q82 0 126 -52t44 -137q0 -112 -57.5 -189.5t-163.5 -77.5zM236 487l-107 111
q-31 33 6 56q36 22 54 -16l66 -136zM366 487l-107 111q-31 33 6 56q36 22 54 -16l66 -136z" />
    <glyph glyph-name="Oinvertedbreve" unicode="&#x20e;" horiz-adv-x="594" 
d="M349 553q-91 0 -144.5 -98.5t-53.5 -233.5q0 -86 31 -136t93 -50q91 0 144.5 98.5t53.5 233.5q0 86 -31 136t-93 50zM275 -10q-109 0 -167 69t-58 184q0 94 33.5 173.5t103 130.5t162.5 51q109 0 167 -69t58 -184q0 -94 -33.5 -173.5t-103 -130.5t-162.5 -51zM384 691
q-44 0 -70.5 -15.5t-48.5 -53.5h-31q14 58 54 94.5t104 36.5q56 0 86.5 -32t30.5 -78q0 -11 -1 -21h-27q-10 38 -31.5 53.5t-65.5 15.5z" />
    <glyph glyph-name="oinvertedbreve" unicode="&#x20f;" horiz-adv-x="478" 
d="M214 32q55 0 88 62.5t38 142.5q1 11 1 32q0 135 -78 135q-55 0 -88 -62.5t-38 -142.5q-1 -11 -1 -32q0 -135 78 -135zM213 -10q-82 0 -126 52t-44 137q0 112 57.5 189.5t163.5 77.5q82 0 126 -52t44 -137q0 -112 -57.5 -189.5t-163.5 -77.5zM292 585q-46 0 -75 -20.5
t-48 -72.5h-25q0 70 45 114t113 44q53 0 84.5 -30t32.5 -77q0 -24 -9 -51h-25q-2 51 -24.5 72t-68.5 21z" />
    <glyph glyph-name="Rinvertedbreve" unicode="&#x212;" horiz-adv-x="562" 
d="M255 545l-38 -238h47q72 0 112 30t40 114q0 48 -23.5 71t-80.5 23h-57zM477 54l65 -26l-11 -28h-132l-96 217q-11 25 -31.5 37.5t-60.5 12.5l-34 -212l72 -23l-13 -32h-229l-2 32l77 23l76 478l-70 23l12 32h227q92 0 140 -32.5t48 -106.5q0 -77 -55 -123.5t-134 -46.5
v-4q30 -5 51.5 -24t38.5 -59zM337 691q-44 0 -70.5 -15.5t-48.5 -53.5h-31q14 58 54 94.5t104 36.5q56 0 86.5 -32t30.5 -78q0 -11 -1 -21h-27q-10 38 -31.5 53.5t-65.5 15.5z" />
    <glyph glyph-name="rinvertedbreve" unicode="&#x213;" horiz-adv-x="390" 
d="M205 355l-6 -37h4q27 70 59.5 99t74.5 29q31 0 49.5 -17t18.5 -47t-17.5 -47.5t-46.5 -17.5q-55 0 -55 61q-39 -24 -97 -128l-43 -250h-89l66 381q-41 14 -79 -28l-14 15q11 32 38 55t70 23q80 0 67 -91zM249 585q-46 0 -75 -20.5t-48 -72.5h-25q0 70 45 114t113 44
q53 0 84.5 -30t32.5 -77q0 -24 -9 -51h-25q-2 51 -24.5 72t-68.5 21z" />
    <glyph glyph-name="Udoublegrave" unicode="&#x214;" horiz-adv-x="615" 
d="M586 533l-51 -323q-17 -108 -79 -164t-157 -56q-213 0 -213 170q0 26 5 58l49 315l-70 23l12 32h226l3 -32l-79 -23l-50 -313q-5 -31 -5 -56q0 -59 33.5 -90t94.5 -31q76 0 117.5 43t55.5 134l50 313l-70 23l12 32h192l3 -32zM341 625l-129 84q-37 26 -7 56q30 31 56 -3
l95 -118zM471 625l-129 84q-37 26 -7 56q30 31 56 -3l95 -118z" />
    <glyph glyph-name="udoublegrave" unicode="&#x215;" horiz-adv-x="510" 
d="M452 436l-66 -379q41 -14 79 28l15 -15q-11 -32 -38.5 -56t-70.5 -24q-80 0 -64 91h-4q-58 -91 -143 -91q-49 0 -77 33t-16 104l42 254q-41 14 -79 -28l-15 15q11 32 38.5 55t70.5 23q86 0 70 -91l-39 -228q-13 -72 37 -72q52 0 116 58l53 315zM228 487l-107 111
q-31 33 6 56q36 22 54 -16l66 -136zM358 487l-107 111q-31 33 6 56q36 22 54 -16l66 -136z" />
    <glyph glyph-name="Uinvertedbreve" unicode="&#x216;" horiz-adv-x="615" 
d="M586 533l-51 -323q-17 -108 -79 -164t-157 -56q-213 0 -213 170q0 26 5 58l49 315l-70 23l12 32h226l3 -32l-79 -23l-50 -313q-5 -31 -5 -56q0 -59 33.5 -90t94.5 -31q76 0 117.5 43t55.5 134l50 313l-70 23l12 32h192l3 -32zM408 691q-44 0 -70.5 -15.5t-48.5 -53.5h-31
q14 58 54 94.5t104 36.5q56 0 86.5 -32t30.5 -78q0 -11 -1 -21h-27q-10 38 -31.5 53.5t-65.5 15.5z" />
    <glyph glyph-name="uinvertedbreve" unicode="&#x217;" horiz-adv-x="510" 
d="M452 436l-66 -379q41 -14 79 28l15 -15q-11 -32 -38.5 -56t-70.5 -24q-80 0 -64 91h-4q-58 -91 -143 -91q-49 0 -77 33t-16 104l42 254q-41 14 -79 -28l-15 15q11 32 38.5 55t70.5 23q86 0 70 -91l-39 -228q-13 -72 37 -72q52 0 116 58l53 315zM298 585q-46 0 -75 -20.5
t-48 -72.5h-25q0 70 45 114t113 44q53 0 84.5 -30t32.5 -77q0 -24 -9 -51h-25q-2 51 -24.5 72t-68.5 21z" />
    <glyph glyph-name="Scommaaccent" unicode="&#x218;" horiz-adv-x="469" 
d="M214 32q50 0 83.5 28t33.5 78q0 44 -18 69.5t-65 46.5l-49 22q-106 48 -106 151q0 86 54 128.5t134 42.5q61 0 125 -17l48 17l-25 -160l-26 -6l-19 50q-28 76 -103 76q-49 0 -79 -27.5t-30 -77.5q0 -63 73 -96l60 -27q111 -50 111 -159q0 -93 -58 -137t-144 -44
q-17 0 -33 2t-26.5 3.5t-24 6t-18.5 6.5t-17.5 7.5t-14.5 6.5l-50 -32l11 186l28 6l28 -60q22 -46 47.5 -68t69.5 -22zM212 -146h-6q-7 -23 -32 -23q-24 0 -36.5 15t-12.5 37q0 26 17.5 42t42.5 16q35 0 55.5 -19.5t20.5 -52.5q0 -99 -140 -118l-8 20q99 29 99 83z" />
    <glyph glyph-name="scommaaccent" unicode="&#x219;" horiz-adv-x="373" 
d="M90 56q19 -28 68 -28q87 0 87 63q0 29 -17 48t-60 47q-35 23 -52.5 36.5t-33.5 40t-16 57.5q0 61 43 93.5t114 32.5q57 0 93.5 -26.5t36.5 -64.5q0 -26 -14.5 -40t-36.5 -14q-24 0 -38 13t-14 34q0 29 26 38q-18 19 -53 19q-34 0 -56.5 -16t-22.5 -47q0 -22 14.5 -38
t54.5 -44q46 -32 64 -46.5t33.5 -39.5t15.5 -56q0 -128 -168 -128q-61 0 -99.5 28.5t-38.5 73.5q0 28 15.5 43.5t38.5 15.5q25 0 38.5 -14t13.5 -36q0 -19 -10.5 -31t-25.5 -14zM159 -146h-6q-7 -23 -32 -23q-24 0 -36.5 15t-12.5 37q0 26 17.5 42t42.5 16q35 0 55.5 -19.5
t20.5 -52.5q0 -99 -140 -118l-8 20q99 29 99 83z" />
    <glyph glyph-name="Hcaron" unicode="&#x21e;" horiz-adv-x="677" 
d="M475 588h229l3 -32l-79 -23l-76 -478l72 -23l-13 -32h-229l-2 32l77 23l35 221h-280l-35 -221l72 -23l-13 -32h-229l-2 32l77 23l76 478l-70 23l12 32h229l3 -32l-79 -23l-34 -211h280l34 211l-70 23zM409 620h-14l-112 137h88l59 -71l88 71h51z" />
    <glyph glyph-name="hcaron" unicode="&#x21f;" horiz-adv-x="497" 
d="M283 371q-40 0 -104 -48l-50 -323h-89l94 596l-50 46l2 11l135 28h16l-52 -324h4q57 89 138 89q41 0 69 -24.5t28 -72.5q0 -14 -4 -40l-43 -252q42 -14 80 28l15 -15q-11 -32 -38.5 -56t-70.5 -24q-72 0 -72 66q0 14 4 38l34 198q7 42 -4 60.5t-42 18.5zM201 718h-14
l-112 137h88l59 -71l88 71h51z" />
    <glyph glyph-name="Adotabove" unicode="&#x226;" horiz-adv-x="570" 
d="M411 51l-25 143h-220l-78 -139l79 -21l-12 -34h-184l-1 31l54 24l301 533h80l100 -533l45 -24l-13 -31h-209l1 34zM282 401l-90 -161h186l-28 162q-5 31 -7.5 60.5t-2.5 43.5v14h-4q-18 -54 -54 -119zM320 691q0 25 17.5 43t41.5 18q25 0 43 -18t18 -43q0 -24 -18 -42
t-43 -18q-24 0 -41.5 18t-17.5 42z" />
    <glyph glyph-name="adotabove" unicode="&#x227;" horiz-adv-x="504" 
d="M304 135l42 245q-28 21 -67 21q-64 0 -106 -74t-42 -173q0 -103 62 -103q60 0 111 84zM298 77h-4q-37 -87 -127 -87q-63 0 -95 42t-32 119q0 119 69.5 207t169.5 88q49 0 86 -25l66 25h16l-67 -389q41 -14 79 28l15 -15q-11 -32 -38.5 -56t-70.5 -24q-78 0 -67 87z
M243 567q0 25 17.5 43t41.5 18q26 0 43.5 -18t17.5 -43q0 -24 -18 -42t-43 -18q-24 0 -41.5 18t-17.5 42z" />
    <glyph glyph-name="Otildemacron" unicode="&#x22c;" horiz-adv-x="594" 
d="M349 553q-91 0 -144.5 -98.5t-53.5 -233.5q0 -86 31 -136t93 -50q91 0 144.5 98.5t53.5 233.5q0 86 -31 136t-93 50zM275 -10q-109 0 -167 69t-58 184q0 94 33.5 173.5t103 130.5t162.5 51q109 0 167 -69t58 -184q0 -94 -33.5 -173.5t-103 -130.5t-162.5 -51zM379 633
l-32 23q-26 21 -56.5 8.5t-39.5 -53.5l-22 2q-9 40 13.5 76t60 44.5t81.5 -18.5l40 -29q13 -9 32 -10t37 14t22 46l22 -4q5 -27 -1.5 -51t-23 -40t-37.5 -24.5t-46.5 -4.5t-49.5 21zM533 767h-269l5 48h279z" />
    <glyph glyph-name="otildemacron" unicode="&#x22d;" horiz-adv-x="478" 
d="M214 32q55 0 88 62.5t38 142.5q1 11 1 32q0 135 -78 135q-55 0 -88 -62.5t-38 -142.5q-1 -11 -1 -32q0 -135 78 -135zM213 -10q-82 0 -126 52t-44 137q0 112 57.5 189.5t163.5 77.5q82 0 126 -52t44 -137q0 -112 -57.5 -189.5t-163.5 -77.5zM281 493l-32 23
q-26 21 -56.5 8.5t-39.5 -53.5l-22 2q-9 40 13.5 76t60 44.5t81.5 -18.5l40 -29q13 -9 32 -10t37 14t22 46l22 -4q5 -27 -1.5 -51t-23 -40t-37.5 -24.5t-46.5 -4.5t-49.5 21zM441 641h-269l5 48h279z" />
    <glyph glyph-name="Odotabove" unicode="&#x22e;" horiz-adv-x="594" 
d="M349 553q-91 0 -144.5 -98.5t-53.5 -233.5q0 -86 31 -136t93 -50q91 0 144.5 98.5t53.5 233.5q0 86 -31 136t-93 50zM275 -10q-109 0 -167 69t-58 184q0 94 33.5 173.5t103 130.5t162.5 51q109 0 167 -69t58 -184q0 -94 -33.5 -173.5t-103 -130.5t-162.5 -51zM318 691
q0 25 17.5 43t41.5 18q25 0 43 -18t18 -43q0 -24 -18 -42t-43 -18q-24 0 -41.5 18t-17.5 42z" />
    <glyph glyph-name="odotabove" unicode="&#x22f;" horiz-adv-x="478" 
d="M214 32q55 0 88 62.5t38 142.5q1 11 1 32q0 135 -78 135q-55 0 -88 -62.5t-38 -142.5q-1 -11 -1 -32q0 -135 78 -135zM213 -10q-82 0 -126 52t-44 137q0 112 57.5 189.5t163.5 77.5q82 0 126 -52t44 -137q0 -112 -57.5 -189.5t-163.5 -77.5zM237 567q0 25 17.5 43
t41.5 18q26 0 43.5 -18t17.5 -43q0 -24 -18 -42t-43 -18q-24 0 -41.5 18t-17.5 42z" />
    <glyph glyph-name="odotabovemacron" unicode="&#x231;" horiz-adv-x="478" 
d="M214 32q55 0 88 62.5t38 142.5q1 11 1 32q0 135 -78 135q-55 0 -88 -62.5t-38 -142.5q-1 -11 -1 -32q0 -135 78 -135zM213 -10q-82 0 -126 52t-44 137q0 112 57.5 189.5t163.5 77.5q82 0 126 -52t44 -137q0 -112 -57.5 -189.5t-163.5 -77.5zM431 618h-269l5 48h279z
M217 528q0 25 17.5 43t41.5 18q26 0 43.5 -17.5t17.5 -43.5q0 -24 -18 -42t-43 -18q-24 0 -41.5 18t-17.5 42z" />
    <glyph glyph-name="odotabovemacron" unicode="&#xe11e;" horiz-adv-x="478" 
d="M214 32q55 0 88 62.5t38 142.5q1 11 1 32q0 135 -78 135q-55 0 -88 -62.5t-38 -142.5q-1 -11 -1 -32q0 -135 78 -135zM213 -10q-82 0 -126 52t-44 137q0 112 57.5 189.5t163.5 77.5q82 0 126 -52t44 -137q0 -112 -57.5 -189.5t-163.5 -77.5zM431 618h-269l5 48h279z
M217 528q0 25 17.5 43t41.5 18q26 0 43.5 -17.5t17.5 -43.5q0 -24 -18 -42t-43 -18q-24 0 -41.5 18t-17.5 42z" />
    <glyph glyph-name="Ymacron" unicode="&#x232;" horiz-adv-x="505" 
d="M190 537l67 -194q9 -26 13.5 -49t5.5 -33v-10h4q9 30 50 92l124 190l-80 21l12 34h183l1 -31l-54 -24l-210 -315l-26 -163l102 -20l-13 -35h-289l-3 35l108 20l26 163l-116 315l-45 24l13 31h208l-1 -34zM468 653h-269l5 48h279z" />
    <glyph glyph-name="ymacron" unicode="&#x233;" horiz-adv-x="451" 
d="M14 -172q56 12 134 102l-62 451q-41 14 -79 -28l-15 15q10 31 40 54.5t74 23.5q40 0 55 -21t20 -64l38 -359q59 78 103 172t54 164q-8 -9 -25 -9q-28 0 -43 16.5t-15 39.5q0 28 17.5 44.5t45.5 16.5q31 0 50.5 -20t19.5 -57q0 -72 -44.5 -174.5t-109.5 -192.5t-144 -154
t-141 -64q-36 0 -56.5 17.5t-20.5 46.5q0 27 16 44t41 17q26 0 39.5 -16t13.5 -41q0 -15 -6 -24zM394 513h-269l5 48h279z" />
    <glyph glyph-name="dotlessj" unicode="&#x237;" horiz-adv-x="253" 
d="M43 -84l80 465q-40 13 -78 -28l-15 15q11 32 38.5 55t70.5 23q70 0 70 -66q0 -11 -4 -35l-62 -364q-36 -201 -188 -201q-34 0 -54.5 17t-20.5 43q0 27 15 41.5t39 14.5q22 0 34.5 -14t12.5 -36q0 -19 -13 -36q25 0 45.5 26.5t29.5 79.5z" />
    <glyph glyph-name="schwa" unicode="&#x259;" horiz-adv-x="424" 
d="M25 94q0 76 71.5 115t196.5 32q0 143 -98 143q-39 0 -65.5 -13.5t-64.5 -50.5l-17 17q60 109 181 109q68 0 111.5 -46t43.5 -130q0 -108 -66 -194t-171 -86q-56 0 -89 29.5t-33 74.5zM164 34q45 0 80 49.5t45 123.5q-178 -4 -178 -117q0 -26 14 -41t39 -15z" />
    <glyph glyph-name="ezh" unicode="&#x292;" horiz-adv-x="426" 
d="M401 422l-208 -269v-4q73 -4 110.5 -44.5t37.5 -104.5q0 -90 -64.5 -140t-155.5 -50q-69 0 -110 31.5t-41 76.5q0 29 18.5 46.5t43.5 17.5t38 -15.5t13 -37.5q0 -21 -12 -35t-32 -16q18 -34 81 -34q54 0 93 34.5t39 98.5q0 126 -161 137l-9 17l196 262h-141l-87 -101
l-21 4l27 140h341z" />
    <glyph glyph-name="circumflex" unicode="&#x2c6;" horiz-adv-x="446" 
d="M246 659h14l106 -177h-84l-57 103l-97 -103h-48z" />
    <glyph glyph-name="caron" unicode="&#x2c7;" horiz-adv-x="446" 
d="M200 482h-14l-106 177h84l57 -103l97 103h48z" />
    <glyph glyph-name="breve" unicode="&#x2d8;" horiz-adv-x="435" 
d="M207 560q46 0 75 20.5t48 72.5h25q0 -70 -45 -114t-113 -44q-53 0 -84.5 30t-32.5 77q0 24 9 51h25q2 -51 24.5 -72t68.5 -21z" />
    <glyph glyph-name="dotaccent" unicode="&#x2d9;" horiz-adv-x="280" 
d="M80 567q0 25 17.5 43t41.5 18q25 0 43 -18t18 -43q0 -24 -18 -42t-43 -18q-24 0 -41.5 18t-17.5 42z" />
    <glyph glyph-name="ring" unicode="&#x2da;" horiz-adv-x="343" 
d="M80 577q0 41 28 69.5t72 28.5q37 0 60 -23t23 -58q0 -41 -28.5 -69.5t-70.5 -28.5q-40 0 -62 22.5t-22 58.5zM175 634q-21 0 -35.5 -15.5t-14.5 -37.5q0 -21 12 -33.5t33 -12.5t34.5 15.5t13.5 37.5q0 21 -11.5 33.5t-31.5 12.5z" />
    <glyph glyph-name="ogonek" unicode="&#x2db;" horiz-adv-x="400" 
d="M80 -122q0 37 19.5 65.5t55.5 46t65 26.5t70 18l6 -27q-71 -17 -106 -43t-35 -69q0 -26 18.5 -43t48.5 -17q50 0 84 30l14 -18q-15 -30 -46.5 -48.5t-71.5 -18.5q-60 0 -91 27t-31 71z" />
    <glyph glyph-name="tilde" unicode="&#x2dc;" horiz-adv-x="474" 
d="M233 531l-32 23q-26 21 -56.5 8.5t-39.5 -53.5l-22 2q-9 40 13.5 76t60 44.5t81.5 -18.5l40 -29q13 -9 32 -10t37 14t22 46l22 -4q5 -27 -1.5 -51t-23 -40t-37.5 -24.5t-46.5 -4.5t-49.5 21z" />
    <glyph glyph-name="hungarumlaut" unicode="&#x2dd;" horiz-adv-x="430" 
d="M336 598l-107 -111l-19 15l66 136q18 38 54 16q37 -23 6 -56zM206 598l-107 -111l-19 15l66 136q18 38 54 16q37 -23 6 -56z" />
    <glyph glyph-name="uni0312" unicode="&#x312;" horiz-adv-x="308" 
d="M129 580h6q7 23 32 23q24 0 36.5 -15t12.5 -37q0 -26 -17.5 -42t-42.5 -16q-35 0 -55.5 19.5t-20.5 52.5q0 99 140 118l8 -20q-99 -29 -99 -83z" />
    <glyph glyph-name="uni0331" unicode="&#x331;" horiz-adv-x="444" 
d="M349 -133h-269l5 48h279z" />
    <glyph glyph-name="pi" unicode="&#x3c0;" horiz-adv-x="615" 
d="M550 84l8 -20q-30 -40 -61 -57t-79 -17q-89 0 -89 95q0 23 8.5 58.5t18 62.5t27.5 75t25 68h-142l-83 -284q-21 -75 -89 -75q-32 0 -47.5 17t-15.5 42q0 26 17 42t40 16q43 0 49 -41l82 283h-27q-63 0 -90.5 -13.5t-54.5 -59.5l-17 8q13 74 58 113t118 39h394l5 -11
l-49 -76h-106l-34 -211q-13 -81 56 -81q39 0 78 27z" />
    <glyph glyph-name="uni0E3F" unicode="&#xe3f;" horiz-adv-x="596" 
d="M235 -110l17 110h-235l-2 32l77 23l76 478l-70 23l12 32h235l17 109h40l-18 -111q152 -12 152 -135q0 -67 -43 -102.5t-100 -37.5v-4q132 -12 132 -129q0 -93 -64.5 -135t-168.5 -43l-17 -110h-40zM429 189q0 90 -92 95l-38 -241q67 5 98.5 40.5t31.5 105.5zM187 55
l31 -12h41l38 242h-73zM265 545l-34 -216h73l34 216h-73zM439 456q0 67 -62 84l-33 -211q45 5 70 37.5t25 89.5z" />
    <glyph glyph-name="Ddotbelow" unicode="&#x1e0c;" horiz-adv-x="603" 
d="M100 588h214q128 0 198.5 -62.5t70.5 -184.5q0 -156 -95.5 -248.5t-248.5 -92.5h-232l-2 32l77 23l76 478l-70 23zM177 55l59 -15q117 2 182 86.5t65 233.5q0 182 -185 182h-44zM169 -129q0 25 17.5 43t41.5 18q26 0 43.5 -18t17.5 -43q0 -24 -18 -42t-43 -18
q-24 0 -41.5 18t-17.5 42z" />
    <glyph glyph-name="ddotbelow" unicode="&#x1e0d;" horiz-adv-x="512" 
d="M317 138l38 246q-34 17 -70 17q-68 0 -111 -71t-43 -176q0 -103 62 -103q63 0 124 87zM389 596l-50 46l2 11l135 28h16l-100 -624q41 -14 79 28l15 -15q-11 -32 -38.5 -56t-70.5 -24q-85 0 -69 91h-4q-37 -91 -137 -91q-63 0 -95 42t-32 119q0 120 69.5 207.5t174.5 87.5
q45 0 79 -19zM133 -129q0 25 17.5 43t41.5 18q26 0 43.5 -18t17.5 -43q0 -24 -18 -42t-43 -18q-24 0 -41.5 18t-17.5 42z" />
    <glyph glyph-name="Dcedilla" unicode="&#x1e10;" horiz-adv-x="603" 
d="M134 -188l17 22q27 -23 63 -23q48 0 48 43q0 26 -15 38t-46 21l31 87h-225l-2 32l77 23l76 478l-70 23l12 32h214q128 0 198.5 -62.5t70.5 -184.5q0 -149 -88.5 -241t-231.5 -100l-15 -42q84 -16 84 -92q0 -41 -31 -63.5t-81 -22.5q-59 0 -86 32zM177 55l59 -15
q117 2 182 86.5t65 233.5q0 182 -185 182h-44z" />
    <glyph glyph-name="dcedilla" unicode="&#x1e11;" horiz-adv-x="512" 
d="M98 -188l17 22q27 -23 63 -23q48 0 48 43q0 26 -15 38t-46 21l28 79q-16 -2 -26 -2q-63 0 -95 42t-32 119q0 120 69.5 207.5t174.5 87.5q45 0 79 -19l26 169l-50 46l2 11l135 28h16l-100 -624q41 -14 79 28l15 -15q-11 -32 -38.5 -56t-70.5 -24q-85 0 -69 91h-4
q-25 -60 -76 -80l-16 -43q84 -16 84 -92q0 -41 -31 -63.5t-81 -22.5q-59 0 -86 32zM317 138l38 246q-34 17 -70 17q-68 0 -111 -71t-43 -176q0 -103 62 -103q63 0 124 87z" />
    <glyph glyph-name="Hdotbelow" unicode="&#x1e24;" horiz-adv-x="677" 
d="M475 588h229l3 -32l-79 -23l-76 -478l72 -23l-13 -32h-229l-2 32l77 23l35 221h-280l-35 -221l72 -23l-13 -32h-229l-2 32l77 23l76 478l-70 23l12 32h229l3 -32l-79 -23l-34 -211h280l34 211l-70 23zM231 -129q0 25 17.5 43t41.5 18q26 0 43.5 -18t17.5 -43
q0 -24 -18 -42t-43 -18q-24 0 -41.5 18t-17.5 42z" />
    <glyph glyph-name="hdotbelow" unicode="&#x1e25;" horiz-adv-x="497" 
d="M283 371q-40 0 -104 -48l-50 -323h-89l94 596l-50 46l2 11l135 28h16l-52 -324h4q57 89 138 89q41 0 69 -24.5t28 -72.5q0 -14 -4 -40l-43 -252q42 -14 80 28l15 -15q-11 -32 -38.5 -56t-70.5 -24q-72 0 -72 66q0 14 4 38l34 198q7 42 -4 60.5t-42 18.5zM123 -129
q0 25 17.5 43t41.5 18q26 0 43.5 -18t17.5 -43q0 -24 -18 -42t-43 -18q-24 0 -41.5 18t-17.5 42z" />
    <glyph glyph-name="Ldotbelow" unicode="&#x1e36;" horiz-adv-x="499" 
d="M332 556l-79 -23l-75 -470l43 -17h123l110 161l25 -6l-54 -201h-418l-2 32l77 23l76 478l-70 23l12 32h229zM145 -129q0 25 17.5 43t41.5 18q26 0 43.5 -18t17.5 -43q0 -24 -18 -42t-43 -18q-24 0 -41.5 18t-17.5 42z" />
    <glyph glyph-name="ldotbelow" unicode="&#x1e37;" horiz-adv-x="250" 
d="M49 94l78 502l-50 46l2 11l135 28h16l-99 -624q42 -14 80 28l15 -15q-11 -32 -38.5 -56t-70.5 -24q-72 0 -72 66q0 14 4 38zM33 -129q0 25 17.5 43t41.5 18q26 0 43.5 -18t17.5 -43q0 -24 -18 -42t-43 -18q-24 0 -41.5 18t-17.5 42z" />
    <glyph glyph-name="uni004C032300AF" unicode="&#x1e38;" horiz-adv-x="499" 
d="M332 556l-79 -23l-75 -470l43 -17h123l110 161l25 -6l-54 -201h-418l-2 32l77 23l76 478l-70 23l12 32h229zM145 -129q0 25 17.5 43t41.5 18q26 0 43.5 -18t17.5 -43q0 -24 -18 -42t-43 -18q-24 0 -41.5 18t-17.5 42zM366 653h-269l5 48h279z" />
    <glyph glyph-name="ldotbelowmacron" unicode="&#x1e39;" horiz-adv-x="250" 
d="M49 94l78 502l-50 46l2 11l135 28h16l-99 -624q42 -14 80 28l15 -15q-11 -32 -38.5 -56t-70.5 -24q-72 0 -72 66q0 14 4 38zM33 -129q0 25 17.5 43t41.5 18q26 0 43.5 -18t17.5 -43q0 -24 -18 -42t-43 -18q-24 0 -41.5 18t-17.5 42zM327 737h-269l5 48h279z" />
    <glyph glyph-name="Mdotbelow" unicode="&#x1e42;" horiz-adv-x="768" 
d="M562 385l-199 -385h-48l-80 388q-6 27 -11 61.5t-8 54.5l-2 21h-4q-6 -67 -18 -141l-52 -329l72 -23l-13 -32h-192l-2 32l77 23l76 478l-70 23l12 32h187l74 -386q5 -27 6.5 -51.5t0.5 -35.5l-1 -11h4q9 35 42 101l191 383h191l3 -32l-79 -23l-76 -478l72 -23l-13 -32
h-229l-2 32l77 23l53 329l27 141h-4q-30 -77 -62 -140zM262 -129q0 25 17.5 43t41.5 18q25 0 43 -18t18 -43q0 -24 -18 -42t-43 -18q-24 0 -41.5 18t-17.5 42z" />
    <glyph glyph-name="mdotbelow" unicode="&#x1e43;" horiz-adv-x="743" 
d="M529 371q-38 0 -94 -48l-56 -323h-90l52 290q15 81 -46 81q-38 0 -94 -48l-55 -323h-89l66 381q-41 14 -79 -28l-14 15q11 32 38 55t70 23q81 0 65 -91h4q52 91 131 91q40 0 67 -22t30 -68h4q51 90 134 90q41 0 69 -24.5t28 -72.5q0 -14 -4 -40l-43 -252q42 -14 80 28
l15 -15q-11 -32 -38.5 -56t-70.5 -24q-72 0 -72 66q0 14 4 38l34 198q7 42 -4 60.5t-42 18.5zM253 -129q0 25 17.5 43t41.5 18q26 0 43.5 -18t17.5 -43q0 -24 -18 -42t-43 -18q-24 0 -41.5 18t-17.5 42z" />
    <glyph glyph-name="Ndotaccent" unicode="&#x1e44;" horiz-adv-x="634" 
d="M194 389l-53 -334l72 -23l-13 -32h-193l-2 32l77 23l76 478l-70 23l12 32h164l168 -341q18 -36 28.5 -68t11.5 -46l2 -14h4q2 64 13 133l45 281l-70 23l12 32h193l3 -32l-79 -23l-84 -533h-57l-204 396q-16 30 -25.5 57t-11.5 39l-2 11h-4q-1 -40 -13 -114zM336 691
q0 25 17.5 43t41.5 18q25 0 43 -18t18 -43q0 -24 -18 -42t-43 -18q-24 0 -41.5 18t-17.5 42z" />
    <glyph glyph-name="ndotaccent" unicode="&#x1e45;" 
d="M317 94l34 198q7 42 -4 60.5t-42 18.5q-40 0 -104 -48l-55 -323h-89l66 381q-41 14 -79 -28l-14 15q11 32 38 55t70 23q81 0 65 -91h4q58 91 142 91q41 0 69 -24.5t28 -72.5q0 -14 -4 -40l-43 -252q42 -14 80 28l15 -15q-11 -32 -38.5 -56t-70.5 -24q-72 0 -72 66
q0 14 4 38zM244 567q0 25 17.5 43t41.5 18q25 0 43 -18t18 -43q0 -24 -18 -42t-43 -18q-24 0 -41.5 18t-17.5 42z" />
    <glyph glyph-name="Ndotbelow" unicode="&#x1e46;" horiz-adv-x="634" 
d="M194 389l-53 -334l72 -23l-13 -32h-193l-2 32l77 23l76 478l-70 23l12 32h164l168 -341q18 -36 28.5 -68t11.5 -46l2 -14h4q2 64 13 133l45 281l-70 23l12 32h193l3 -32l-79 -23l-84 -533h-57l-204 396q-16 30 -25.5 57t-11.5 39l-2 11h-4q-1 -40 -13 -114zM212 -129
q0 25 17.5 43t41.5 18q25 0 43 -18t18 -43q0 -24 -18 -42t-43 -18q-24 0 -41.5 18t-17.5 42z" />
    <glyph glyph-name="ndotbelow" unicode="&#x1e47;" 
d="M317 94l34 198q7 42 -4 60.5t-42 18.5q-40 0 -104 -48l-55 -323h-89l66 381q-41 14 -79 -28l-14 15q11 32 38 55t70 23q81 0 65 -91h4q58 91 142 91q41 0 69 -24.5t28 -72.5q0 -14 -4 -40l-43 -252q42 -14 80 28l15 -15q-11 -32 -38.5 -56t-70.5 -24q-72 0 -72 66
q0 14 4 38zM161 -129q0 25 17.5 43t41.5 18q26 0 43.5 -18t17.5 -43q0 -24 -18 -42t-43 -18q-24 0 -41.5 18t-17.5 42z" />
    <glyph glyph-name="Rdotbelow" unicode="&#x1e5a;" horiz-adv-x="562" 
d="M255 545l-38 -238h47q72 0 112 30t40 114q0 48 -23.5 71t-80.5 23h-57zM477 54l65 -26l-11 -28h-132l-96 217q-11 25 -31.5 37.5t-60.5 12.5l-34 -212l72 -23l-13 -32h-229l-2 32l77 23l76 478l-70 23l12 32h227q92 0 140 -32.5t48 -106.5q0 -77 -55 -123.5t-134 -46.5
v-4q30 -5 51.5 -24t38.5 -59zM190 -129q0 25 17.5 43t41.5 18q25 0 43 -18t18 -43q0 -24 -18 -42t-43 -18q-24 0 -41.5 18t-17.5 42z" />
    <glyph glyph-name="rdotbelow" unicode="&#x1e5b;" horiz-adv-x="390" 
d="M205 355l-6 -37h4q27 70 59.5 99t74.5 29q31 0 49.5 -17t18.5 -47t-17.5 -47.5t-46.5 -17.5q-55 0 -55 61q-39 -24 -97 -128l-43 -250h-89l66 381q-41 14 -79 -28l-14 15q11 32 38 55t70 23q80 0 67 -91zM20 -129q0 25 17.5 43t41.5 18q25 0 43 -18t18 -43q0 -24 -18 -42
t-43 -18q-24 0 -41.5 18t-17.5 42z" />
    <glyph glyph-name="Rdotbelowmacron" unicode="&#x1e5c;" horiz-adv-x="562" 
d="M255 545l-38 -238h47q72 0 112 30t40 114q0 48 -23.5 71t-80.5 23h-57zM477 54l65 -26l-11 -28h-132l-96 217q-11 25 -31.5 37.5t-60.5 12.5l-34 -212l72 -23l-13 -32h-229l-2 32l77 23l76 478l-70 23l12 32h227q92 0 140 -32.5t48 -106.5q0 -77 -55 -123.5t-134 -46.5
v-4q30 -5 51.5 -24t38.5 -59zM190 -129q0 25 17.5 43t41.5 18q25 0 43 -18t18 -43q0 -24 -18 -42t-43 -18q-24 0 -41.5 18t-17.5 42zM459 653h-269l5 48h279z" />
    <glyph glyph-name="rdotbelowmacron" unicode="&#x1e5d;" horiz-adv-x="390" 
d="M205 355l-6 -37h4q27 70 59.5 99t74.5 29q31 0 49.5 -17t18.5 -47t-17.5 -47.5t-46.5 -17.5q-55 0 -55 61q-39 -24 -97 -128l-43 -250h-89l66 381q-41 14 -79 -28l-14 15q11 32 38 55t70 23q80 0 67 -91zM373 513h-269l5 48h279zM20 -129q0 25 17.5 43t41.5 18
q25 0 43 -18t18 -43q0 -24 -18 -42t-43 -18q-24 0 -41.5 18t-17.5 42z" />
    <glyph glyph-name="Sdotbelow" unicode="&#x1e62;" horiz-adv-x="469" 
d="M214 32q50 0 83.5 28t33.5 78q0 44 -18 69.5t-65 46.5l-49 22q-106 48 -106 151q0 86 54 128.5t134 42.5q61 0 125 -17l48 17l-25 -160l-26 -6l-19 50q-28 76 -103 76q-49 0 -79 -27.5t-30 -77.5q0 -63 73 -96l60 -27q111 -50 111 -159q0 -93 -58 -137t-144 -44
q-17 0 -33 2t-26.5 3.5t-24 6t-18.5 6.5t-17.5 7.5t-14.5 6.5l-50 -32l11 186l28 6l28 -60q22 -46 47.5 -68t69.5 -22zM128 -129q0 25 17.5 43t41.5 18q25 0 43 -18t18 -43q0 -24 -18 -42t-43 -18q-24 0 -41.5 18t-17.5 42z" />
    <glyph glyph-name="sdotbelow" unicode="&#x1e63;" horiz-adv-x="373" 
d="M90 56q19 -28 68 -28q87 0 87 63q0 29 -17 48t-60 47q-35 23 -52.5 36.5t-33.5 40t-16 57.5q0 61 43 93.5t114 32.5q57 0 93.5 -26.5t36.5 -64.5q0 -26 -14.5 -40t-36.5 -14q-24 0 -38 13t-14 34q0 29 26 38q-18 19 -53 19q-34 0 -56.5 -16t-22.5 -47q0 -22 14.5 -38
t54.5 -44q46 -32 64 -46.5t33.5 -39.5t15.5 -56q0 -128 -168 -128q-61 0 -99.5 28.5t-38.5 73.5q0 28 15.5 43.5t38.5 15.5q25 0 38.5 -14t13.5 -36q0 -19 -10.5 -31t-25.5 -14zM71 -129q0 25 17.5 43t41.5 18q26 0 43.5 -18t17.5 -43q0 -24 -18 -42t-43 -18q-24 0 -41.5 18
t-17.5 42z" />
    <glyph glyph-name="Tdotbelow" unicode="&#x1e6c;" horiz-adv-x="554" 
d="M104 35l108 20l77 487h-105l-92 -116l-22 5l25 157h499l-25 -157l-22 -5l-54 116h-109l-77 -487l102 -20l-13 -35h-289zM171 -129q0 25 17.5 43t41.5 18q26 0 43.5 -18t17.5 -43q0 -24 -18 -42t-43 -18q-24 0 -41.5 18t-17.5 42z" />
    <glyph glyph-name="tdotbelow" unicode="&#x1e6d;" horiz-adv-x="318" 
d="M55 389l5 26l141 138h27l-21 -117h131l-15 -47h-123l-44 -247q-5 -25 -5 -44q0 -44 55 -44q38 0 76 23l9 -19q-21 -31 -58.5 -49.5t-76.5 -18.5q-42 0 -69 22.5t-27 66.5q0 19 5 47l53 263h-63zM73 -129q0 25 17.5 43t41.5 18q26 0 43.5 -18t17.5 -43q0 -24 -18 -42
t-43 -18q-24 0 -41.5 18t-17.5 42z" />
    <glyph glyph-name="Wgrave" unicode="&#x1e80;" horiz-adv-x="801" 
d="M477 0l-34 381q-2 34 -1 61.5t4 44.5l2 17h-4q-12 -62 -42 -125l-177 -379h-89l-29 532l-47 25l13 31h209l-1 -35l-82 -13l16 -342q1 -32 -1 -64.5t-5 -49.5l-3 -16h4q15 65 46 131l184 389h76l33 -378q3 -41 3 -72.5t-2 -50.5l-2 -19h4q20 76 50 143l143 322l-79 21
l12 34h182l1 -31l-54 -24l-241 -533h-89zM520 625l-129 84q-37 26 -7 56q30 31 56 -3l95 -118z" />
    <glyph glyph-name="wgrave" unicode="&#x1e81;" horiz-adv-x="643" 
d="M321 432l63 6l35 -362q115 118 147 261q-8 -7 -26 -7q-25 0 -40 16.5t-15 39.5q0 26 18.5 43t43.5 17q33 0 52 -20t19 -57q0 -86 -66.5 -193.5t-149.5 -175.5h-57l-20 184q-3 23 -4 48t-1 38l1 13h-4q-17 -69 -63.5 -158.5t-81.5 -124.5h-65l-33 381q-41 14 -79 -28
l-15 15q11 32 38.5 55t70.5 23q40 0 54.5 -19t17.5 -62l22 -284q40 75 66 136t36 93t36 122zM413 490l-113 100q-14 10 -13.5 30.5t21.5 33.5q20 12 38.5 6.5t26.5 -25.5l55 -133z" />
    <glyph glyph-name="Wacute" unicode="&#x1e82;" horiz-adv-x="801" 
d="M477 0l-34 381q-2 34 -1 61.5t4 44.5l2 17h-4q-12 -62 -42 -125l-177 -379h-89l-29 532l-47 25l13 31h209l-1 -35l-82 -13l16 -342q1 -32 -1 -64.5t-5 -49.5l-3 -16h4q15 65 46 131l184 389h76l33 -378q3 -41 3 -72.5t-2 -50.5l-2 -19h4q20 76 50 143l143 322l-79 21
l12 34h182l1 -31l-54 -24l-241 -533h-89zM570 709l-129 -84l-15 19l95 118q26 34 56 3q30 -30 -7 -56z" />
    <glyph glyph-name="wacute" unicode="&#x1e83;" horiz-adv-x="643" 
d="M321 432l63 6l35 -362q115 118 147 261q-8 -7 -26 -7q-25 0 -40 16.5t-15 39.5q0 26 18.5 43t43.5 17q33 0 52 -20t19 -57q0 -86 -66.5 -193.5t-149.5 -175.5h-57l-20 184q-3 23 -4 48t-1 38l1 13h-4q-17 -69 -63.5 -158.5t-81.5 -124.5h-65l-33 381q-41 14 -79 -28
l-15 15q11 32 38.5 55t70.5 23q40 0 54.5 -19t17.5 -62l22 -284q40 75 66 136t36 93t36 122zM472 590l-113 -100l-15 12l55 133q8 20 26.5 25.5t38.5 -6.5q21 -13 21.5 -33.5t-13.5 -30.5z" />
    <glyph glyph-name="Wdieresis" unicode="&#x1e84;" horiz-adv-x="801" 
d="M477 0l-34 381q-2 34 -1 61.5t4 44.5l2 17h-4q-12 -62 -42 -125l-177 -379h-89l-29 532l-47 25l13 31h209l-1 -35l-82 -13l16 -342q1 -32 -1 -64.5t-5 -49.5l-3 -16h4q15 65 46 131l184 389h76l33 -378q3 -41 3 -72.5t-2 -50.5l-2 -19h4q20 76 50 143l143 322l-79 21
l12 34h182l1 -31l-54 -24l-241 -533h-89zM340 679q0 25 16 41.5t39 16.5q25 0 42 -16.5t17 -41.5q0 -23 -17 -40t-42 -17q-22 0 -38.5 17t-16.5 40zM528 678q0 24 17 41t40 17q24 0 41 -16.5t17 -41.5q0 -23 -17 -40t-41 -17q-23 0 -40 17t-17 40z" />
    <glyph glyph-name="wdieresis" unicode="&#x1e85;" horiz-adv-x="643" 
d="M321 432l63 6l35 -362q115 118 147 261q-8 -7 -26 -7q-25 0 -40 16.5t-15 39.5q0 26 18.5 43t43.5 17q33 0 52 -20t19 -57q0 -86 -66.5 -193.5t-149.5 -175.5h-57l-20 184q-3 23 -4 48t-1 38l1 13h-4q-17 -69 -63.5 -158.5t-81.5 -124.5h-65l-33 381q-41 14 -79 -28
l-15 15q11 32 38.5 55t70.5 23q40 0 54.5 -19t17.5 -62l22 -284q40 75 66 136t36 93t36 122zM230 563q0 25 16 41.5t39 16.5q25 0 42 -16.5t17 -41.5q0 -23 -17 -40t-42 -17q-22 0 -38.5 17t-16.5 40zM418 562q0 24 17 41t40 17q24 0 41 -16.5t17 -41.5q0 -23 -17 -40
t-41 -17q-23 0 -40 17t-17 40z" />
    <glyph glyph-name="Idotbelow" unicode="&#x1eca;" horiz-adv-x="302" 
d="M100 588h229l3 -32l-79 -23l-76 -478l72 -23l-13 -32h-229l-2 32l77 23l76 478l-70 23zM41 -129q0 25 17.5 43t41.5 18q26 0 43.5 -18t17.5 -43q0 -24 -18 -42t-43 -18q-24 0 -41.5 18t-17.5 42z" />
    <glyph glyph-name="idotbelow" unicode="&#x1ecb;" horiz-adv-x="271" 
d="M195 345l-49 -288q42 -14 80 28l15 -15q-11 -32 -38.5 -56t-70.5 -24q-72 0 -72 66q0 14 4 38l49 287q-40 13 -78 -28l-15 15q11 32 38.5 55t70.5 23q70 0 70 -66q0 -11 -4 -35zM114 575q0 26 18 44t44 18t44 -18t18 -44t-18 -44t-44 -18t-44 18t-18 44zM36 -129
q0 25 17.5 43t41.5 18q25 0 43 -18t18 -43q0 -24 -18 -42t-43 -18q-24 0 -41.5 18t-17.5 42z" />
    <glyph glyph-name="Odotbelow" unicode="&#x1ecc;" horiz-adv-x="594" 
d="M349 553q-91 0 -144.5 -98.5t-53.5 -233.5q0 -86 31 -136t93 -50q91 0 144.5 98.5t53.5 233.5q0 86 -31 136t-93 50zM275 -10q-109 0 -167 69t-58 184q0 94 33.5 173.5t103 130.5t162.5 51q109 0 167 -69t58 -184q0 -94 -33.5 -173.5t-103 -130.5t-162.5 -51zM194 -129
q0 25 17.5 43t41.5 18q25 0 43 -18t18 -43q0 -24 -18 -42t-43 -18q-24 0 -41.5 18t-17.5 42z" />
    <glyph glyph-name="odotbelow" unicode="&#x1ecd;" horiz-adv-x="478" 
d="M214 32q55 0 88 62.5t38 142.5q1 11 1 32q0 135 -78 135q-55 0 -88 -62.5t-38 -142.5q-1 -11 -1 -32q0 -135 78 -135zM213 -10q-82 0 -126 52t-44 137q0 112 57.5 189.5t163.5 77.5q82 0 126 -52t44 -137q0 -112 -57.5 -189.5t-163.5 -77.5zM124 -129q0 25 17.5 43
t41.5 18q25 0 43 -18t18 -43q0 -24 -18 -42t-43 -18q-24 0 -41.5 18t-17.5 42z" />
    <glyph glyph-name="Udotbelow" unicode="&#x1ee4;" horiz-adv-x="615" 
d="M586 533l-51 -323q-17 -108 -79 -164t-157 -56q-213 0 -213 170q0 26 5 58l49 315l-70 23l12 32h226l3 -32l-79 -23l-50 -313q-5 -31 -5 -56q0 -59 33.5 -90t94.5 -31q76 0 117.5 43t55.5 134l50 313l-70 23l12 32h192l3 -32zM206 -129q0 25 17.5 43t41.5 18q25 0 43 -18
t18 -43q0 -24 -18 -42t-43 -18q-24 0 -41.5 18t-17.5 42z" />
    <glyph glyph-name="udotbelow" unicode="&#x1ee5;" horiz-adv-x="510" 
d="M452 436l-66 -379q41 -14 79 28l15 -15q-11 -32 -38.5 -56t-70.5 -24q-80 0 -64 91h-4q-58 -91 -143 -91q-49 0 -77 33t-16 104l42 254q-41 14 -79 -28l-15 15q11 32 38.5 55t70.5 23q86 0 70 -91l-39 -228q-13 -72 37 -72q52 0 116 58l53 315zM136 -129q0 25 17.5 43
t41.5 18q25 0 43 -18t18 -43q0 -24 -18 -42t-43 -18q-24 0 -41.5 18t-17.5 42z" />
    <glyph glyph-name="Ygrave" unicode="&#x1ef2;" horiz-adv-x="505" 
d="M190 537l67 -194q9 -26 13.5 -49t5.5 -33v-10h4q9 30 50 92l124 190l-80 21l12 34h183l1 -31l-54 -24l-210 -315l-26 -163l102 -20l-13 -35h-289l-3 35l108 20l26 163l-116 315l-45 24l13 31h208l-1 -34zM370 625l-129 84q-37 26 -7 56q30 31 56 -3l95 -118z" />
    <glyph glyph-name="ygrave" unicode="&#x1ef3;" horiz-adv-x="451" 
d="M14 -172q56 12 134 102l-62 451q-41 14 -79 -28l-15 15q10 31 40 54.5t74 23.5q40 0 55 -21t20 -64l38 -359q59 78 103 172t54 164q-8 -9 -25 -9q-28 0 -43 16.5t-15 39.5q0 28 17.5 44.5t45.5 16.5q31 0 50.5 -20t19.5 -57q0 -72 -44.5 -174.5t-109.5 -192.5t-144 -154
t-141 -64q-36 0 -56.5 17.5t-20.5 46.5q0 27 16 44t41 17q26 0 39.5 -16t13.5 -41q0 -15 -6 -24zM303 490l-113 100q-14 10 -13.5 30.5t21.5 33.5q20 12 38.5 6.5t26.5 -25.5l55 -133z" />
    <glyph glyph-name="Ytilde" unicode="&#x1ef8;" horiz-adv-x="505" 
d="M190 537l67 -194q9 -26 13.5 -49t5.5 -33v-10h4q9 30 50 92l124 190l-80 21l12 34h183l1 -31l-54 -24l-210 -315l-26 -163l102 -20l-13 -35h-289l-3 35l108 20l26 163l-116 315l-45 24l13 31h208l-1 -34zM340 655l-32 23q-26 21 -56.5 8.5t-39.5 -53.5l-22 2
q-9 40 13.5 76t60 44.5t81.5 -18.5l40 -29q13 -9 32 -10t37 14t22 46l22 -4q5 -27 -1.5 -51t-23 -40t-37.5 -24.5t-46.5 -4.5t-49.5 21z" />
    <glyph glyph-name="ytilde" unicode="&#x1ef9;" horiz-adv-x="451" 
d="M14 -172q56 12 134 102l-62 451q-41 14 -79 -28l-15 15q10 31 40 54.5t74 23.5q40 0 55 -21t20 -64l38 -359q59 78 103 172t54 164q-8 -9 -25 -9q-28 0 -43 16.5t-15 39.5q0 28 17.5 44.5t45.5 16.5q31 0 50.5 -20t19.5 -57q0 -72 -44.5 -174.5t-109.5 -192.5t-144 -154
t-141 -64q-36 0 -56.5 17.5t-20.5 46.5q0 27 16 44t41 17q26 0 39.5 -16t13.5 -41q0 -15 -6 -24zM268 531l-32 23q-26 21 -56.5 8.5t-39.5 -53.5l-22 2q-9 40 13.5 76t60 44.5t81.5 -18.5l40 -29q13 -9 32 -10t37 14t22 46l22 -4q5 -27 -1.5 -51t-23 -40t-37.5 -24.5
t-46.5 -4.5t-49.5 21z" />
    <glyph glyph-name="enspace" unicode="&#x2002;" horiz-adv-x="500" 
 />
    <glyph glyph-name="emspace" unicode="&#x2003;" horiz-adv-x="1000" 
 />
    <glyph glyph-name="threeperemspace" unicode="&#x2004;" horiz-adv-x="333" 
 />
    <glyph glyph-name="fourperemspace" unicode="&#x2005;" horiz-adv-x="250" 
 />
    <glyph glyph-name="sixperemspace" unicode="&#x2006;" horiz-adv-x="167" 
 />
    <glyph glyph-name="figurespace" unicode="&#x2007;" horiz-adv-x="570" 
 />
    <glyph glyph-name="punctuationspace" unicode="&#x2008;" horiz-adv-x="190" 
 />
    <glyph glyph-name="thinspace" unicode="&#x2009;" horiz-adv-x="100" 
 />
    <glyph glyph-name="hairspace" unicode="&#x200a;" horiz-adv-x="50" 
 />
    <glyph glyph-name="zerowidthspace" unicode="&#x200b;" horiz-adv-x="0" 
 />
    <glyph glyph-name="figuredash" unicode="&#x2012;" horiz-adv-x="590" 
d="M40 207l10 45h500l-10 -45h-500z" />
    <glyph glyph-name="endash" unicode="&#x2013;" horiz-adv-x="500" 
d="M40 207l10 45h410l-10 -45h-410z" />
    <glyph glyph-name="emdash" unicode="&#x2014;" horiz-adv-x="1000" 
d="M40 207l10 45h910l-10 -45h-910z" />
    <glyph glyph-name="uni2015" unicode="&#x2015;" horiz-adv-x="1250" 
d="M40 207l10 45h1160l-10 -45h-1160z" />
    <glyph glyph-name="doublebar" unicode="&#x2016;" horiz-adv-x="254" 
d="M0 -141l133 842h48l-133 -842h-48zM98 -141l133 842h48l-133 -842h-48z" />
    <glyph glyph-name="quoteleft" unicode="&#x2018;" horiz-adv-x="223" 
d="M120 481h6q8 26 39 26q24 0 37.5 -17t13.5 -41q0 -29 -19.5 -46.5t-47.5 -17.5q-37 0 -58 23.5t-21 63.5q0 69 54.5 118t129.5 61l9 -29q-136 -42 -143 -141z" />
    <glyph glyph-name="quoteright" unicode="&#x2019;" horiz-adv-x="223" 
d="M193 555h-6q-8 -26 -39 -26q-24 0 -37.5 17t-13.5 41q0 29 19.5 46.5t47.5 17.5q37 0 58 -23.5t21 -63.5q0 -69 -54.5 -118t-129.5 -61l-9 29q136 42 143 141z" />
    <glyph glyph-name="quotesinglbase" unicode="&#x201a;" horiz-adv-x="223" 
d="M123 26h-6q-8 -26 -39 -26q-24 0 -37.5 17t-13.5 41q0 29 19.5 46.5t47.5 17.5q37 0 58 -23.5t21 -63.5q0 -69 -54.5 -118t-129.5 -61l-9 29q136 42 143 141z" />
    <glyph glyph-name="quotedblleft" unicode="&#x201c;" horiz-adv-x="428" 
d="M120 481h6q8 26 39 26q24 0 37.5 -17t13.5 -41q0 -29 -19.5 -46.5t-47.5 -17.5q-37 0 -58 23.5t-21 63.5q0 69 54.5 118t129.5 61l9 -29q-136 -42 -143 -141zM325 481h6q8 26 39 26q24 0 37.5 -17t13.5 -41q0 -29 -19.5 -46.5t-47.5 -17.5q-37 0 -58 23.5t-21 63.5
q0 69 54.5 118t129.5 61l9 -29q-136 -42 -143 -141z" />
    <glyph glyph-name="quotedblright" unicode="&#x201d;" horiz-adv-x="428" 
d="M193 555h-6q-8 -26 -39 -26q-24 0 -37.5 17t-13.5 41q0 29 19.5 46.5t47.5 17.5q37 0 58 -23.5t21 -63.5q0 -69 -54.5 -118t-129.5 -61l-9 29q136 42 143 141zM398 555h-6q-8 -26 -39 -26q-24 0 -37.5 17t-13.5 41q0 29 19.5 46.5t47.5 17.5q37 0 58 -23.5t21 -63.5
q0 -69 -54.5 -118t-129.5 -61l-9 29q136 42 143 141z" />
    <glyph glyph-name="quotedblbase" unicode="&#x201e;" horiz-adv-x="428" 
d="M123 25h-6q-8 -26 -39 -26q-24 0 -37.5 17t-13.5 41q0 29 19.5 46.5t47.5 17.5q37 0 58 -23.5t21 -63.5q0 -69 -54.5 -118t-129.5 -61l-9 29q136 42 143 141zM328 25h-6q-8 -26 -39 -26q-24 0 -37.5 17t-13.5 41q0 29 19.5 46.5t47.5 17.5q37 0 58 -23.5t21 -63.5
q0 -69 -54.5 -118t-129.5 -61l-9 29q136 42 143 141z" />
    <glyph glyph-name="dagger" unicode="&#x2020;" horiz-adv-x="499" 
d="M253 350l-185 -25l-23 41l37 42l177 -24l14 221l51 30l37 -30l-65 -221l185 24l23 -42l-37 -41l-176 25l-53 -442l-53 -50l-35 50z" />
    <glyph glyph-name="daggerdbl" unicode="&#x2021;" horiz-adv-x="526" 
d="M238 141l37 209l-185 -25l-23 41l37 42l177 -24l14 221l51 30l37 -30l-65 -221l185 24l23 -42l-37 -41l-176 25l-37 -209l185 25l23 -41l-38 -42l-177 24l-13 -221l-47 -30l-41 30l64 221l-185 -24l-22 42l37 41z" />
    <glyph glyph-name="bullet" unicode="&#x2022;" horiz-adv-x="269" 
d="M45 263q0 40 27.5 67.5t67.5 27.5q39 0 66.5 -27.5t27.5 -67.5q0 -39 -27.5 -66.5t-66.5 -27.5q-40 0 -67.5 27.5t-27.5 66.5z" />
    <glyph glyph-name="ellipsis" unicode="&#x2026;" horiz-adv-x="741" 
d="M55 60q0 30 20 49.5t48 19.5t48.5 -20t20.5 -49t-20.5 -48.5t-48.5 -19.5t-48 19.5t-20 48.5zM302 60q0 30 20 49.5t48 19.5t48.5 -20t20.5 -49t-20.5 -48.5t-48.5 -19.5t-48 19.5t-20 48.5zM549 60q0 30 20 49.5t48 19.5t48.5 -20t20.5 -49t-20.5 -48.5t-48.5 -19.5
t-48 19.5t-20 48.5z" />
    <glyph glyph-name="perthousand" unicode="&#x2030;" horiz-adv-x="1277" 
d="M35 371q0 100 51 163.5t137 63.5q62 0 97.5 -40t35.5 -109q0 -90 -48 -156t-131 -66q-66 0 -104 37.5t-38 106.5zM226 551q-48 0 -77.5 -52t-29.5 -129q0 -99 74 -99q53 0 83 52.5t30 125.5q0 44 -20.5 73t-59.5 29zM176 -39l487 667h47l-487 -667h-47zM530 137
q0 100 51 163.5t137 63.5q62 0 97.5 -40t35.5 -109q0 -90 -48 -156t-131 -66q-66 0 -104 37.5t-38 106.5zM721 317q-48 0 -77.5 -52t-29.5 -129q0 -99 74 -99q53 0 83 52.5t30 125.5q0 44 -20.5 73t-59.5 29zM921 137q0 100 51 163.5t137 63.5q62 0 97.5 -40t35.5 -109
q0 -90 -48 -156t-131 -66q-66 0 -104 37.5t-38 106.5zM1112 317q-48 0 -77.5 -52t-29.5 -129q0 -99 74 -99q53 0 83 52.5t30 125.5q0 44 -20.5 73t-59.5 29z" />
    <glyph glyph-name="tripleprime" unicode="&#x2034;" horiz-adv-x="505" 
d="M131 393l-26 4v219q4 19 19 29t34 10q30 0 44.5 -19t10.5 -42zM289 393l-26 4v219q4 19 19 29t34 10q30 0 44.5 -19t10.5 -42zM447 393l-26 4v219q4 19 19 29t34 10q30 0 44.5 -19t10.5 -42z" />
    <glyph glyph-name="guilsinglleft" unicode="&#x2039;" horiz-adv-x="264" 
d="M151 46l-131 173l186 174l43 -7l-144 -167l92 -166z" />
    <glyph glyph-name="guilsinglright" unicode="&#x203a;" horiz-adv-x="264" 
d="M123 393l131 -173l-186 -174l-43 7l144 167l-92 166z" />
    <glyph glyph-name="fraction" unicode="&#x2044;" horiz-adv-x="134" 
d="M-200 -39l487 667h47l-487 -667h-47z" />
    <glyph glyph-name="uni2070" unicode="&#x2070;" horiz-adv-x="391" 
d="M35 371q0 100 51 163.5t137 63.5q62 0 97.5 -40t35.5 -109q0 -90 -48 -156t-131 -66q-66 0 -104 37.5t-38 106.5zM226 551q-48 0 -77.5 -52t-29.5 -129q0 -99 74 -99q53 0 83 52.5t30 125.5q0 44 -20.5 73t-59.5 29z" />
    <glyph glyph-name="uni2074" unicode="&#x2074;" horiz-adv-x="388" 
d="M282 355h71l-6 -41h-71l-14 -80h-76l14 80h-185l5 32l211 242h88zM206 355l18 117q3 18 7 36.5t7 27.5l3 10h-4q-14 -29 -46 -66l-68 -79q-13 -15 -25.5 -26.5t-18.5 -15.5l-6 -4l-1 -4q8 4 51 4h83z" />
    <glyph glyph-name="uni2075" unicode="&#x2075;" horiz-adv-x="334" 
d="M28 332l37 6q-3 -34 15 -53t51 -19q72 0 72 65q0 37 -30 55t-99 20l45 182h195l-11 -65h-165l-18 -70q79 -3 119.5 -25t40.5 -84q0 -61 -42 -89.5t-105 -28.5q-52 0 -80 24.5t-28 60.5q0 11 3 21z" />
    <glyph glyph-name="uni2076" unicode="&#x2076;" horiz-adv-x="347" 
d="M117 425q-15 -30 -15 -78q0 -87 59 -87q28 0 50 24.5t22 71.5q0 77 -67 77q-27 0 -49 -8zM126 451q30 15 62 15q53 0 85.5 -27.5t32.5 -76.5q0 -68 -43.5 -101.5t-104.5 -33.5q-66 0 -99.5 37t-33.5 95q0 100 85 167.5t225 71.5l2 -20q-147 -31 -211 -127z" />
    <glyph glyph-name="uni2077" unicode="&#x2077;" horiz-adv-x="332" 
d="M97 226l-46 14l199 276h-142l-54 -62l-14 5l20 129h288l4 -6z" />
    <glyph glyph-name="uni2078" unicode="&#x2078;" horiz-adv-x="376" 
d="M185 402q-35 0 -58 -24t-23 -64q0 -28 16 -43.5t43 -15.5q38 0 59 23t21 63q0 29 -15.5 45t-42.5 16zM126 415v4q-58 17 -58 78q0 46 40 73.5t106 27.5q60 0 93.5 -25.5t33.5 -65.5q0 -36 -24 -63t-68 -31v-4q35 -6 54 -27.5t19 -51.5q0 -50 -43.5 -77t-114.5 -27
q-66 0 -102.5 25t-36.5 69q0 41 29.5 66.5t71.5 28.5zM193 428q33 0 53.5 26t20.5 61q0 52 -53 52q-30 0 -51 -23t-20 -61q1 -26 15 -40.5t35 -14.5z" />
    <glyph glyph-name="uni2079" unicode="&#x2079;" horiz-adv-x="350" 
d="M229 400q16 31 16 78q0 87 -59 87q-28 0 -50 -24.5t-22 -71.5q0 -77 67 -77q26 0 48 8zM221 374q-30 -15 -62 -15q-53 0 -85.5 27.5t-32.5 76.5q0 68 43.5 101.5t104.5 33.5q65 0 98 -37t33 -95q0 -100 -84 -167.5t-224 -71.5l-2 20q147 31 211 127z" />
    <glyph glyph-name="uni207A" unicode="&#x207a;" horiz-adv-x="502" 
d="M67 444h161l25 159h46l-25 -159h168l-7 -42h-168l-27 -173h-46l27 173h-161z" />
    <glyph glyph-name="uni207B" unicode="&#x207b;" horiz-adv-x="504" 
d="M437 401h-377l7 43h377z" />
    <glyph glyph-name="uni207C" unicode="&#x207c;" horiz-adv-x="523" 
d="M437 344h-377l7 43h377zM456 467h-377l7 43h377z" />
    <glyph glyph-name="uni207D" unicode="&#x207d;" horiz-adv-x="240" 
d="M92 364q0 -56 16 -97t56 -95h-55q-69 82 -69 189q0 82 42.5 162t103.5 129h64q-69 -56 -113.5 -130.5t-44.5 -157.5z" />
    <glyph glyph-name="uni207E" unicode="&#x207e;" horiz-adv-x="240" 
d="M143 460q0 56 -16 97t-56 95h55q69 -82 69 -189q0 -82 -42.5 -162t-103.5 -129h-64q69 56 113.5 130.5t44.5 157.5z" />
    <glyph glyph-name="n.superior" unicode="&#x207f;" horiz-adv-x="459" 
d="M292 358l22 127q10 51 -33 51q-29 0 -69 -32l-38 -222h-83l45 264q-29 10 -54 -17l-12 12q8 25 30.5 41t55.5 16q65 0 58 -65h3q42 65 106 65q35 0 57 -19t22 -56q0 -13 -3 -27l-28 -167q29 -11 55 16l13 -12q-22 -58 -89 -58q-61 0 -61 51q0 16 3 32z" />
    <glyph glyph-name="uni2080" unicode="&#x2080;" horiz-adv-x="391" 
d="M35 137q0 100 51 163.5t137 63.5q62 0 97.5 -40t35.5 -109q0 -90 -48 -156t-131 -66q-66 0 -104 37.5t-38 106.5zM226 317q-48 0 -77.5 -52t-29.5 -129q0 -99 74 -99q53 0 83 52.5t30 125.5q0 44 -20.5 73t-59.5 29z" />
    <glyph glyph-name="uni2081" unicode="&#x2081;" horiz-adv-x="310" 
d="M232 359l-49 -311l92 -19l-13 -29h-251l-1 29l93 19l37 229h-93l-3 23l171 63z" />
    <glyph glyph-name="uni2082" unicode="&#x2082;" horiz-adv-x="350" 
d="M106 61h178l-8 -61h-274l-2 38q13 7 55 29.5t62 35t48 35t40.5 48t12.5 54.5q0 67 -65 67q-59 0 -59 -62q0 -7 2 -19l-35 -10q-8 19 -8 38q0 53 33.5 81.5t89.5 28.5q59 0 91.5 -29t32.5 -82q0 -110 -194 -189v-3z" />
    <glyph glyph-name="uni2083" unicode="&#x2083;" horiz-adv-x="330" 
d="M21 111l32 2q-3 -38 14.5 -60t52.5 -22q66 0 66 62q0 36 -17.5 52.5t-60.5 19.5l-4 25q59 8 81.5 22t22.5 48q0 54 -54 54q-28 0 -42.5 -15.5t-10.5 -43.5l-30 -7q-6 12 -6 28q0 39 30 63.5t83 24.5q56 0 86.5 -25t30.5 -66q0 -80 -111 -90v-4q42 -3 66.5 -25t24.5 -56
q0 -57 -43 -81.5t-107 -24.5q-51 0 -80.5 25t-29.5 63q0 19 6 31z" />
    <glyph glyph-name="uni2084" unicode="&#x2084;" horiz-adv-x="388" 
d="M282 121h71l-6 -41h-71l-14 -80h-76l14 80h-185l5 32l211 242h88zM206 121l18 117q3 18 7 36.5t7 27.5l3 10h-4q-14 -29 -46 -66l-68 -79q-13 -15 -25.5 -26.5t-18.5 -15.5l-6 -4l-1 -4q8 4 51 4h83z" />
    <glyph glyph-name="uni2085" unicode="&#x2085;" horiz-adv-x="334" 
d="M28 98l37 6q-3 -34 15 -53t51 -19q72 0 72 65q0 37 -30 55t-99 20l45 182h195l-11 -65h-165l-18 -70q79 -3 119.5 -25t40.5 -84q0 -61 -42 -89.5t-105 -28.5q-52 0 -80 24.5t-28 60.5q0 11 3 21z" />
    <glyph glyph-name="uni2086" unicode="&#x2086;" horiz-adv-x="347" 
d="M117 191q-15 -30 -15 -78q0 -87 59 -87q28 0 50 24.5t22 71.5q0 77 -67 77q-27 0 -49 -8zM126 217q30 15 62 15q53 0 85.5 -27.5t32.5 -76.5q0 -68 -43.5 -101.5t-104.5 -33.5q-66 0 -99.5 37t-33.5 95q0 100 85 167.5t225 71.5l2 -20q-147 -31 -211 -127z" />
    <glyph glyph-name="uni2087" unicode="&#x2087;" horiz-adv-x="332" 
d="M97 -8l-46 14l199 276h-142l-54 -62l-14 5l20 129h288l4 -6z" />
    <glyph glyph-name="uni2088" unicode="&#x2088;" horiz-adv-x="376" 
d="M185 168q-35 0 -58 -24t-23 -64q0 -28 16 -43.5t43 -15.5q38 0 59 23t21 63q0 29 -15.5 45t-42.5 16zM126 181v4q-58 17 -58 78q0 46 40 73.5t106 27.5q60 0 93.5 -25.5t33.5 -65.5q0 -36 -24 -63t-68 -31v-4q35 -6 54 -27.5t19 -51.5q0 -50 -43.5 -77t-114.5 -27
q-66 0 -102.5 25t-36.5 69q0 41 29.5 66.5t71.5 28.5zM193 194q33 0 53.5 26t20.5 61q0 52 -53 52q-30 0 -51 -23t-20 -61q1 -26 15 -40.5t35 -14.5z" />
    <glyph glyph-name="uni2089" unicode="&#x2089;" horiz-adv-x="350" 
d="M229 166q16 31 16 78q0 87 -59 87q-28 0 -50 -24.5t-22 -71.5q0 -77 67 -77q26 0 48 8zM221 140q-30 -15 -62 -15q-53 0 -85.5 27.5t-32.5 76.5q0 68 43.5 101.5t104.5 33.5q65 0 98 -37t33 -95q0 -100 -84 -167.5t-224 -71.5l-2 20q147 31 211 127z" />
    <glyph glyph-name="uni208A" unicode="&#x208a;" horiz-adv-x="502" 
d="M67 215h161l25 159h46l-25 -159h168l-7 -42h-168l-27 -173h-46l27 173h-161z" />
    <glyph glyph-name="uni208B" unicode="&#x208b;" horiz-adv-x="504" 
d="M437 172h-377l7 43h377z" />
    <glyph glyph-name="uni208C" unicode="&#x208c;" horiz-adv-x="523" 
d="M437 115h-377l7 43h377zM456 238h-377l7 43h377z" />
    <glyph glyph-name="uni208D" unicode="&#x208d;" horiz-adv-x="240" 
d="M92 135q0 -56 16 -97t56 -95h-55q-69 82 -69 189q0 82 42.5 162t103.5 129h64q-69 -56 -113.5 -130.5t-44.5 -157.5z" />
    <glyph glyph-name="uni208E" unicode="&#x208e;" horiz-adv-x="240" 
d="M143 231q0 56 -16 97t-56 95h55q69 -82 69 -189q0 -82 -42.5 -162t-103.5 -129h-64q69 56 113.5 130.5t44.5 157.5z" />
    <glyph glyph-name="uni20A1" unicode="&#x20a1;" horiz-adv-x="540" 
d="M274 -110l23 100q-35 0 -69 8l-25 -108h-41l28 120q-125 53 -125 227q0 148 73 245.5t190 112.5l24 102h41l-24 -99q38 0 69 -11l26 110h41l-31 -129q36 -26 36 -66q0 -28 -16 -44t-41 -16h-8l-93 -394q53 8 112 51l22 -29q-64 -67 -147 -77l-24 -103h-41zM365 553h-6
l-115 -490q29 -17 66 -17l98 415q-12 13 -12 34q0 31 26 46q-26 12 -57 12zM166 237q0 -95 43 -146l107 453q-66 -25 -108 -108.5t-42 -198.5z" />
    <glyph glyph-name="uni20A2" unicode="&#x20a2;" horiz-adv-x="540" 
d="M365 553q-84 0 -141.5 -89.5t-57.5 -226.5q0 -135 82 -176l45 261q74 0 61 -63l-6 -30h4q20 51 42.5 72t55.5 21q26 0 40.5 -13.5t14.5 -38.5q0 -24 -14 -38t-38 -14q-42 0 -42 49q-22 -14 -65 -90q-5 -8 -8 -13l-20 -118q77 0 146 53l22 -29q-76 -80 -188 -80
t-172.5 65.5t-60.5 181.5q0 160 85.5 260.5t217.5 100.5q62 0 102 -26t40 -70q0 -28 -16 -44t-41 -16q-24 0 -40.5 15t-16.5 38q0 31 26 46q-26 12 -57 12z" />
    <glyph glyph-name="franc" unicode="&#x20a3;" horiz-adv-x="780" 
d="M473 294h-248l-38 -239l102 -20l-13 -35h-259l-2 32l77 23l76 478l-70 23l12 32h419l-25 -157l-22 -5l-56 116h-162l-32 -202h217l106 46h18l-19 -128h4q27 70 59.5 99t74.5 29q31 0 49.5 -17t18.5 -47t-17 -47.5t-47 -17.5q-55 0 -55 61q-39 -24 -97 -128l-33 -190h-89z
" />
    <glyph glyph-name="lira" unicode="&#x20a4;" horiz-adv-x="621" 
d="M112 348l10 39h116l8 29q25 90 74 136t134 46q62 0 99.5 -25t37.5 -71q0 -29 -15 -44.5t-39 -15.5q-22 0 -37 13t-15 35q0 21 14 34t32 13q-15 27 -67 27q-46 0 -73.5 -32t-46.5 -99l-13 -46h151l-10 -39h-152l-23 -81h155l-10 -39h-156l-14 -50q-8 -28 -18 -57
q10 -4 33.5 -14t35.5 -15t30.5 -11.5t33.5 -9t30 -2.5q47 0 72 19t29 70l23 3q8 -24 8 -45q0 -126 -125 -126q-34 0 -73 14.5t-58 26t-63 39.5q-47 -80 -124 -80q-46 0 -68.5 22t-22.5 58q0 39 26 63t71 24q30 0 60 -8l22 79h-112l10 39h113l22 81h-115zM100 31q21 0 35 17
t25 57l1 2q-29 12 -51 12q-50 0 -50 -48q0 -18 11 -29t29 -11z" />
    <glyph glyph-name="uni20A6" unicode="&#x20a6;" horiz-adv-x="755" 
d="M71 337l7 39h100l25 157l-70 23l12 32h164l104 -212h143l25 157l-70 23l12 32h193l3 -32l-79 -23l-25 -157h110l-7 -39h-109l-13 -81h108l-7 -39h-107l-34 -217h-57l-112 217h-176l-25 -162l72 -23l-13 -32h-193l-2 32l77 23l26 162h-103l7 39h102l13 81h-101zM239 389
l-22 -133h150l-72 140q-16 30 -25.5 57t-11.5 39l-2 11h-4q-1 -40 -13 -114zM523 119q2 64 13 133l13 85h-117l45 -90q18 -36 28.5 -68t12.5 -46l1 -14h4z" />
    <glyph glyph-name="peseta" unicode="&#x20a7;" horiz-adv-x="1164" 
d="M851 56q19 -28 68 -28q87 0 87 63q0 29 -17 48t-60 47q-35 23 -52.5 36.5t-33.5 40t-16 57.5q0 61 43 93.5t114 32.5q57 0 93.5 -26.5t36.5 -64.5q0 -26 -14.5 -40t-36.5 -14q-24 0 -38 13t-14 34q0 29 26 38q-18 19 -53 19q-34 0 -56.5 -16t-22.5 -47q0 -22 14.5 -38
t54.5 -44q46 -32 64 -46.5t33.5 -39.5t15.5 -56q0 -128 -168 -128q-93 0 -126 57q-54 -57 -138 -57q-67 0 -92.5 39.5t-12.5 107.5l49 252h-78q-8 -47 -33 -81t-61.5 -51.5t-74.5 -25t-80 -7.5h-58l-27 -169l102 -20l-13 -35h-259l-2 32l77 23l76 478l-70 23l12 32h211
q198 0 203 -152h52l106 117h27l-21 -117h109l-15 -47h-101l-44 -247q-11 -49 -0.5 -75t48.5 -26q50 0 97 35q-1 5 -1 16q0 28 15.5 43.5t38.5 15.5q25 0 38.5 -14t13.5 -36q0 -19 -10.5 -31t-25.5 -14zM265 545l-44 -278h38q77 0 115.5 32.5t48.5 107.5q10 74 -19.5 106
t-103.5 32h-35z" />
    <glyph glyph-name="uni20A8" unicode="&#x20a8;" horiz-adv-x="880" 
d="M265 545l-38 -238h47q72 0 112.5 30t40.5 112q0 50 -23.5 73t-81.5 23h-57zM17 0l-2 32l77 23l76 478l-70 23l12 32h227q92 0 140 -32.5t48 -106.5q0 -77 -55 -123.5t-134 -46.5v-4q11 -2 20 -6t19 -13.5t15 -15.5t19 -23t20 -25l57 -69q43 -52 78 -74t71 -22q92 0 92 64
q0 28 -18 47t-64 48q-53 33 -77.5 60t-24.5 70q0 63 44 96.5t113 33.5q58 0 94 -23.5t36 -60.5q0 -26 -15.5 -40t-37.5 -14q-24 0 -38 13t-14 34q0 24 19 41q-17 12 -47 12q-35 0 -56.5 -17.5t-21.5 -48.5q0 -22 15 -37.5t56 -44.5q66 -45 89.5 -71t23.5 -71
q0 -64 -47.5 -96t-122.5 -32q-77 0 -132 19t-95 68l-103 128q-2 2 -10 13t-11 14t-11 11.5t-14 11.5t-15.5 7t-20.5 5l-34 -212l72 -23l-13 -32h-229z" />
    <glyph glyph-name="uni20A9" unicode="&#x20a9;" horiz-adv-x="878" 
d="M504 0l-34 381q-2 34 -1 61.5t3 44.5l3 17h-4q-12 -62 -42 -125l-177 -379h-89l-14 247h-99l9 39h88l-4 71h-73l9 39h62l-7 136l-47 25l13 31h209l-1 -35l-82 -13l6 -144h144l91 192h76l16 -192h152l61 137l-79 21l12 34h182l1 -31l-54 -24l-63 -137h66l-9 -39h-74
l-32 -71h95l-9 -39h-104l-111 -247h-89zM563 357l6 -71h93l32 71h-131zM234 357l4 -71h86l33 71h-123zM579 68q20 76 50 143l16 36h-72l3 -37q3 -41 3 -72.5t-2 -50.5l-2 -19h4zM237 68q15 65 46 131l22 48h-65l2 -49q1 -32 -1 -64.5t-5 -49.5l-3 -16h4z" />
    <glyph glyph-name="uni20AA" unicode="&#x20aa;" horiz-adv-x="688" 
d="M420 124h-57l50 316q3 18 3 32q0 68 -77 68h-81l-85 -540h-155l-3 31l78 24l76 478l-71 24l12 31h233q72 0 101.5 -27t29.5 -77q0 -20 -5 -50zM550 588h155l3 -31l-78 -24l-59 -369q-13 -82 -51 -123t-128 -41h-163l73 464h58l-67 -420h89q47 0 68.5 25t30.5 79z" />
    <glyph glyph-name="Euro" unicode="&#x20ac;" horiz-adv-x="585" 
d="M410 553q-60 0 -108.5 -47.5t-72.5 -129.5h177l-6 -39h-180q-8 -39 -9 -81h181l-6 -39h-175q5 -81 43 -126t106 -45q78 0 149 53l22 -29q-76 -80 -188 -80q-107 0 -167.5 60t-65.5 167h-70l6 39h64q2 45 10 81h-66l6 39h70q32 103 107.5 162.5t175.5 59.5q62 0 102 -26
t40 -70q0 -28 -15.5 -44t-41.5 -16q-24 0 -40.5 15t-16.5 38q0 31 26 46q-26 12 -57 12z" />
    <glyph glyph-name="uni20AE" unicode="&#x20ae;" horiz-adv-x="564" 
d="M130 279l8 47l102 34l29 182h-105l-92 -116l-22 5l25 157h499l-25 -157l-22 -5l-54 116h-109l-23 -149l99 33l-8 -47l-99 -33l-11 -69l99 33l-8 -47l-98 -33l-28 -175l102 -20l-13 -35h-289l-3 35l108 20l22 142l-103 -34l8 47l103 34l11 69z" />
    <glyph glyph-name="uni20B1" unicode="&#x20b1;" horiz-adv-x="594" 
d="M65 373l8 39h85l20 121l-70 23l12 32h211q203 0 203 -160q0 -11 -1 -16h91l-8 -39h-88q-10 -42 -36 -72.5t-61.5 -46.5t-72 -23t-76.5 -7h-58l-27 -169l102 -20l-13 -35h-259l-2 32l77 23l50 318h-87zM275 545l-21 -133h180q1 9 1 30q0 55 -30 79t-95 24h-35zM378 293
q37 26 50 80h-180l-17 -106h38q73 0 109 26z" />
    <glyph glyph-name="afii61289" unicode="&#x2113;" horiz-adv-x="422" 
d="M35 337q55 16 86 28l31 176q26 144 146 144q109 0 109 -103q0 -141 -198 -222l-53 -310q64 0 105.5 16t94.5 58l15 -15q-32 -52 -94 -85.5t-135 -33.5q-86 0 -70 91l43 247q-45 -11 -75 -17zM248 581l-31 -175q132 68 132 170q0 31 -13 47.5t-35 16.5q-43 0 -53 -59z" />
    <glyph glyph-name="afii61352" unicode="&#x2116;" horiz-adv-x="1130" 
d="M706 628q40 0 64 -17.5t24 -46.5t-16 -44t-41 -15t-38 14t-13 37q0 20 12 34q-24 0 -37.5 -23t-21.5 -75l-77 -492h-57l-167 374q-14 31 -23 63.5t-11 48.5l-2 17h-4q-1 -40 -13 -114l-40 -250q-6 -35 -9.5 -51.5t-12.5 -39.5t-21 -33t-33 -17.5t-51 -7.5q-40 0 -64 17.5
t-24 46.5t16 44t41 15t38 -14t13 -37q0 -20 -12 -34q25 0 36.5 15.5t19.5 65.5l67 424l-70 23l12 32h160l139 -320q16 -37 25 -75t9 -57l1 -19h4q2 64 13 133l36 229q12 76 38.5 112.5t89.5 36.5zM706 0v42h310l-20 -42h-290zM876 159q39 0 60.5 43t25.5 104q9 113 -51 113
q-39 0 -60.5 -43t-25.5 -104q-9 -113 51 -113zM876 128q-66 0 -102.5 37t-36.5 100q0 80 44.5 133t129.5 53q66 0 102.5 -37.5t36.5 -99.5q0 -80 -44.5 -133t-129.5 -53z" />
    <glyph glyph-name="published" unicode="&#x2117;" horiz-adv-x="683" 
d="M50 294q0 132 89 219.5t217 87.5t217.5 -87.5t89.5 -219.5t-89.5 -219t-217.5 -87t-217 87t-89 219zM81 294q0 -120 80 -198.5t196 -78.5t196 78.5t80 198.5t-80 199t-196 79t-196 -79t-80 -199zM351 253h-18v-82l52 -14l-6 -22h-155l-5 22l48 14v256l-48 15l5 21h146
q70 0 105.5 -23t35.5 -78q0 -63 -41 -86t-119 -23zM333 435v-154h18q48 0 69 17.5t21 60.5q0 41 -20.5 58.5t-63.5 17.5h-24z" />
    <glyph glyph-name="servicemark" unicode="&#x2120;" horiz-adv-x="680" 
d="M59 390l17 5q23 -45 40 -59t45 -14q56 0 56 44q0 31 -41 48l-33 13q-34 14 -48.5 31.5t-14.5 46.5q0 44 30.5 66t74.5 22q43 0 64 -12l35 11l-7 -83l-13 -5q-20 36 -36 48.5t-44 12.5q-20 0 -35 -11.5t-15 -32.5q0 -27 31 -40l45 -19q33 -14 47 -32t14 -49q0 -43 -33 -64
t-80 -21q-38 0 -74 15l-34 -15zM602 588h108v-22l-38 -11l-35 -223l34 -11l-7 -22h-123v22l38 11l33 209l-130 -242h-24l-57 242l-33 -209l36 -11l-8 -22h-102l-1 22l39 11l35 223l-35 11l8 22h111l45 -202z" />
    <glyph glyph-name="trademark" unicode="&#x2122;" horiz-adv-x="719" 
d="M91 322l54 10l36 224h-55l-36 -58l-20 2l14 88h264l-14 -88l-21 -2l-17 58h-55l-36 -224l50 -10l-8 -23h-155zM641 588h108v-22l-38 -11l-35 -223l34 -11l-7 -22h-123v22l38 11l33 209l-130 -242h-24l-57 242l-33 -209l36 -11l-8 -22h-102l-1 22l39 11l35 223l-35 11
l8 22h111l45 -202z" />
    <glyph glyph-name="ohm" unicode="&#x2126;" horiz-adv-x="722" 
d="M414 553q-76 0 -134 -70.5t-64 -197.5q-4 -75 15.5 -148t61.5 -113l-11 -24h-267l1 137l22 8l40 -68h123v4q-88 74 -88 204q0 144 89.5 228t220.5 84q116 0 173.5 -63t57.5 -165q0 -187 -185 -288v-4h123l60 68l20 -8l-41 -137h-271l-5 24q29 18 56 42.5t59.5 65.5
t53.5 101.5t24 130.5q3 88 -29.5 138.5t-104.5 50.5z" />
    <glyph glyph-name="estimated" unicode="&#x212e;" horiz-adv-x="647" 
d="M343 599q71 0 126 -25.5t87.5 -69.5t49 -97t16.5 -113v-26h-431v-167q60 -58 152 -58q129 0 184 102h66q-30 -71 -93 -113t-157 -42q-136 0 -207 89t-71 215q0 60 16.5 113t49 97t87.5 69.5t125 25.5zM343 546q-94 0 -152 -58v-168h304v168q-58 58 -152 58z" />
    <glyph glyph-name="uni2153" unicode="&#x2153;" horiz-adv-x="804" 
d="M232 593l-49 -311l92 -19l-13 -29h-251l-1 29l93 19l37 229h-93l-3 23l171 63zM140 -39l487 667h47l-487 -667h-47zM495 111l32 2q-3 -38 14.5 -60t52.5 -22q66 0 66 62q0 36 -17.5 52.5t-60.5 19.5l-4 25q59 8 81.5 22t22.5 48q0 54 -54 54q-28 0 -42.5 -15.5
t-10.5 -43.5l-30 -7q-6 12 -6 28q0 39 30 63.5t83 24.5q56 0 86.5 -25t30.5 -66q0 -80 -111 -90v-4q42 -3 66.5 -25t24.5 -56q0 -57 -43 -81.5t-107 -24.5q-51 0 -80.5 25t-29.5 63q0 19 6 31z" />
    <glyph glyph-name="uni2154" unicode="&#x2154;" horiz-adv-x="834" 
d="M106 295h178l-8 -61h-274l-2 38q13 7 55 29.5t62 35t48 35t40.5 48t12.5 54.5q0 67 -65 67q-59 0 -59 -62q0 -7 2 -19l-35 -10q-8 19 -8 38q0 53 33.5 81.5t89.5 28.5q59 0 91.5 -29t32.5 -82q0 -110 -194 -189v-3zM170 -39l487 667h47l-487 -667h-47zM525 111l32 2
q-3 -38 14.5 -60t52.5 -22q66 0 66 62q0 36 -17.5 52.5t-60.5 19.5l-4 25q59 8 81.5 22t22.5 48q0 54 -54 54q-28 0 -42.5 -15.5t-10.5 -43.5l-30 -7q-6 12 -6 28q0 39 30 63.5t83 24.5q56 0 86.5 -25t30.5 -66q0 -80 -111 -90v-4q42 -3 66.5 -25t24.5 -56q0 -57 -43 -81.5
t-107 -24.5q-51 0 -80.5 25t-29.5 63q0 19 6 31z" />
    <glyph glyph-name="uni215B" unicode="&#x215b;" horiz-adv-x="850" 
d="M232 593l-49 -311l92 -19l-13 -29h-251l-1 29l93 19l37 229h-93l-3 23l171 63zM140 -39l487 667h47l-487 -667h-47zM659 168q-35 0 -58 -24t-23 -64q0 -28 16 -43.5t43 -15.5q38 0 59 23t21 63q0 29 -15.5 45t-42.5 16zM600 181v4q-58 17 -58 78q0 46 40 73.5t106 27.5
q60 0 93.5 -25.5t33.5 -65.5q0 -36 -24 -63t-68 -31v-4q35 -6 54 -27.5t19 -51.5q0 -50 -43.5 -77t-114.5 -27q-66 0 -102.5 25t-36.5 69q0 41 29.5 66.5t71.5 28.5zM667 194q33 0 53.5 26t20.5 61q0 52 -53 52q-30 0 -51 -23t-20 -61q1 -26 15 -40.5t35 -14.5z" />
    <glyph glyph-name="uni215C" unicode="&#x215c;" horiz-adv-x="840" 
d="M21 345l32 2q-3 -38 14.5 -60t52.5 -22q66 0 66 62q0 36 -17.5 52.5t-60.5 19.5l-4 25q59 8 81.5 22t22.5 48q0 54 -54 54q-28 0 -42.5 -15.5t-10.5 -43.5l-30 -7q-6 12 -6 28q0 39 30 63.5t83 24.5q56 0 86.5 -25t30.5 -66q0 -80 -111 -90v-4q42 -3 66.5 -25t24.5 -56
q0 -57 -43 -81.5t-107 -24.5q-51 0 -80.5 25t-29.5 63q0 19 6 31zM130 -39l487 667h47l-487 -667h-47zM649 168q-35 0 -58 -24t-23 -64q0 -28 16 -43.5t43 -15.5q38 0 59 23t21 63q0 29 -15.5 45t-42.5 16zM590 181v4q-58 17 -58 78q0 46 40 73.5t106 27.5q60 0 93.5 -25.5
t33.5 -65.5q0 -36 -24 -63t-68 -31v-4q35 -6 54 -27.5t19 -51.5q0 -50 -43.5 -77t-114.5 -27q-66 0 -102.5 25t-36.5 69q0 41 29.5 66.5t71.5 28.5zM657 194q33 0 53.5 26t20.5 61q0 52 -53 52q-30 0 -51 -23t-20 -61q1 -26 15 -40.5t35 -14.5z" />
    <glyph glyph-name="uni215D" unicode="&#x215d;" horiz-adv-x="844" 
d="M28 332l37 6q-3 -34 15 -53t51 -19q72 0 72 65q0 37 -30 55t-99 20l45 182h195l-11 -65h-165l-18 -70q79 -3 119.5 -25t40.5 -84q0 -61 -42 -89.5t-105 -28.5q-52 0 -80 24.5t-28 60.5q0 11 3 21zM134 -39l487 667h47l-487 -667h-47zM653 168q-35 0 -58 -24t-23 -64
q0 -28 16 -43.5t43 -15.5q38 0 59 23t21 63q0 29 -15.5 45t-42.5 16zM594 181v4q-58 17 -58 78q0 46 40 73.5t106 27.5q60 0 93.5 -25.5t33.5 -65.5q0 -36 -24 -63t-68 -31v-4q35 -6 54 -27.5t19 -51.5q0 -50 -43.5 -77t-114.5 -27q-66 0 -102.5 25t-36.5 69q0 41 29.5 66.5
t71.5 28.5zM661 194q33 0 53.5 26t20.5 61q0 52 -53 52q-30 0 -51 -23t-20 -61q1 -26 15 -40.5t35 -14.5z" />
    <glyph glyph-name="uni215E" unicode="&#x215e;" horiz-adv-x="777" 
d="M97 226l-46 14l199 276h-142l-54 -62l-14 5l20 129h288l4 -6zM67 -39l487 667h47l-487 -667h-47zM586 168q-35 0 -58 -24t-23 -64q0 -28 16 -43.5t43 -15.5q38 0 59 23t21 63q0 29 -15.5 45t-42.5 16zM527 181v4q-58 17 -58 78q0 46 40 73.5t106 27.5q60 0 93.5 -25.5
t33.5 -65.5q0 -36 -24 -63t-68 -31v-4q35 -6 54 -27.5t19 -51.5q0 -50 -43.5 -77t-114.5 -27q-66 0 -102.5 25t-36.5 69q0 41 29.5 66.5t71.5 28.5zM594 194q33 0 53.5 26t20.5 61q0 52 -53 52q-30 0 -51 -23t-20 -61q1 -26 15 -40.5t35 -14.5z" />
    <glyph glyph-name="arrowleft" unicode="&#x2190;" horiz-adv-x="709" 
d="M261 202l189 -190v-14l-56 -10l-334 290v30l334 290l56 -10v-14l-189 -190q-20 -20 -39.5 -36.5t-28.5 -22.5l-9 -6v-4q20 3 83 3h392v-50h-392l-83 3v-4q32 -20 77 -65z" />
    <glyph glyph-name="arrowup" unicode="&#x2191;" horiz-adv-x="710" 
d="M274 398l-190 -189h-14l-10 56l290 334h30l290 -334l-10 -56h-14l-190 189q-20 20 -36 39t-22 29l-7 9h-4q3 -20 3 -83v-392h-50v392l3 83h-4q-20 -32 -65 -77z" />
    <glyph glyph-name="arrowright" unicode="&#x2192;" horiz-adv-x="709" 
d="M259 12l189 190q20 20 39 36t29 22l9 7v4q-20 -3 -83 -3h-392v50h392l83 -3v4q-32 20 -77 65l-189 190v14l56 10l334 -290v-30l-334 -290l-56 10v14z" />
    <glyph glyph-name="arrowdown" unicode="&#x2193;" horiz-adv-x="710" 
d="M84 380l190 -189q20 -20 36.5 -39.5t22.5 -28.5l6 -9h4q-3 20 -3 83v392h50v-392l-3 -83h4q20 32 65 77l190 189h14l10 -56l-290 -334h-30l-290 334l10 56h14z" />
    <glyph glyph-name="uni2196" unicode="&#x2196;" horiz-adv-x="708" 
d="M188 337l-1 -268l-10 -10l-46 33l-31 441l21 21l441 -31l33 -47l-10 -10h-268q-28 0 -53.5 2t-36.5 4l-11 2l-2 -3q16 -12 60 -56l334 -333l-36 -36l-333 333q-57 57 -57 60l-2 -2q8 -36 8 -100z" />
    <glyph glyph-name="uni2197" unicode="&#x2197;" horiz-adv-x="708" 
d="M521 69l-1 268q0 28 2 53t4 36l2 11l-2 3q-12 -16 -57 -61l-333 -333l-36 36l334 333l60 56l-2 3q-37 -8 -101 -8h-268l-10 10l33 47l441 31l21 -21l-31 -441l-46 -33z" />
    <glyph glyph-name="uni2198" unicode="&#x2198;" horiz-adv-x="708" 
d="M520 263l1 268l10 10l46 -33l31 -441l-21 -21l-441 31l-33 47l10 10h268q28 0 53.5 -2t36.5 -4l11 -2l2 3q-16 12 -60 56l-334 333l36 36l333 -333q12 -12 22.5 -23t16.5 -17.5t10 -11t6 -7.5l2 -2l2 3q-8 36 -8 100z" />
    </font>
</defs>
</svg>
